# Rhino

mtllib 反面交线1.mtl
usemtl Default
v 84.000000109449985 719.99999990819992 189.9999981942 1
v 83.999999097099533 720 222.99999932282523 0.89442718414026368
v 110.39999999999998 720 242.8 1
v 201.30127190967843 720 310.97595393225924 0.85084031198415933
v 181.05575215902724 720 422.7843653304936 1
v 160.81023240837595 720 534.592776728728 0.85084031198415933
v 51.774705377679979 720 566.56551159 1
v -74.47416107171 720 603.5857530053499 1
v -200.72302752109999 720 640.6059944207 1
v -212.29748896900503 719.99999999999989 643.9999999999999 0.98984725379099359
v -224.35930606599999 720 644 1
v -427.17965303300002 720 644 1
v -630 720 644 1
v -630 720 517 1
v -630 720 390 1
v -629.99999999999989 720 360 0.70710678118654757
v -600 720 360 1
v -502.5 720 360 1
v -405 720 360 1
v -375 720 360 0.70710678118654757
v -375 720 330 1
v -375 720 195 1
v -375 720 60 1
v -145.5 720 60 1
v 84 720 60 1
v 84.000000054724993 719.99999995409996 124.9999990971 1
cstype rat bspline
deg 2
curv 588.99999819419997 3152.3445968499914 1 2 3 4 5 6 7 8 9 10 11 12 13 14 15 16 17 18 19 20 21 22 23 24 25 26 1
parm u 588.99999819419997 588.99999819419997 588.99999819419997 650.20148435327542 650.20148435327542 853.78416142268327 853.78416142268327 1057.3668384920911 1057.3668384920911 1320.4962709332888 1320.4962709332888 1344.4561251140976 1344.4561251140976 1750.0968190480976 1750.0968190480976 2004.0968190480976 2004.0968190480976 2051.2207088519444 2051.2207088519444 2246.2207088519444 2246.2207088519444 2293.3445986557913 2293.3445986557913 2563.3445986557913 2563.3445986557913 3022.3445986557913 3022.3445986557913 3152.3445968499914 3152.3445968499914 3152.3445968499914
end
