# Rhino

mtllib 正面交线.mtl
usemtl Default
v -829.44271909999998 745 375.278640450004 1
v -840.00000000000955 744.99999999999989 370 0.97324898946773741
v -851.80339887499997 745 370 1
cstype rat bspline
deg 2
curv 0 23.182380450042263 1 2 3
parm u 0 0 0 23.182380450042263 23.182380450042263 23.182380450042263
end
usemtl Default
v -567.63932022500001 745 506.18033988749994
v -829.44271909999998 745 375.27864045000399
cstype bspline
deg 1
curv -292.70509831249416 -0 4 5
parm u -292.70509831249416 -292.70509831249416 -0 -0
end
usemtl Default
v -540 745 550.9016994374999 1
v -540.00000000000034 745 520.0000000000055 0.85065080835208651
v -567.63932022500001 745 506.18033988749994 1
cstype rat bspline
deg 2
curv 0 55.357435889706267 6 7 8
parm u 0 0 0 55.357435889706267 55.357435889706267 55.357435889706267
end
usemtl Default
v -540 745 620
v -540 745 550.90169943749993
cstype bspline
deg 1
curv -69.098300562499986 -0 9 10
parm u -69.098300562499986 -69.098300562499986 -0 -0
end
usemtl Default
v -560 745 640 1
v -540 745 640 0.70710678118654757
v -540 745 620 1
cstype rat bspline
deg 2
curv 0 31.415926535897931 11 12 13
parm u 0 0 0 31.415926535897931 31.415926535897931 31.415926535897931
end
usemtl Default
v -2220 745 640
v -560 745 640
cstype bspline
deg 1
curv -1660 -0 14 15
parm u -1660 -1660 -0 -0
end
usemtl Default
v -2240 745 620 1
v -2240 745 640 0.70710678118654757
v -2220 745 640 1
cstype rat bspline
deg 2
curv 0 31.415926535897931 16 17 18
parm u 0 0 0 31.415926535897931 31.415926535897931 31.415926535897931
end
usemtl Default
v -2240 745 550.90169943749993
v -2240 745 620
cstype bspline
deg 1
curv -69.098300562499986 -0 19 20
parm u -69.098300562499986 -69.098300562499986 -0 -0
end
usemtl Default
v -2212.3606797749999 745 506.18033988749994 1
v -2240 745 520.0000000000053 0.8506508083520804
v -2240 745 550.9016994375 1
cstype rat bspline
deg 2
curv 0 55.357435889706395 21 22 23
parm u 0 0 0 55.357435889706395 55.357435889706395 55.357435889706395
end
usemtl Default
v -2212.3606797749999 745 506.18033988749994
v -1950.5572809 745 375.27864045000399
cstype bspline
deg 1
curv 0 292.70509831249416 24 25
parm u 0 0 292.70509831249416 292.70509831249416
end
usemtl Default
v -1928.1966011249999 745 370 1
v -1939.9999999999902 745 370.00000000000034 0.97324898946774419
v -1950.5572809 745 375.278640450004 1
cstype rat bspline
deg 2
curv 0 23.182380450042324 26 27 28
parm u 0 0 0 23.182380450042324 23.182380450042324 23.182380450042324
end
usemtl Default
v -851.80339887500008 745 370
v -1928.1966011249999 745 370
cstype bspline
deg 1
curv -1076.3932022500001 -0 29 30
parm u -1076.3932022500001 -1076.3932022500001 -0 -0
end
