# Rhino

mtllib 01打磨面2.mtl
usemtl Default
v -630 720 644
v -513.71429443359375 720 393.71429443359375
v -513.71429443359375 720 477.14285278320312
v -513.71429443359375 720 560.5714111328125
v -397.42855834960938 720 393.71429443359375
v -397.42855834960938 720 477.14285278320312
v -397.42855834960938 720 560.5714111328125
v -281.14285278320312 720 143.42857360839844
v -281.14285278320312 720 226.85714721679688
v -281.14285278320312 720 310.28570556640625
v -281.14285278320312 720 393.71429443359375
v -281.14285278320312 720 477.14285278320312
v -281.14285278320312 720 560.5714111328125
v -164.85714721679688 720 143.42857360839844
v -164.85714721679688 720 226.85714721679688
v -164.85714721679688 720 310.28570556640625
v -164.85714721679688 720 393.71429443359375
v -164.85714721679688 720 477.14285278320312
v -164.85714721679688 720 560.5714111328125
v -48.571430206298828 720 143.42857360839844
v -48.571430206298828 720 226.85714721679688
v -48.571430206298828 720 477.14285278320312
v -48.571430206298828 720 560.5714111328125
v 67.714286804199219 720 226.85714721679688
v 67.714286804199219 720 310.28570556640625
v 67.714286804199219 720 477.14285278320312
v 84 720 60
v 84 720 125
v 84 720 190
v 84.786651611328125 720 200.15968322753906
v 87.127853393554688 720 210.07719421386719
v 90.967803955078125 720 219.51609802246094
v 96.214958190917969 720 228.25140380859375
v 102.74423980712891 720 236.07485961914062
v 110.40000152587891 720 242.80000305175781
v 67.714286804199219 720 185.14285278320312
v 67.714286804199219 720 206
v 125.85713958740234 720 310.28570556640625
v 67.714286804199219 720 268.57144165039062
v 9.5714282989501953 720 226.85714721679688
v -48.571430206298828 720 185.14285278320312
v 9.5714282989501953 720 143.42857360839844
v 9.5714282989501953 720 185.14285278320312
v 96.785713195800781 720 268.57144165039062
v 67.714286804199219 720 247.71427917480469
v 96.785713195800781 720 247.71427917480469
v -48.571430206298828 720 268.57144165039062
v 9.5714282989501953 720 268.57144165039062
v 133.73995971679688 720 263.6290283203125
v 153.21418762207031 720 288.11077880859375
v 168.25978088378906 720 315.53762817382812
v 178.44186401367188 720 345.11679077148438
v 183.46611022949219 720 375.99331665039062
v 183.18730163574219 720 407.274658203125
v 177.61349487304688 720 438.05673217773438
v 166.90579223632812 720 467.44970703125
v 151.37371826171875 720 494.60400390625
v 131.46620178222656 720 518.7347412109375
v 107.75868988037109 720 539.14447021484375
v 80.936424255371094 720 555.2431640625
v 51.774703979492188 720 566.56549072265625
v 125.85713958740234 720 393.71429443359375
v 125.85713958740234 720 352
v 125.85713958740234 720 477.14285278320312
v 125.85713958740234 720 435.42855834960938
v 67.714286804199219 720 518.85711669921875
v 9.5714282989501953 720 560.5714111328125
v -11.349727630615234 720 585.07562255859375
v -74.474159240722656 720 603.58575439453125
v -137.59858703613281 720 622.09588623046875
v -200.7230224609375 720 640.60601806640625
v -212.41995239257812 720 643.14715576171875
v -224.35929870605469 720 644
v -164.85714721679688 720 602.28570556640625
v -281.14285278320312 720 602.28570556640625
v -223 720 560.5714111328125
v -223 720 602.28570556640625
v -164.85714721679688 720 623.14288330078125
v -223 720 623.14288330078125
v -193.92857360839844 720 602.28570556640625
v -193.92857360839844 720 623.14288330078125
v -106.71428680419922 720 560.5714111328125
v -106.71428680419922 720 602.28570556640625
v -281.14285278320312 720 623.14288330078125
v -252.07142639160156 720 602.28570556640625
v -252.07142639160156 720 623.14288330078125
v -397.42855834960938 720 602.28570556640625
v -339.28570556640625 720 560.5714111328125
v -339.28570556640625 720 602.28570556640625
v -305.48745727539062 720 644
v -386.61557006835938 720 644
v -467.74371337890625 720 644
v -548.87188720703125 720 644
v -630 720 559.33331298828125
v -630 720 474.66665649414062
v -630 720 390
v -629.63067626953125 720 385.30697631835938
v -628.53167724609375 720 380.7294921875
v -626.730224609375 720 376.38027954101562
v -624.2705078125 720 372.366455078125
v -621.21319580078125 720 368.78680419921875
v -617.633544921875 720 365.7294921875
v -613.61968994140625 720 363.26980590820312
v -609.2705078125 720 361.46829223632812
v -604.69305419921875 720 360.36935424804688
v -600 720 360
v -571.85711669921875 720 393.71429443359375
v -571.85711669921875 720 372.85714721679688
v -600.9285888671875 720 393.71429443359375
v -600.9285888671875 720 372.85714721679688
v -513.71429443359375 720 435.42855834960938
v -571.85711669921875 720 477.14285278320312
v -571.85711669921875 720 435.42855834960938
v -600.9285888671875 720 383.28570556640625
v -615.46429443359375 720 393.71429443359375
v -615.46429443359375 720 372.85714721679688
v -615.46429443359375 720 383.28570556640625
v -571.85711669921875 720 414.57144165039062
v -600.9285888671875 720 435.42855834960938
v -600.9285888671875 720 414.57144165039062
v -571.85711669921875 720 362.42855834960938
v -586.39288330078125 720 372.85714721679688
v -586.39288330078125 720 362.42855834960938
v -513.71429443359375 720 372.85714721679688
v -542.78570556640625 720 393.71429443359375
v -542.78570556640625 720 372.85714721679688
v -455.57144165039062 720 393.71429443359375
v -535 720 360
v -470 720 360
v -405 720 360
v -400.30697631835938 720 359.63064575195312
v -395.7294921875 720 358.53170776367188
v -391.38027954101562 720 356.73019409179688
v -387.366455078125 720 354.2705078125
v -383.78680419921875 720 351.21319580078125
v -380.7294921875 720 347.633544921875
v -378.26980590820312 720 343.61972045898438
v -376.46829223632812 720 339.2705078125
v -375.36935424804688 720 334.69302368164062
v -375 720 330
v -397.42855834960938 720 372.85714721679688
v -426.5 720 393.71429443359375
v -455.57144165039062 720 372.85714721679688
v -426.5 720 372.85714721679688
v -281.14285278320312 720 352
v -339.28570556640625 720 393.71429443359375
v -339.28570556640625 720 310.28570556640625
v -339.28570556640625 720 352
v -397.42855834960938 720 435.42855834960938
v -455.57144165039062 720 477.14285278320312
v -455.57144165039062 720 435.42855834960938
v -397.42855834960938 720 362.42855834960938
v -411.96429443359375 720 372.85714721679688
v -426.5 720 362.42855834960938
v -411.96429443359375 720 362.42855834960938
v -339.28570556640625 720 372.85714721679688
v -368.35714721679688 720 393.71429443359375
v -368.35714721679688 720 352
v -368.35714721679688 720 372.85714721679688
v -281.14285278320312 720 435.42855834960938
v -339.28570556640625 720 477.14285278320312
v -339.28570556640625 720 435.42855834960938
v -368.35714721679688 720 362.42855834960938
v -382.89285278320312 720 372.85714721679688
v -382.89285278320312 720 362.42855834960938
v -339.28570556640625 720 331.14285278320312
v -368.35714721679688 720 310.28570556640625
v -368.35714721679688 720 331.14285278320312
v -281.14285278320312 720 268.57144165039062
v -339.28570556640625 720 226.85714721679688
v -339.28570556640625 720 268.57144165039062
v -368.35714721679688 720 341.57144165039062
v -368.35714721679688 720 320.71429443359375
v -339.28570556640625 720 289.42855834960938
v -368.35714721679688 720 289.42855834960938
v -375 720 262.5
v -375 720 195
v -375 720 127.5
v -375 720 60
v -298.5 720 60
v -222 720 60
v -145.5 720 60
v -69 720 60
v 7.5 720 60
v -90 720 390
v -88.772514343261719 720 404.81350708007812
v -85.123550415039062 720 419.22296142578125
v -79.152641296386719 720 432.83526611328125
v -71.02264404296875 720 445.27914428710938
v -60.955341339111328 720 456.21514892578125
v -49.225334167480469 720 465.344970703125
v -36.152587890625 720 472.41958618164062
v -22.093694686889648 720 477.24603271484375
v -7.4321413040161133 720 479.69259643554688
v 7.4321413040161133 720 479.69259643554688
v 22.093694686889648 720 477.24603271484375
v 36.152587890625 720 472.41958618164062
v 49.225334167480469 720 465.344970703125
v 60.955341339111328 720 456.21514892578125
v 71.02264404296875 720 445.27914428710938
v 79.152641296386719 720 432.83526611328125
v 85.123550415039062 720 419.22296142578125
v 88.772514343261719 720 404.81350708007812
v 90 720 390
v -106.71428680419922 720 393.71429443359375
v -164.85714721679688 720 352
v -106.71428680419922 720 310.28570556640625
v -106.71428680419922 720 352
v -106.71428680419922 720 372.85714721679688
v -106.71428680419922 720 477.14285278320312
v -164.85714721679688 720 435.42855834960938
v -106.71428680419922 720 435.42855834960938
v -106.71428680419922 720 414.57144165039062
v -77.642860412597656 720 477.14285278320312
v -106.71428680419922 720 456.28570556640625
v -77.642860412597656 720 456.28570556640625
v -48.571430206298828 720 518.85711669921875
v -164.85714721679688 720 518.85711669921875
v -106.71428680419922 720 518.85711669921875
v 9.5714282989501953 720 518.85711669921875
v 9.5714282989501953 720 498
v -19.5 720 518.85711669921875
v -48.571430206298828 720 498
v -19.5 720 498
v 67.714286804199219 720 498
v 38.642856597900391 720 518.85711669921875
v 38.642856597900391 720 498
v 125.85713958740234 720 456.28570556640625
v 96.785713195800781 720 477.14285278320312
v 96.785713195800781 720 435.42855834960938
v 96.785713195800781 720 456.28570556640625
v 125.85713958740234 720 414.57144165039062
v 96.785713195800781 720 414.57144165039062
v 125.85713958740234 720 372.85714721679688
v 96.785713195800781 720 352
v 96.785713195800781 720 372.85714721679688
v 88.772514343261719 720 375.18649291992188
v 85.123550415039062 720 360.77703857421875
v 79.152641296386719 720 347.16473388671875
v 71.02264404296875 720 334.72085571289062
v 60.955341339111328 720 323.78485107421875
v 49.225334167480469 720 314.655029296875
v 36.152587890625 720 307.58041381835938
v 22.093694686889648 720 302.75396728515625
v 7.4321413040161133 720 300.30740356445312
v -7.4321413040161133 720 300.30740356445312
v -22.093694686889648 720 302.75396728515625
v -36.152587890625 720 307.58041381835938
v -49.225334167480469 720 314.655029296875
v -60.955341339111328 720 323.78485107421875
v -71.02264404296875 720 334.72085571289062
v -79.152641296386719 720 347.16473388671875
v -85.123550415039062 720 360.77703857421875
v -88.772514343261719 720 375.18649291992188
v 125.85713958740234 720 331.14285278320312
v 96.785713195800781 720 310.28570556640625
v 96.785713195800781 720 331.14285278320312
v 67.714286804199219 720 289.42855834960938
v 9.5714282989501953 720 289.42855834960938
v 38.642856597900391 720 268.57144165039062
v 38.642856597900391 720 289.42855834960938
v -48.571430206298828 720 289.42855834960938
v -19.5 720 268.57144165039062
v -19.5 720 289.42855834960938
v -164.85714721679688 720 268.57144165039062
v -106.71428680419922 720 226.85714721679688
v -106.71428680419922 720 268.57144165039062
v -106.71428680419922 720 331.14285278320312
v -77.642860412597656 720 310.28570556640625
vt 0 1
vt 0.14295090734958649 0.57142859697341919
vt 0.14295090734958649 0.71428573131561279
vt 0.14295090734958649 0.8571428656578064
vt 0.28590181469917297 0.57142859697341919
vt 0.28590181469917297 0.71428573131561279
vt 0.28590181469917297 0.8571428656578064
vt 0.42885270714759827 0.1428571492433548
vt 0.42885270714759827 0.28571429848670959
vt 0.42885270714759827 0.4285714328289032
vt 0.42885270714759827 0.57142859697341919
vt 0.42885270714759827 0.71428573131561279
vt 0.42885270714759827 0.8571428656578064
vt 0.57180362939834595 0.1428571492433548
vt 0.57180362939834595 0.28571429848670959
vt 0.57180362939834595 0.4285714328289032
vt 0.57180362939834595 0.57142859697341919
vt 0.57180362939834595 0.71428573131561279
vt 0.57180362939834595 0.8571428656578064
vt 0.71475452184677124 0.1428571492433548
vt 0.71475452184677124 0.28571429848670959
vt 0.71475452184677124 0.71428573131561279
vt 0.71475452184677124 0.8571428656578064
vt 0.85770541429519653 0.28571429848670959
vt 0.85770541429519653 0.4285714328289032
vt 0.85770541429519653 0.71428573131561279
vt 0.87772554159164429 0
vt 0.87772554159164429 0.11130136996507645
vt 0.87772554159164429 0.22260273993015289
vt 0.878692626953125 0.23999947309494019
vt 0.88157063722610474 0.2569814920425415
vt 0.88629114627838135 0.27314400672912598
vt 0.89274150133132935 0.28810170292854309
vt 0.900767982006073 0.30149805545806885
vt 0.9101792573928833 0.3130137026309967
vt 0.85770541429519653 0.2142857164144516
vt 0.85770541429519653 0.25
vt 0.92918086051940918 0.4285714328289032
vt 0.85770541429519653 0.3571428656578064
vt 0.78622996807098389 0.28571429848670959
vt 0.71475452184677124 0.2142857164144516
vt 0.78622996807098389 0.1428571492433548
vt 0.78622996807098389 0.2142857164144516
vt 0.89344316720962524 0.3571428656578064
vt 0.85770541429519653 0.3214285671710968
vt 0.89344316720962524 0.3214285671710968
vt 0.71475452184677124 0.3571428656578064
vt 0.78622996807098389 0.3571428656578064
vt 0.93887126445770264 0.34867984056472778
vt 0.96281111240386963 0.39060065150260925
vt 0.98130673170089722 0.4375644326210022
vt 0.99382364749908447 0.48821368813514709
vt 1 0.5410844087600708
vt 0.9996572732925415 0.59464842081069946
vt 0.9928053617477417 0.64735740423202515
vt 0.97964227199554443 0.69768786430358887
vt 0.96054857969284058 0.74418497085571289
vt 0.93607610464096069 0.78550469875335693
vt 0.9069322943687439 0.82045280933380127
vt 0.87395948171615601 0.8480190634727478
vt 0.83811074495315552 0.86740672588348389
vt 0.92918086051940918 0.57142859697341919
vt 0.92918086051940918 0.5
vt 0.92918086051940918 0.71428573131561279
vt 0.92918086051940918 0.6428571343421936
vt 0.85770541429519653 0.78571426868438721
vt 0.78622996807098389 0.8571428656578064
vt 0.76051145792007446 0.89910209178924561
vt 0.68291211128234863 0.9307975172996521
vt 0.6053127646446228 0.96249294281005859
vt 0.52771341800689697 0.99418836832046509
vt 0.51333427429199219 0.99853968620300293
vt 0.49865716695785522 1
vt 0.57180362939834595 0.92857140302658081
vt 0.42885270714759827 0.92857140302658081
vt 0.5003281831741333 0.8571428656578064
vt 0.5003281831741333 0.92857140302658081
vt 0.57180362939834595 0.96428573131561279
vt 0.5003281831741333 0.96428573131561279
vt 0.53606587648391724 0.92857140302658081
vt 0.53606587648391724 0.96428573131561279
vt 0.64327907562255859 0.8571428656578064
vt 0.64327907562255859 0.92857140302658081
vt 0.42885270714759827 0.96428573131561279
vt 0.46459043025970459 0.92857140302658081
vt 0.46459043025970459 0.96428573131561279
vt 0.28590181469917297 0.92857140302658081
vt 0.35737726092338562 0.8571428656578064
vt 0.35737726092338562 0.92857140302658081
vt 0.39892572164535522 1
vt 0.29919430613517761 1
vt 0.19946286082267761 1
vt 0.099731430411338806 1
vt 0 0.8550228476524353
vt 0 0.71004563570022583
vt 0 0.56506848335266113
vt 0.00045404446427710354 0.55703246593475342
vt 0.0018049977952614427 0.5491943359375
vt 0.0040195947512984276 0.54174703359603882
vt 0.0070433053188025951 0.53487402200698853
vt 0.010801674798130989 0.52874451875686646
vt 0.01520216092467308 0.52350938320159912
vt 0.020136406645178795 0.51929759979248047
vt 0.025482917204499245 0.5162128210067749
vt 0.031110042706131935 0.51433110237121582
vt 0.036879226565361023 0.51369863748550415
vt 0.071475453674793243 0.57142859697341919
vt 0.071475453674793243 0.53571426868438721
vt 0.035737726837396622 0.57142859697341919
vt 0.035737726837396622 0.53571426868438721
vt 0.14295090734958649 0.6428571343421936
vt 0.071475453674793243 0.71428573131561279
vt 0.071475453674793243 0.6428571343421936
vt 0.035737726837396622 0.55357140302658081
vt 0.017868863418698311 0.57142859697341919
vt 0.017868863418698311 0.53571426868438721
vt 0.017868863418698311 0.55357140302658081
vt 0.071475453674793243 0.6071428656578064
vt 0.035737726837396622 0.6428571343421936
vt 0.035737726837396622 0.6071428656578064
vt 0.071475453674793243 0.5178571343421936
vt 0.053606588393449783 0.53571426868438721
vt 0.053606588393449783 0.5178571343421936
vt 0.14295090734958649 0.53571426868438721
vt 0.10721317678689957 0.57142859697341919
vt 0.10721317678689957 0.53571426868438721
vt 0.21442635357379913 0.57142859697341919
vt 0.11678421497344971 0.51369863748550415
vt 0.19668920338153839 0.51369863748550415
vt 0.27659419178962708 0.51369863748550415
vt 0.28236338496208191 0.51306617259979248
vt 0.2879905104637146 0.51118439435958862
vt 0.29333701729774475 0.50809967517852783
vt 0.29827126860618591 0.5038878321647644
vt 0.30267173051834106 0.49865275621414185
vt 0.30643010139465332 0.49252322316169739
vt 0.3094538152217865 0.48565021157264709
vt 0.31166842579841614 0.4782029390335083
vt 0.31301936507225037 0.4703647792339325
vt 0.3134734034538269 0.46232876181602478
vt 0.28590181469917297 0.53571426868438721
vt 0.25016409158706665 0.57142859697341919
vt 0.21442635357379913 0.53571426868438721
vt 0.25016409158706665 0.53571426868438721
vt 0.42885270714759827 0.5
vt 0.35737726092338562 0.57142859697341919
vt 0.35737726092338562 0.4285714328289032
vt 0.35737726092338562 0.5
vt 0.28590181469917297 0.6428571343421936
vt 0.21442635357379913 0.71428573131561279
vt 0.21442635357379913 0.6428571343421936
vt 0.28590181469917297 0.5178571343421936
vt 0.26803293824195862 0.53571426868438721
vt 0.25016409158706665 0.5178571343421936
vt 0.26803293824195862 0.5178571343421936
vt 0.35737726092338562 0.53571426868438721
vt 0.3216395378112793 0.57142859697341919
vt 0.3216395378112793 0.5
vt 0.3216395378112793 0.53571426868438721
vt 0.42885270714759827 0.6428571343421936
vt 0.35737726092338562 0.71428573131561279
vt 0.35737726092338562 0.6428571343421936
vt 0.3216395378112793 0.5178571343421936
vt 0.30377066135406494 0.53571426868438721
vt 0.30377066135406494 0.5178571343421936
vt 0.35737726092338562 0.46428570151329041
vt 0.3216395378112793 0.4285714328289032
vt 0.3216395378112793 0.46428570151329041
vt 0.42885270714759827 0.3571428656578064
vt 0.35737726092338562 0.28571429848670959
vt 0.35737726092338562 0.3571428656578064
vt 0.3216395378112793 0.4821428656578064
vt 0.3216395378112793 0.4464285671710968
vt 0.35737726092338562 0.3928571343421936
vt 0.3216395378112793 0.3928571343421936
vt 0.3134734034538269 0.34674656391143799
vt 0.3134734034538269 0.23116438090801239
vt 0.3134734034538269 0.1155821904540062
vt 0.3134734034538269 0
vt 0.40751543641090393 0
vt 0.50155746936798096 0
vt 0.5955994725227356 0
vt 0.68964153528213501 0
vt 0.78368353843688965 0
vt 0.66382604837417603 0.56506848335266113
vt 0.66533499956130981 0.59043407440185547
vt 0.66982072591781616 0.61510777473449707
vt 0.67716079950332642 0.63841652870178223
vt 0.68715506792068481 0.65972453355789185
vt 0.69953089952468872 0.67845058441162109
vt 0.71395063400268555 0.69408386945724487
vt 0.73002105951309204 0.70619791746139526
vt 0.74730378389358521 0.71446239948272705
vt 0.7653273344039917 0.71865171194076538
vt 0.78360015153884888 0.71865171194076538
vt 0.80162370204925537 0.71446239948272705
vt 0.81890636682510376 0.70619791746139526
vt 0.83497679233551025 0.69408386945724487
vt 0.84939658641815186 0.67845058441162109
vt 0.86177241802215576 0.65972453355789185
vt 0.87176668643951416 0.63841652870178223
vt 0.87910676002502441 0.61510777473449707
vt 0.88359248638153076 0.59043407440185547
vt 0.88510143756866455 0.56506848335266113
vt 0.64327907562255859 0.57142859697341919
vt 0.57180362939834595 0.5
vt 0.64327907562255859 0.4285714328289032
vt 0.64327907562255859 0.5
vt 0.64327907562255859 0.53571426868438721
vt 0.64327907562255859 0.71428573131561279
vt 0.57180362939834595 0.6428571343421936
vt 0.64327907562255859 0.6428571343421936
vt 0.64327907562255859 0.6071428656578064
vt 0.67901676893234253 0.71428573131561279
vt 0.64327907562255859 0.67857140302658081
vt 0.67901676893234253 0.67857140302658081
vt 0.71475452184677124 0.78571426868438721
vt 0.57180362939834595 0.78571426868438721
vt 0.64327907562255859 0.78571426868438721
vt 0.78622996807098389 0.78571426868438721
vt 0.78622996807098389 0.75
vt 0.75049221515655518 0.78571426868438721
vt 0.71475452184677124 0.75
vt 0.75049221515655518 0.75
vt 0.85770541429519653 0.75
vt 0.82196766138076782 0.78571426868438721
vt 0.82196766138076782 0.75
vt 0.92918086051940918 0.67857140302658081
vt 0.89344316720962524 0.71428573131561279
vt 0.89344316720962524 0.6428571343421936
vt 0.89344316720962524 0.67857140302658081
vt 0.92918086051940918 0.6071428656578064
vt 0.89344316720962524 0.6071428656578064
vt 0.92918086051940918 0.53571426868438721
vt 0.89344316720962524 0.5
vt 0.89344316720962524 0.53571426868438721
vt 0.88359248638153076 0.5397028923034668
vt 0.87910676002502441 0.5150291919708252
vt 0.87176668643951416 0.49172043800354004
vt 0.86177241802215576 0.47041243314743042
vt 0.84939658641815186 0.45168638229370117
vt 0.83497679233551025 0.43605309724807739
vt 0.81890636682510376 0.423939049243927
vt 0.80162370204925537 0.41567462682723999
vt 0.78360015153884888 0.41148525476455688
vt 0.7653273344039917 0.41148525476455688
vt 0.74730378389358521 0.41567462682723999
vt 0.73002105951309204 0.423939049243927
vt 0.71395063400268555 0.43605309724807739
vt 0.69953089952468872 0.45168638229370117
vt 0.68715506792068481 0.47041243314743042
vt 0.67716079950332642 0.49172043800354004
vt 0.66982072591781616 0.5150291919708252
vt 0.66533499956130981 0.5397028923034668
vt 0.92918086051940918 0.46428570151329041
vt 0.89344316720962524 0.4285714328289032
vt 0.89344316720962524 0.46428570151329041
vt 0.85770541429519653 0.3928571343421936
vt 0.78622996807098389 0.3928571343421936
vt 0.82196766138076782 0.3571428656578064
vt 0.82196766138076782 0.3928571343421936
vt 0.71475452184677124 0.3928571343421936
vt 0.75049221515655518 0.3571428656578064
vt 0.75049221515655518 0.3928571343421936
vt 0.57180362939834595 0.3571428656578064
vt 0.64327907562255859 0.28571429848670959
vt 0.64327907562255859 0.3571428656578064
vt 0.64327907562255859 0.46428570151329041
vt 0.67901676893234253 0.4285714328289032
vn 0 1 0
vn 0 1 0
vn 0 1 0
vn 0 1 0
vn 0 1 0
vn 0 1 0
vn 0 1 0
vn 0 1 0
vn 0 1 0
vn 0 1 0
vn 0 1 0
vn 0 1 0
vn 0 1 0
vn 0 1 0
vn 0 1 0
vn 0 1 0
vn 0 1 0
vn 0 1 0
vn 0 1 0
vn 0 1 0
vn 0 1 0
vn 0 1 0
vn 0 1 0
vn 0 1 0
vn 0 1 0
vn 0 1 0
vn 0 1 0
vn 0 1 0
vn 0 1 0
vn 0 1 0
vn 0 1 0
vn 0 1 0
vn 0 1 0
vn 0 1 0
vn 0 1 0
vn 0 1 0
vn 0 1 0
vn 0 1 0
vn 0 1 0
vn 0 1 0
vn 0 1 0
vn 0 1 0
vn 0 1 0
vn 0 1 0
vn 0 1 0
vn 0 1 0
vn 0 1 0
vn 0 1 0
vn 0 1 0
vn 0 1 0
vn 0 1 0
vn 0 1 0
vn 0 1 0
vn 0 1 0
vn 0 1 0
vn 0 1 0
vn 0 1 0
vn 0 1 0
vn 0 1 0
vn 0 1 0
vn 0 1 0
vn 0 1 0
vn 0 1 0
vn 0 1 0
vn 0 1 0
vn 0 1 0
vn 0 1 0
vn 0 1 0
vn 0 1 0
vn 0 1 0
vn 0 1 0
vn 0 1 0
vn 0 1 0
vn 0 1 0
vn 0 1 0
vn 0 1 0
vn 0 1 0
vn 0 1 0
vn 0 1 0
vn 0 1 0
vn 0 1 0
vn 0 1 0
vn 0 1 0
vn 0 1 0
vn 0 1 0
vn 0 1 0
vn 0 1 0
vn 0 1 0
vn 0 1 0
vn 0 1 0
vn 0 1 0
vn 0 1 0
vn 0 1 0
vn 0 1 0
vn 0 1 0
vn 0 1 0
vn 0 1 0
vn 0 1 0
vn 0 1 0
vn 0 1 0
vn 0 1 0
vn 0 1 0
vn 0 1 0
vn 0 1 0
vn 0 1 0
vn 0 1 0
vn 0 1 0
vn 0 1 0
vn 0 1 0
vn 0 1 0
vn 0 1 0
vn 0 1 0
vn 0 1 0
vn 0 1 0
vn 0 1 0
vn 0 1 0
vn 0 1 0
vn 0 1 0
vn 0 1 0
vn 0 1 0
vn 0 1 0
vn 0 1 0
vn 0 1 0
vn 0 1 0
vn 0 1 0
vn 0 1 0
vn 0 1 0
vn 0 1 0
vn 0 1 0
vn 0 1 0
vn 0 1 0
vn 0 1 0
vn 0 1 0
vn 0 1 0
vn 0 1 0
vn 0 1 0
vn 0 1 0
vn 0 1 0
vn 0 1 0
vn 0 1 0
vn 0 1 0
vn 0 1 0
vn 0 1 0
vn 0 1 0
vn 0 1 0
vn 0 1 0
vn 0 1 0
vn 0 1 0
vn 0 1 0
vn 0 1 0
vn 0 1 0
vn 0 1 0
vn 0 1 0
vn 0 1 0
vn 0 1 0
vn 0 1 0
vn 0 1 0
vn 0 1 0
vn 0 1 0
vn 0 1 0
vn 0 1 0
vn 0 1 0
vn 0 1 0
vn 0 1 0
vn 0 1 0
vn 0 1 0
vn 0 1 0
vn 0 1 0
vn 0 1 0
vn 0 1 0
vn 0 1 0
vn 0 1 0
vn 0 1 0
vn 0 1 0
vn 0 1 0
vn 0 1 0
vn 0 1 0
vn 0 1 0
vn 0 1 0
vn 0 1 0
vn 0 1 0
vn 0 1 0
vn 0 1 0
vn 0 1 0
vn 0 1 0
vn 0 1 0
vn 0 1 0
vn 0 1 0
vn 0 1 0
vn 0 1 0
vn 0 1 0
vn 0 1 0
vn 0 1 0
vn 0 1 0
vn 0 1 0
vn 0 1 0
vn 0 1 0
vn 0 1 0
vn 0 1 0
vn 0 1 0
vn 0 1 0
vn 0 1 0
vn 0 1 0
vn 0 1 0
vn 0 1 0
vn 0 1 0
vn 0 1 0
vn 0 1 0
vn 0 1 0
vn 0 1 0
vn 0 1 0
vn 0 1 0
vn 0 1 0
vn 0 1 0
vn 0 1 0
vn 0 1 0
vn 0 1 0
vn 0 1 0
vn 0 1 0
vn 0 1 0
vn 0 1 0
vn 0 1 0
vn 0 1 0
vn 0 1 0
vn 0 1 0
vn 0 1 0
vn 0 1 0
vn 0 1 0
vn 0 1 0
vn 0 1 0
vn 0 1 0
vn 0 1 0
vn 0 1 0
vn 0 1 0
vn 0 1 0
vn 0 1 0
vn 0 1 0
vn 0 1 0
vn 0 1 0
vn 0 1 0
vn 0 1 0
vn 0 1 0
vn 0 1 0
vn 0 1 0
vn 0 1 0
vn 0 1 0
vn 0 1 0
vn 0 1 0
vn 0 1 0
vn 0 1 0
vn 0 1 0
vn 0 1 0
vn 0 1 0
vn 0 1 0
vn 0 1 0
vn 0 1 0
vn 0 1 0
vn 0 1 0
vn 0 1 0
vn 0 1 0
vn 0 1 0
vn 0 1 0
vn 0 1 0
vn 0 1 0
vn 0 1 0
vn 0 1 0
vn 0 1 0
vn 0 1 0
vn 0 1 0
f 2/2/2 124/124/124 126/126/126 125/125/125
f 125/125/125 126/126/126 108/108/108 107/107/107
f 114/114/114 122/122/122 110/110/110
f 122/122/122 107/107/107 108/108/108
f 107/107/107 114/114/114 109/109/109
f 114/114/114 107/107/107 122/122/122
f 109/109/109 114/114/114 117/117/117 115/115/115
f 114/114/114 110/110/110 116/116/116 117/117/117
f 108/108/108 121/121/121 123/123/123 122/122/122
f 123/123/123 110/110/110 122/122/122
f 3/3/3 111/111/111 113/113/113 112/112/112
f 113/113/113 118/118/118 120/120/120 119/119/119
f 118/118/118 107/107/107 109/109/109 120/120/120
f 118/118/118 125/125/125 107/107/107
f 125/125/125 111/111/111 2/2/2
f 111/111/111 118/118/118 113/113/113
f 118/118/118 111/111/111 125/125/125
f 153/153/153 5/5/5 141/141/141
f 142/142/142 153/153/153 144/144/144
f 5/5/5 153/153/153 142/142/142
f 142/142/142 144/144/144 143/143/143 127/127/127
f 153/153/153 155/155/155 154/154/154 144/144/144
f 6/6/6 149/149/149 151/151/151 150/150/150
f 150/150/150 151/151/151 111/111/111 3/3/3
f 151/151/151 127/127/127 2/2/2 111/111/111
f 142/142/142 149/149/149 5/5/5
f 151/151/151 142/142/142 127/127/127
f 149/149/149 142/142/142 151/151/151
f 150/150/150 7/7/7 6/6/6
f 4/4/4 150/150/150 3/3/3
f 7/7/7 150/150/150 4/4/4
f 174/174/174 169/169/169 171/171/171
f 10/10/10 174/174/174 147/147/147
f 169/169/169 174/174/174 10/10/10
f 147/147/147 174/174/174 175/175/175 167/167/167
f 171/171/171 175/175/175 174/174/174
f 169/169/169 9/9/9 170/170/170 171/171/171
f 156/156/156 145/145/145 148/148/148
f 11/11/11 156/156/156 146/146/146
f 145/145/145 156/156/156 11/11/11
f 146/146/146 156/156/156 159/159/159 157/157/157
f 164/164/164 157/157/157 159/159/159
f 5/5/5 164/164/164 141/141/141
f 157/157/157 164/164/164 5/5/5
f 159/159/159 163/163/163 165/165/165 164/164/164
f 164/164/164 165/165/165 152/152/152 141/141/141
f 158/158/158 165/165/165 163/163/163
f 163/163/163 148/148/148 158/158/158
f 156/156/156 163/163/163 159/159/159
f 148/148/148 163/163/163 156/156/156
f 172/172/172 166/166/166 168/168/168
f 148/148/148 172/172/172 158/158/158
f 166/166/166 172/172/172 148/148/148
f 173/173/173 147/147/147 167/167/167
f 166/166/166 173/173/173 168/168/168
f 147/147/147 173/173/173 166/166/166
f 166/166/166 10/10/10 147/147/147
f 145/145/145 166/166/166 148/148/148
f 10/10/10 166/166/166 145/145/145
f 12/12/12 160/160/160 162/162/162 161/161/161
f 161/161/161 162/162/162 149/149/149 6/6/6
f 157/157/157 162/162/162 146/146/146
f 149/149/149 157/157/157 5/5/5
f 162/162/162 157/157/157 149/149/149
f 160/160/160 11/11/11 146/146/146 162/162/162
f 88/88/88 161/161/161 6/6/6 7/7/7
f 161/161/161 88/88/88 13/13/13 12/12/12
f 89/89/89 88/88/88 7/7/7 87/87/87
f 75/75/75 13/13/13 88/88/88 89/89/89
f 15/15/15 14/14/14 8/8/8 9/9/9
f 265/265/265 169/169/169 10/10/10 16/16/16
f 169/169/169 265/265/265 15/15/15 9/9/9
f 206/206/206 145/145/145 11/11/11 17/17/17
f 145/145/145 206/206/206 16/16/16 10/10/10
f 211/211/211 160/160/160 12/12/12 18/18/18
f 160/160/160 211/211/211 17/17/17 11/11/11
f 218/218/218 76/76/76 19/19/19
f 76/76/76 12/12/12 13/13/13
f 12/12/12 218/218/218 18/18/18
f 218/218/218 12/12/12 76/76/76
f 81/81/81 80/80/80 77/77/77 79/79/79
f 78/78/78 74/74/74 80/80/80 81/81/81
f 86/86/86 85/85/85 75/75/75 84/84/84
f 79/79/79 77/77/77 85/85/85 86/86/86
f 85/85/85 13/13/13 75/75/75
f 76/76/76 85/85/85 77/77/77
f 13/13/13 85/85/85 76/76/76
f 80/80/80 76/76/76 77/77/77
f 19/19/19 80/80/80 74/74/74
f 76/76/76 80/80/80 19/19/19
f 41/41/41 266/266/266 21/21/21
f 266/266/266 14/14/14 15/15/15
f 14/14/14 41/41/41 20/20/20
f 41/41/41 14/14/14 266/266/266
f 207/207/207 267/267/267 265/265/265 16/16/16
f 267/267/267 266/266/266 15/15/15 265/265/265
f 47/47/47 21/21/21 266/266/266 267/267/267
f 209/209/209 17/17/17 205/205/205
f 206/206/206 209/209/209 208/208/208
f 17/17/17 209/209/209 206/206/206
f 268/268/268 206/206/206 208/208/208
f 16/16/16 268/268/268 207/207/207
f 206/206/206 268/268/268 16/16/16
f 268/268/268 269/269/269 207/207/207
f 214/214/214 216/216/216 215/215/215 210/210/210
f 215/215/215 18/18/18 210/210/210
f 211/211/211 215/215/215 212/212/212
f 18/18/18 215/215/215 211/211/211
f 213/213/213 211/211/211 212/212/212
f 17/17/17 213/213/213 205/205/205
f 211/211/211 213/213/213 17/17/17
f 23/23/23 217/217/217 219/219/219 82/82/82
f 82/82/82 219/219/219 218/218/218 19/19/19
f 219/219/219 210/210/210 18/18/18 218/218/218
f 214/214/214 223/223/223 22/22/22
f 223/223/223 219/219/219 217/217/217
f 219/219/219 214/214/214 210/210/210
f 214/214/214 219/219/219 223/223/223
f 83/83/83 82/82/82 19/19/19 74/74/74
f 37/37/37 40/40/40 24/24/24
f 43/43/43 37/37/37 36/36/36
f 40/40/40 37/37/37 43/43/43
f 40/40/40 43/43/43 41/41/41 21/21/21
f 43/43/43 42/42/42 20/20/20 41/41/41
f 36/36/36 42/42/42 43/43/43
f 261/261/261 260/260/260 48/48/48 259/259/259
f 258/258/258 39/39/39 260/260/260 261/261/261
f 264/264/264 263/263/263 47/47/47 262/262/262
f 259/259/259 48/48/48 263/263/263 264/264/264
f 263/263/263 21/21/21 47/47/47
f 40/40/40 263/263/263 48/48/48
f 21/21/21 263/263/263 40/40/40
f 45/45/45 260/260/260 39/39/39
f 260/260/260 40/40/40 48/48/48
f 40/40/40 45/45/45 24/24/24
f 45/45/45 40/40/40 260/260/260
f 222/222/222 67/67/67 220/220/220
f 23/23/23 222/222/222 217/217/217
f 67/67/67 222/222/222 23/23/23
f 220/220/220 221/221/221 224/224/224 222/222/222
f 222/222/222 224/224/224 223/223/223 217/217/217
f 66/66/66 225/225/225 227/227/227 226/226/226
f 226/226/226 227/227/227 221/221/221 220/220/220
f 26/26/26 227/227/227 225/225/225
f 256/256/256 258/258/258 25/25/25
f 38/38/38 39/39/39 258/258/258 256/256/256
f 44/44/44 46/46/46 45/45/45 39/39/39
f 236/236/236 62/62/62 234/234/234
f 234/234/234 63/63/63 235/235/235 236/236/236
f 63/63/63 255/255/255 257/257/257 235/235/235
f 255/255/255 38/38/38 256/256/256 257/257/257
f 64/64/64 228/228/228 231/231/231 229/229/229
f 231/231/231 26/26/26 229/229/229
f 228/228/228 65/65/65 230/230/230 231/231/231
f 65/65/65 232/232/232 233/233/233 230/230/230
f 62/62/62 233/233/233 232/232/232
f 121/121/121 106/106/106 123/123/123
f 128/128/128 106/106/106 121/121/121
f 110/110/110 105/105/105 104/104/104
f 105/105/105 110/110/110 106/106/106
f 123/123/123 106/106/106 110/110/110
f 128/128/128 126/126/126 124/124/124
f 158/158/158 135/135/135 165/165/165
f 165/165/165 135/135/135 134/134/134
f 152/152/152 131/131/131 130/130/130
f 165/165/165 133/133/133 132/132/132
f 152/152/152 132/132/132 131/131/131
f 133/133/133 165/165/165 134/134/134
f 130/130/130 129/129/129 154/154/154
f 102/102/102 101/101/101 116/116/116
f 103/103/103 102/102/102 116/116/116
f 100/100/100 116/116/116 101/101/101
f 110/110/110 103/103/103 116/116/116
f 99/99/99 116/116/116 100/100/100
f 103/103/103 110/110/110 104/104/104
f 121/121/121 126/126/126 128/128/128
f 128/128/128 124/124/124 143/143/143 129/129/129
f 130/130/130 154/154/154 155/155/155
f 154/154/154 129/129/129 143/143/143
f 126/126/126 121/121/121 108/108/108
f 152/152/152 155/155/155 153/153/153 141/141/141
f 132/132/132 152/152/152 165/165/165
f 152/152/152 130/130/130 155/155/155
f 158/158/158 136/136/136 135/135/135
f 178/178/178 177/177/177 8/8/8
f 8/8/8 177/177/177 170/170/170
f 171/171/171 170/170/170 176/176/176
f 177/177/177 176/176/176 170/170/170
f 175/175/175 171/171/171 176/176/176
f 180/180/180 179/179/179 178/178/178
f 140/140/140 167/167/167 175/175/175 176/176/176
f 8/8/8 181/181/181 180/180/180
f 14/14/14 182/182/182 181/181/181
f 8/8/8 170/170/170 9/9/9
f 14/14/14 181/181/181 8/8/8
f 269/269/269 267/267/267 207/207/207
f 180/180/180 178/178/178 8/8/8
f 140/140/140 173/173/173 167/167/167
f 138/138/138 137/137/137 172/172/172
f 140/140/140 139/139/139 168/168/168
f 139/139/139 138/138/138 172/172/172
f 140/140/140 168/168/168 173/173/173
f 268/268/268 208/208/208 252/252/252
f 137/137/137 158/158/158 172/172/172
f 208/208/208 253/253/253 252/252/252
f 139/139/139 172/172/172 168/168/168
f 136/136/136 158/158/158 137/137/137
f 182/182/182 14/14/14 20/20/20 183/183/183
f 208/208/208 209/209/209 253/253/253
f 117/117/117 99/99/99 98/98/98
f 117/117/117 116/116/116 99/99/99
f 97/97/97 117/117/117 98/98/98
f 96/96/96 117/117/117 97/97/97
f 115/115/115 117/117/117 96/96/96
f 120/120/120 115/115/115 96/96/96
f 2/2/2 127/127/127 143/143/143 124/124/124
f 154/154/154 143/143/143 144/144/144
f 120/120/120 109/109/109 115/115/115
f 112/112/112 119/119/119 95/95/95
f 95/95/95 119/119/119 120/120/120 96/96/96
f 95/95/95 94/94/94 112/112/112
f 94/94/94 1/1/1 93/93/93
f 119/119/119 112/112/112 113/113/113
f 4/4/4 3/3/3 112/112/112
f 92/92/92 4/4/4 93/93/93
f 4/4/4 94/94/94 93/93/93
f 7/7/7 4/4/4 87/87/87
f 92/92/92 87/87/87 4/4/4
f 112/112/112 94/94/94 4/4/4
f 185/185/185 209/209/209 205/205/205
f 186/186/186 205/205/205 213/213/213
f 91/91/91 89/89/89 87/87/87
f 212/212/212 187/187/187 213/213/213
f 185/185/185 205/205/205 186/186/186
f 186/186/186 213/213/213 187/187/187
f 215/215/215 216/216/216 212/212/212
f 212/212/212 188/188/188 187/187/187
f 69/69/69 82/82/82 83/83/83
f 254/254/254 209/209/209 185/185/185
f 254/254/254 253/253/253 209/209/209
f 90/90/90 86/86/86 84/84/84
f 89/89/89 90/90/90 84/84/84
f 91/91/91 90/90/90 89/89/89
f 72/72/72 79/79/79 73/73/73
f 86/86/86 90/90/90 73/73/73
f 86/86/86 73/73/73 79/79/79
f 84/84/84 75/75/75 89/89/89
f 70/70/70 83/83/83 74/74/74
f 69/69/69 83/83/83 70/70/70
f 78/78/78 70/70/70 74/74/74
f 71/71/71 79/79/79 72/72/72
f 71/71/71 78/78/78 81/81/81
f 71/71/71 81/81/81 79/79/79
f 70/70/70 78/78/78 71/71/71
f 212/212/212 189/189/189 188/188/188
f 92/92/92 91/91/91 87/87/87
f 183/183/183 20/20/20 42/42/42 184/184/184
f 247/247/247 264/264/264 262/262/262
f 267/267/267 262/262/262 47/47/47
f 269/269/269 262/262/262 267/267/267
f 42/42/42 36/36/36 28/28/28
f 29/29/29 36/36/36 37/37/37
f 244/244/244 261/261/261 259/259/259
f 33/33/33 24/24/24 45/45/45
f 243/243/243 258/258/258 261/261/261
f 24/24/24 31/31/31 37/37/37
f 28/28/28 184/184/184 42/42/42
f 264/264/264 246/246/246 245/245/245 259/259/259
f 269/269/269 249/249/249 262/262/262
f 249/249/249 248/248/248 262/262/262
f 250/250/250 249/249/249 269/269/269
f 251/251/251 268/268/268 252/252/252
f 269/269/269 251/251/251 250/250/250
f 251/251/251 269/269/269 268/268/268
f 247/247/247 262/262/262 248/248/248
f 261/261/261 244/244/244 243/243/243
f 242/242/242 241/241/241 25/25/25
f 25/25/25 243/243/243 242/242/242
f 244/244/244 259/259/259 245/245/245
f 247/247/247 246/246/246 264/264/264
f 36/36/36 29/29/29 28/28/28
f 37/37/37 30/30/30 29/29/29
f 24/24/24 32/32/32 31/31/31
f 31/31/31 30/30/30 37/37/37
f 24/24/24 33/33/33 32/32/32
f 27/27/27 184/184/184 28/28/28
f 46/46/46 34/34/34 33/33/33
f 35/35/35 46/46/46 44/44/44
f 44/44/44 49/49/49 35/35/35
f 35/35/35 34/34/34 46/46/46
f 50/50/50 49/49/49 44/44/44
f 45/45/45 46/46/46 33/33/33
f 44/44/44 39/39/39 38/38/38
f 257/257/257 256/256/256 25/25/25
f 243/243/243 25/25/25 258/258/258
f 257/257/257 240/240/240 239/239/239
f 257/257/257 239/239/239 235/235/235
f 238/238/238 235/235/235 239/239/239
f 240/240/240 257/257/257 241/241/241
f 25/25/25 241/241/241 257/257/257
f 51/51/51 50/50/50 38/38/38
f 255/255/255 51/51/51 38/38/38
f 255/255/255 63/63/63 52/52/52
f 52/52/52 51/51/51 255/255/255
f 236/236/236 235/235/235 238/238/238
f 44/44/44 38/38/38 50/50/50
f 52/52/52 63/63/63 234/234/234
f 190/190/190 189/189/189 216/216/216
f 189/189/189 212/212/212 216/216/216
f 214/214/214 190/190/190 216/216/216
f 22/22/22 191/191/191 214/214/214
f 190/190/190 214/214/214 191/191/191
f 192/192/192 191/191/191 22/22/22
f 26/26/26 199/199/199 198/198/198
f 227/227/227 197/197/197 196/196/196
f 198/198/198 197/197/197 26/26/26
f 26/26/26 197/197/197 227/227/227
f 26/26/26 231/231/231 199/199/199
f 22/22/22 193/193/193 192/192/192
f 193/193/193 22/22/22 223/223/223
f 223/223/223 224/224/224 193/193/193
f 194/194/194 193/193/193 224/224/224
f 68/68/68 23/23/23 69/69/69
f 69/69/69 23/23/23 82/82/82
f 23/23/23 68/68/68 67/67/67
f 221/221/221 195/195/195 194/194/194 224/224/224
f 195/195/195 221/221/221 196/196/196
f 227/227/227 196/196/196 221/221/221
f 226/226/226 220/220/220 67/67/67
f 67/67/67 61/61/61 226/226/226
f 68/68/68 61/61/61 67/67/67
f 61/61/61 60/60/60 226/226/226
f 204/204/204 236/236/236 237/237/237
f 238/238/238 237/237/237 236/236/236
f 62/62/62 204/204/204 203/203/203
f 233/233/233 203/203/203 202/202/202
f 230/230/230 202/202/202 201/201/201
f 62/62/62 236/236/236 204/204/204
f 62/62/62 53/53/53 234/234/234
f 52/52/52 234/234/234 53/53/53
f 54/54/54 53/53/53 62/62/62
f 203/203/203 233/233/233 62/62/62
f 202/202/202 230/230/230 233/233/233
f 232/232/232 54/54/54 62/62/62
f 54/54/54 232/232/232 55/55/55
f 200/200/200 230/230/230 201/201/201
f 231/231/231 230/230/230 200/200/200
f 229/229/229 225/225/225 58/58/58
f 26/26/26 225/225/225 229/229/229
f 58/58/58 66/66/66 59/59/59
f 66/66/66 60/60/60 59/59/59
f 225/225/225 66/66/66 58/58/58
f 226/226/226 60/60/60 66/66/66
f 231/231/231 200/200/200 199/199/199
f 228/228/228 55/55/55 65/65/65
f 232/232/232 65/65/65 55/55/55
f 56/56/56 55/55/55 228/228/228
f 229/229/229 58/58/58 64/64/64
f 57/57/57 64/64/64 58/58/58
f 64/64/64 57/57/57 56/56/56
f 56/56/56 228/228/228 64/64/64
