# Rhino

mtllib 01打磨面1.mtl
usemtl Default
v -1815 745 437.5
v -1815 745 505
v -1815 745 572.5
v -1390 745 437.5
v -1390 745 505
v -1390 745 572.5
v -1390 745 640
v -965 745 437.5
v -965 745 505
v -965 745 572.5
v -2240 745 550.90167236328125
v -2239.3759765625 745 543.02642822265625
v -2237.519287109375 745 535.34771728515625
v -2234.476318359375 745 528.057373046875
v -2230.322998046875 745 521.33721923828125
v -2225.1630859375 745 515.35516357421875
v -2219.12548828125 745 510.26046752929688
v -2212.360595703125 745 506.18032836914062
v -1815 745 538.75
v -2027.5 745 572.5
v -2027.5 745 505
v -2027.5 745 538.75
v -2027.5 745 555.625
v -2133.75 745 572.5
v -2133.75 745 538.75
v -2133.75 745 555.625
v -1815 745 606.25
v -2027.5 745 606.25
v -2133.75 745 547.1875
v -2186.875 745 555.625
v -2186.875 745 538.75
v -2186.875 745 547.1875
v -2027.5 745 521.875
v -2133.75 745 505
v -2133.75 745 521.875
v -1815 745 471.25
v -2027.5 745 437.5
v -2027.5 745 471.25
v -2186.875 745 551.40625
v -2213.4375 745 555.625
v -2213.4375 745 547.1875
v -2213.4375 745 551.40625
v -2133.75 745 564.0625
v -2186.875 745 572.5
v -2186.875 745 564.0625
v -2027.5 745 589.375
v -2133.75 745 606.25
v -2133.75 745 589.375
v -2186.875 745 542.96875
v -2213.4375 745 538.75
v -2213.4375 745 542.96875
v -2133.75 745 530.3125
v -2186.875 745 521.875
v -2186.875 745 530.3125
v -2186.875 745 534.53125
v -2213.4375 745 530.3125
v -2213.4375 745 534.53125
v -2186.875 745 526.09375
v -2213.4375 745 521.875
v -2213.4375 745 526.09375
v -2133.75 745 513.4375
v -2186.875 745 505
v -2186.875 745 513.4375
v -2027.5 745 488.125
v -2133.75 745 471.25
v -2133.75 745 488.125
v -2186.875 745 517.65625
v -2213.4375 745 513.4375
v -2213.4375 745 517.65625
v -2186.875 745 509.21875
v -2133.75 745 496.5625
v -2186.875 745 496.5625
v -1950.5572509765625 745 375.27862548828125
v -1943.4066162109375 745 372.36959838867188
v -1935.893310546875 745 370.595947265625
v -1815 745 403.75
v -1815 745 386.875
v -1921.25 745 403.75
v -1921.25 745 386.875
v -1390 745 403.75
v -1602.5 745 437.5
v -1602.5 745 403.75
v -1921.25 745 378.4375
v -1815 745 378.4375
v -1868.125 745 386.875
v -1868.125 745 378.4375
v -1602.5 745 386.875
v -1708.75 745 403.75
v -1708.75 745 386.875
v -1928.1966552734375 745 370
v -1659.0982666015625 745 370
v -1390 745 370
v -1120.9017333984375 745 370
v -851.80340576171875 745 370
v -844.106689453125 745 370.595947265625
v -836.5933837890625 745 372.36959838867188
v -829.4427490234375 745 375.27862548828125
v -752.5 745 437.5
v -965 745 403.75
v -858.75 745 403.75
v -965 745 386.875
v -858.75 745 386.875
v -1177.5 745 437.5
v -1177.5 745 403.75
v -858.75 745 378.4375
v -911.875 745 386.875
v -965 745 378.4375
v -911.875 745 378.4375
v -1071.25 745 403.75
v -1177.5 745 386.875
v -1071.25 745 386.875
v -567.63934326171875 745 506.18032836914062
v -560.87457275390625 745 510.26046752929688
v -554.8369140625 745 515.35516357421875
v -549.677001953125 745 521.33721923828125
v -545.52374267578125 745 528.057373046875
v -542.48077392578125 745 535.34771728515625
v -540.62408447265625 745 543.02642822265625
v -540 745 550.90167236328125
v -752.5 745 572.5
v -965 745 538.75
v -752.5 745 505
v -752.5 745 538.75
v -646.25 745 538.75
v -752.5 745 521.875
v -646.25 745 505
v -646.25 745 521.875
v -965 745 471.25
v -752.5 745 471.25
v -593.125 745 521.875
v -646.25 745 513.4375
v -593.125 745 505
v -593.125 745 513.4375
v -752.5 745 488.125
v -646.25 745 488.125
v -566.5625 745 513.4375
v -593.125 745 509.21875
v -646.25 745 496.5625
v -566.5625 745 521.875
v -593.125 745 517.65625
v -566.5625 745 517.65625
v -593.125 745 538.75
v -646.25 745 530.3125
v -593.125 745 530.3125
v -646.25 745 572.5
v -752.5 745 555.625
v -646.25 745 555.625
v -965 745 606.25
v -752.5 745 606.25
v -566.5625 745 530.3125
v -593.125 745 526.09375
v -566.5625 745 526.09375
v -566.5625 745 538.75
v -593.125 745 534.53125
v -566.5625 745 534.53125
v -593.125 745 555.625
v -646.25 745 547.1875
v -593.125 745 547.1875
v -566.5625 745 547.1875
v -593.125 745 542.96875
v -566.5625 745 542.96875
v -566.5625 745 555.625
v -593.125 745 551.40625
v -566.5625 745 551.40625
v -593.125 745 572.5
v -646.25 745 564.0625
v -593.125 745 564.0625
v -646.25 745 606.25
v -752.5 745 589.375
v -646.25 745 589.375
v -540 745 620
v -540.2462158203125 745 623.128662109375
v -540.9788818359375 745 626.18035888671875
v -542.17987060546875 745 629.079833984375
v -543.81964111328125 745 631.75567626953125
v -545.85784912109375 745 634.14215087890625
v -548.24432373046875 745 636.18035888671875
v -550.920166015625 745 637.82012939453125
v -553.81964111328125 745 639.0211181640625
v -556.871337890625 745 639.7537841796875
v -560 745 640
v -752.5 745 623.125
v -646.25 745 623.125
v -593.125 745 623.125
v -646.25 745 614.6875
v -593.125 745 606.25
v -593.125 745 614.6875
v -566.5625 745 623.125
v -593.125 745 618.90625
v -566.5625 745 614.6875
v -566.5625 745 618.90625
v -646.25 745 631.5625
v -593.125 745 631.5625
v -553.28125 745 623.125
v -566.5625 745 621.015625
v -553.28125 745 618.90625
v -553.28125 745 621.015625
v -566.5625 745 631.5625
v -593.125 745 627.34375
v -566.5625 745 627.34375
v -546.640625 745 621.015625
v -553.28125 745 619.9609375
v -546.640625 745 618.90625
v -546.640625 745 619.9609375
v -566.5625 745 616.796875
v -553.28125 745 614.6875
v -553.28125 745 616.796875
v -593.125 745 610.46875
v -566.5625 745 606.25
v -566.5625 745 610.46875
v -646.25 745 597.8125
v -593.125 745 589.375
v -593.125 745 597.8125
v -553.28125 745 627.34375
v -566.5625 745 625.234375
v -553.28125 745 625.234375
v -546.640625 745 625.234375
v -553.28125 745 624.1796875
v -546.640625 745 623.125
v -546.640625 745 624.1796875
v -546.640625 745 627.34375
v -553.28125 745 626.2890625
v -546.640625 745 626.2890625
v -553.28125 745 631.5625
v -566.5625 745 629.453125
v -553.28125 745 629.453125
v -593.125 745 635.78125
v -566.5625 745 635.78125
v -546.640625 745 629.453125
v -553.28125 745 628.3984375
v -546.640625 745 628.3984375
v -553.28125 745 635.78125
v -566.5625 745 633.671875
v -553.28125 745 633.671875
v -546.640625 745 633.671875
v -553.28125 745 632.6171875
v -546.640625 745 631.5625
v -546.640625 745 632.6171875
v -553.28125 745 634.7265625
v -566.5625 745 637.890625
v -553.28125 745 637.890625
v -553.28125 745 636.8359375
v -566.5625 745 638.9453125
v -559.921875 745 637.890625
v -559.921875 745 638.9453125
v -593.125 745 637.890625
v -579.84375 745 635.78125
v -579.84375 745 637.890625
v -646.25 745 635.78125
v -619.6875 745 631.5625
v -619.6875 745 635.78125
v -752.5 745 631.5625
v -699.375 745 623.125
v -699.375 745 631.5625
v -965 745 623.125
v -858.75 745 606.25
v -858.75 745 623.125
v -1390 745 606.25
v -1177.5 745 572.5
v -1177.5 745 606.25
v -836.66668701171875 745 640
v -1113.3333740234375 745 640
v -1666.6666259765625 745 640
v -1943.3333740234375 745 640
v -2220 745 640
v -2223.128662109375 745 639.7537841796875
v -2226.180419921875 745 639.0211181640625
v -2229.079833984375 745 637.82012939453125
v -2231.755615234375 745 636.18035888671875
v -2234.14208984375 745 634.14215087890625
v -2236.180419921875 745 631.75567626953125
v -2237.820068359375 745 629.079833984375
v -2239.021240234375 745 626.18035888671875
v -2239.753662109375 745 623.128662109375
v -2240 745 620
v -2027.5 745 623.125
v -2133.75 745 623.125
v -2133.75 745 631.5625
v -2186.875 745 623.125
v -2186.875 745 631.5625
v -2186.875 745 635.78125
v -2213.4375 745 631.5625
v -2213.4375 745 635.78125
v -2213.4375 745 637.890625
v -2226.71875 745 635.78125
v -2226.71875 745 637.890625
v -2213.4375 745 638.9453125
v -2220.078125 745 637.890625
v -2220.078125 745 638.9453125
v -2186.875 745 637.890625
v -2200.15625 745 635.78125
v -2200.15625 745 637.890625
v -2133.75 745 635.78125
v -2160.3125 745 631.5625
v -2160.3125 745 635.78125
v -2027.5 745 631.5625
v -2080.625 745 623.125
v -2080.625 745 631.5625
v -1815 745 623.125
v -1921.25 745 606.25
v -1921.25 745 623.125
v -1602.5 745 572.5
v -1602.5 745 606.25
v -2226.71875 745 636.8359375
v -2213.4375 745 633.671875
v -2226.71875 745 631.5625
v -2226.71875 745 633.671875
v -2186.875 745 627.34375
v -2213.4375 745 623.125
v -2213.4375 745 627.34375
v -2133.75 745 614.6875
v -2186.875 745 606.25
v -2186.875 745 614.6875
v -2226.71875 745 634.7265625
v -2233.359375 745 633.671875
v -2226.71875 745 632.6171875
v -2233.359375 745 631.5625
v -2233.359375 745 632.6171875
v -2213.4375 745 629.453125
v -2226.71875 745 627.34375
v -2226.71875 745 629.453125
v -2226.71875 745 628.3984375
v -2233.359375 745 629.453125
v -2233.359375 745 627.34375
v -2233.359375 745 628.3984375
v -2213.4375 745 625.234375
v -2226.71875 745 623.125
v -2226.71875 745 625.234375
v -2186.875 745 618.90625
v -2213.4375 745 614.6875
v -2213.4375 745 618.90625
v -2226.71875 745 626.2890625
v -2233.359375 745 625.234375
v -2233.359375 745 626.2890625
v -2226.71875 745 624.1796875
v -2233.359375 745 623.125
v -2233.359375 745 624.1796875
v -2213.4375 745 621.015625
v -2226.71875 745 618.90625
v -2226.71875 745 621.015625
v -2226.71875 745 619.9609375
v -2233.359375 745 621.015625
v -2233.359375 745 618.90625
v -2233.359375 745 619.9609375
v -2213.4375 745 616.796875
v -2226.71875 745 614.6875
v -2226.71875 745 616.796875
v -2186.875 745 610.46875
v -2213.4375 745 606.25
v -2213.4375 745 610.46875
v -2133.75 745 597.8125
v -2186.875 745 589.375
v -2186.875 745 597.8125
vt 0.25 0.25
vt 0.25 0.5
vt 0.25 0.75
vt 0.5 0.25
vt 0.5 0.5
vt 0.5 0.75
vt 0.5 1
vt 0.75 0.25
vt 0.75 0.5
vt 0.75 0.75
vt 0 0.67000627517700195
vt 0.00036711437860503793 0.640838623046875
vt 0.0014592929510399699 0.61239904165267944
vt 0.0032492708414793015 0.58539760112762451
vt 0.0056923632510006428 0.56050831079483032
vt 0.0087275812402367592 0.53835248947143555
vt 0.012279155664145947 0.51948326826095581
vt 0.016258424147963524 0.50437164306640625
vt 0.25 0.625
vt 0.125 0.75
vt 0.125 0.5
vt 0.125 0.625
vt 0.125 0.6875
vt 0.0625 0.75
vt 0.0625 0.625
vt 0.0625 0.6875
vt 0.25 0.875
vt 0.125 0.875
vt 0.0625 0.65625
vt 0.03125 0.6875
vt 0.03125 0.625
vt 0.03125 0.65625
vt 0.125 0.5625
vt 0.0625 0.5
vt 0.0625 0.5625
vt 0.25 0.375
vt 0.125 0.25
vt 0.125 0.375
vt 0.03125 0.671875
vt 0.015625 0.6875
vt 0.015625 0.65625
vt 0.015625 0.671875
vt 0.0625 0.71875
vt 0.03125 0.75
vt 0.03125 0.71875
vt 0.125 0.8125
vt 0.0625 0.875
vt 0.0625 0.8125
vt 0.03125 0.640625
vt 0.015625 0.625
vt 0.015625 0.640625
vt 0.0625 0.59375
vt 0.03125 0.5625
vt 0.03125 0.59375
vt 0.03125 0.609375
vt 0.015625 0.59375
vt 0.015625 0.609375
vt 0.03125 0.578125
vt 0.015625 0.5625
vt 0.015625 0.578125
vt 0.0625 0.53125
vt 0.03125 0.5
vt 0.03125 0.53125
vt 0.125 0.4375
vt 0.0625 0.375
vt 0.0625 0.4375
vt 0.03125 0.546875
vt 0.015625 0.53125
vt 0.015625 0.546875
vt 0.03125 0.515625
vt 0.0625 0.46875
vt 0.03125 0.46875
vt 0.17026042938232422 0.019550520926713943
vt 0.17446671426296234 0.0087762549519538879
vt 0.17888627946376801 0.002207217738032341
vt 0.25 0.125
vt 0.25 0.0625
vt 0.1875 0.125
vt 0.1875 0.0625
vt 0.5 0.125
vt 0.375 0.25
vt 0.375 0.125
vt 0.1875 0.03125
vt 0.25 0.03125
vt 0.21875 0.0625
vt 0.21875 0.03125
vt 0.375 0.0625
vt 0.3125 0.125
vt 0.3125 0.0625
vt 0.18341375887393951 0
vt 0.34170687198638916 0
vt 0.5 0
vt 0.65829312801361084 0
vt 0.81658625602722168 0
vt 0.8211137056350708 0.002207217738032341
vt 0.82553327083587646 0.0087762549519538879
vt 0.82973957061767578 0.019550520926713943
vt 0.875 0.25
vt 0.75 0.125
vt 0.8125 0.125
vt 0.75 0.0625
vt 0.8125 0.0625
vt 0.625 0.25
vt 0.625 0.125
vt 0.8125 0.03125
vt 0.78125 0.0625
vt 0.75 0.03125
vt 0.78125 0.03125
vt 0.6875 0.125
vt 0.625 0.0625
vt 0.6875 0.0625
vt 0.98374158143997192 0.50437164306640625
vt 0.98772084712982178 0.51948326826095581
vt 0.99127238988876343 0.53835248947143555
vt 0.99430763721466064 0.56050831079483032
vt 0.99675071239471436 0.58539760112762451
vt 0.99854069948196411 0.61239904165267944
vt 0.99963289499282837 0.640838623046875
vt 1 0.67000627517700195
vt 0.875 0.75
vt 0.75 0.625
vt 0.875 0.5
vt 0.875 0.625
vt 0.9375 0.625
vt 0.875 0.5625
vt 0.9375 0.5
vt 0.9375 0.5625
vt 0.75 0.375
vt 0.875 0.375
vt 0.96875 0.5625
vt 0.9375 0.53125
vt 0.96875 0.5
vt 0.96875 0.53125
vt 0.875 0.4375
vt 0.9375 0.4375
vt 0.984375 0.53125
vt 0.96875 0.515625
vt 0.9375 0.46875
vt 0.984375 0.5625
vt 0.96875 0.546875
vt 0.984375 0.546875
vt 0.96875 0.625
vt 0.9375 0.59375
vt 0.96875 0.59375
vt 0.9375 0.75
vt 0.875 0.6875
vt 0.9375 0.6875
vt 0.75 0.875
vt 0.875 0.875
vt 0.984375 0.59375
vt 0.96875 0.578125
vt 0.984375 0.578125
vt 0.984375 0.625
vt 0.96875 0.609375
vt 0.984375 0.609375
vt 0.96875 0.6875
vt 0.9375 0.65625
vt 0.96875 0.65625
vt 0.984375 0.65625
vt 0.96875 0.640625
vt 0.984375 0.640625
vt 0.984375 0.6875
vt 0.96875 0.671875
vt 0.984375 0.671875
vt 0.96875 0.75
vt 0.9375 0.71875
vt 0.96875 0.71875
vt 0.9375 0.875
vt 0.875 0.8125
vt 0.9375 0.8125
vt 1 0.92592591047286987
vt 0.9998551607131958 0.93751364946365356
vt 0.99942421913146973 0.94881606101989746
vt 0.99871772527694702 0.95955485105514526
vt 0.99775314331054688 0.96946555376052856
vt 0.99655419588088989 0.97830420732498169
vt 0.99515038728713989 0.98585313558578491
vt 0.99357634782791138 0.99192643165588379
vt 0.99187076091766357 0.99637454748153687
vt 0.99007570743560791 0.99908804893493652
vt 0.98823529481887817 1
vt 0.875 0.9375
vt 0.9375 0.9375
vt 0.96875 0.9375
vt 0.9375 0.90625
vt 0.96875 0.875
vt 0.96875 0.90625
vt 0.984375 0.9375
vt 0.96875 0.921875
vt 0.984375 0.90625
vt 0.984375 0.921875
vt 0.9375 0.96875
vt 0.96875 0.96875
vt 0.9921875 0.9375
vt 0.984375 0.9296875
vt 0.9921875 0.921875
vt 0.9921875 0.9296875
vt 0.984375 0.96875
vt 0.96875 0.953125
vt 0.984375 0.953125
vt 0.99609375 0.9296875
vt 0.9921875 0.92578125
vt 0.99609375 0.921875
vt 0.99609375 0.92578125
vt 0.984375 0.9140625
vt 0.9921875 0.90625
vt 0.9921875 0.9140625
vt 0.96875 0.890625
vt 0.984375 0.875
vt 0.984375 0.890625
vt 0.9375 0.84375
vt 0.96875 0.8125
vt 0.96875 0.84375
vt 0.9921875 0.953125
vt 0.984375 0.9453125
vt 0.9921875 0.9453125
vt 0.99609375 0.9453125
vt 0.9921875 0.94140625
vt 0.99609375 0.9375
vt 0.99609375 0.94140625
vt 0.99609375 0.953125
vt 0.9921875 0.94921875
vt 0.99609375 0.94921875
vt 0.9921875 0.96875
vt 0.984375 0.9609375
vt 0.9921875 0.9609375
vt 0.96875 0.984375
vt 0.984375 0.984375
vt 0.99609375 0.9609375
vt 0.9921875 0.95703125
vt 0.99609375 0.95703125
vt 0.9921875 0.984375
vt 0.984375 0.9765625
vt 0.9921875 0.9765625
vt 0.99609375 0.9765625
vt 0.9921875 0.97265625
vt 0.99609375 0.96875
vt 0.99609375 0.97265625
vt 0.9921875 0.98046875
vt 0.984375 0.9921875
vt 0.9921875 0.9921875
vt 0.9921875 0.98828125
vt 0.984375 0.99609375
vt 0.98828125 0.9921875
vt 0.98828125 0.99609375
vt 0.96875 0.9921875
vt 0.9765625 0.984375
vt 0.9765625 0.9921875
vt 0.9375 0.984375
vt 0.953125 0.96875
vt 0.953125 0.984375
vt 0.875 0.96875
vt 0.90625 0.9375
vt 0.90625 0.96875
vt 0.75 0.9375
vt 0.8125 0.875
vt 0.8125 0.9375
vt 0.5 0.875
vt 0.625 0.75
vt 0.625 0.875
vt 0.82549017667770386 1
vt 0.66274511814117432 1
vt 0.33725491166114807 1
vt 0.17450980842113495 1
vt 0.011764706112444401 1
vt 0.0099243000149726868 0.99908804893493652
vt 0.0081292120739817619 0.99637454748153687
vt 0.0064236409962177277 0.99192643165588379
vt 0.0048495852388441563 0.98585313558578491
vt 0.0034458024892956018 0.97830420732498169
vt 0.0022468587849289179 0.96946555376052856
vt 0.0012822762364521623 0.95955485105514526
vt 0.00057580566499382257 0.94881606101989746
vt 0.00014484305575024337 0.93751364946365356
vt 0 0.92592591047286987
vt 0.125 0.9375
vt 0.0625 0.9375
vt 0.0625 0.96875
vt 0.03125 0.9375
vt 0.03125 0.96875
vt 0.03125 0.984375
vt 0.015625 0.96875
vt 0.015625 0.984375
vt 0.015625 0.9921875
vt 0.0078125 0.984375
vt 0.0078125 0.9921875
vt 0.015625 0.99609375
vt 0.01171875 0.9921875
vt 0.01171875 0.99609375
vt 0.03125 0.9921875
vt 0.0234375 0.984375
vt 0.0234375 0.9921875
vt 0.0625 0.984375
vt 0.046875 0.96875
vt 0.046875 0.984375
vt 0.125 0.96875
vt 0.09375 0.9375
vt 0.09375 0.96875
vt 0.25 0.9375
vt 0.1875 0.875
vt 0.1875 0.9375
vt 0.375 0.75
vt 0.375 0.875
vt 0.0078125 0.98828125
vt 0.015625 0.9765625
vt 0.0078125 0.96875
vt 0.0078125 0.9765625
vt 0.03125 0.953125
vt 0.015625 0.9375
vt 0.015625 0.953125
vt 0.0625 0.90625
vt 0.03125 0.875
vt 0.03125 0.90625
vt 0.0078125 0.98046875
vt 0.00390625 0.9765625
vt 0.0078125 0.97265625
vt 0.00390625 0.96875
vt 0.00390625 0.97265625
vt 0.015625 0.9609375
vt 0.0078125 0.953125
vt 0.0078125 0.9609375
vt 0.0078125 0.95703125
vt 0.00390625 0.9609375
vt 0.00390625 0.953125
vt 0.00390625 0.95703125
vt 0.015625 0.9453125
vt 0.0078125 0.9375
vt 0.0078125 0.9453125
vt 0.03125 0.921875
vt 0.015625 0.90625
vt 0.015625 0.921875
vt 0.0078125 0.94921875
vt 0.00390625 0.9453125
vt 0.00390625 0.94921875
vt 0.0078125 0.94140625
vt 0.00390625 0.9375
vt 0.00390625 0.94140625
vt 0.015625 0.9296875
vt 0.0078125 0.921875
vt 0.0078125 0.9296875
vt 0.0078125 0.92578125
vt 0.00390625 0.9296875
vt 0.00390625 0.921875
vt 0.00390625 0.92578125
vt 0.015625 0.9140625
vt 0.0078125 0.90625
vt 0.0078125 0.9140625
vt 0.03125 0.890625
vt 0.015625 0.875
vt 0.015625 0.890625
vt 0.0625 0.84375
vt 0.03125 0.8125
vt 0.03125 0.84375
vn 0 -1 0
vn 0 -1 0
vn 0 -1 0
vn 0 -1 0
vn 0 -1 0
vn 0 -1 0
vn 0 -1 0
vn 0 -1 0
vn 0 -1 0
vn 0 -1 0
vn 0 -1 0
vn 0 -1 0
vn 0 -1 0
vn 0 -1 0
vn 0 -1 0
vn 0 -1 0
vn 0 -1 0
vn 0 -1 0
vn 0 -1 0
vn 0 -1 0
vn 0 -1 0
vn 0 -1 0
vn 0 -1 0
vn 0 -1 0
vn 0 -1 0
vn 0 -1 0
vn 0 -1 0
vn 0 -1 0
vn 0 -1 0
vn 0 -1 0
vn 0 -1 0
vn 0 -1 0
vn 0 -1 0
vn 0 -1 0
vn 0 -1 0
vn 0 -1 0
vn 0 -1 0
vn 0 -1 0
vn 0 -1 0
vn 0 -1 0
vn 0 -1 0
vn 0 -1 0
vn 0 -1 0
vn 0 -1 0
vn 0 -1 0
vn 0 -1 0
vn 0 -1 0
vn 0 -1 0
vn 0 -1 0
vn 0 -1 0
vn 0 -1 0
vn 0 -1 0
vn 0 -1 0
vn 0 -1 0
vn 0 -1 0
vn 0 -1 0
vn 0 -1 0
vn 0 -1 0
vn 0 -1 0
vn 0 -1 0
vn 0 -1 0
vn 0 -1 0
vn 0 -1 0
vn 0 -1 0
vn 0 -1 0
vn 0 -1 0
vn 0 -1 0
vn 0 -1 0
vn 0 -1 0
vn 0 -1 0
vn 0 -1 0
vn 0 -1 0
vn 0 -1 0
vn 0 -1 0
vn 0 -1 0
vn 0 -1 0
vn 0 -1 0
vn 0 -1 0
vn 0 -1 0
vn 0 -1 0
vn 0 -1 0
vn 0 -1 0
vn 0 -1 0
vn 0 -1 0
vn 0 -1 0
vn 0 -1 0
vn 0 -1 0
vn 0 -1 0
vn 0 -1 0
vn 0 -1 0
vn 0 -1 0
vn 0 -1 0
vn 0 -1 0
vn 0 -1 0
vn 0 -1 0
vn 0 -1 0
vn 0 -1 0
vn 0 -1 0
vn 0 -1 0
vn 0 -1 0
vn 0 -1 0
vn 0 -1 0
vn 0 -1 0
vn 0 -1 0
vn 0 -1 0
vn 0 -1 0
vn 0 -1 0
vn 0 -1 0
vn 0 -1 0
vn 0 -1 0
vn 0 -1 0
vn 0 -1 0
vn 0 -1 0
vn 0 -1 0
vn 0 -1 0
vn 0 -1 0
vn 0 -1 0
vn 0 -1 0
vn 0 -1 0
vn 0 -1 0
vn 0 -1 0
vn 0 -1 0
vn 0 -1 0
vn 0 -1 0
vn 0 -1 0
vn 0 -1 0
vn 0 -1 0
vn 0 -1 0
vn 0 -1 0
vn 0 -1 0
vn 0 -1 0
vn 0 -1 0
vn 0 -1 0
vn 0 -1 0
vn 0 -1 0
vn 0 -1 0
vn 0 -1 0
vn 0 -1 0
vn 0 -1 0
vn 0 -1 0
vn 0 -1 0
vn 0 -1 0
vn 0 -1 0
vn 0 -1 0
vn 0 -1 0
vn 0 -1 0
vn 0 -1 0
vn 0 -1 0
vn 0 -1 0
vn 0 -1 0
vn 0 -1 0
vn 0 -1 0
vn 0 -1 0
vn 0 -1 0
vn 0 -1 0
vn 0 -1 0
vn 0 -1 0
vn 0 -1 0
vn 0 -1 0
vn 0 -1 0
vn 0 -1 0
vn 0 -1 0
vn 0 -1 0
vn 0 -1 0
vn 0 -1 0
vn 0 -1 0
vn 0 -1 0
vn 0 -1 0
vn 0 -1 0
vn 0 -1 0
vn 0 -1 0
vn 0 -1 0
vn 0 -1 0
vn 0 -1 0
vn 0 -1 0
vn 0 -1 0
vn 0 -1 0
vn 0 -1 0
vn 0 -1 0
vn 0 -1 0
vn 0 -1 0
vn 0 -1 0
vn 0 -1 0
vn 0 -1 0
vn 0 -1 0
vn 0 -1 0
vn 0 -1 0
vn 0 -1 0
vn 0 -1 0
vn 0 -1 0
vn 0 -1 0
vn 0 -1 0
vn 0 -1 0
vn 0 -1 0
vn 0 -1 0
vn 0 -1 0
vn 0 -1 0
vn 0 -1 0
vn 0 -1 0
vn 0 -1 0
vn 0 -1 0
vn 0 -1 0
vn 0 -1 0
vn 0 -1 0
vn 0 -1 0
vn 0 -1 0
vn 0 -1 0
vn 0 -1 0
vn 0 -1 0
vn 0 -1 0
vn 0 -1 0
vn 0 -1 0
vn 0 -1 0
vn 0 -1 0
vn 0 -1 0
vn 0 -1 0
vn 0 -1 0
vn 0 -1 0
vn 0 -1 0
vn 0 -1 0
vn 0 -1 0
vn 0 -1 0
vn 0 -1 0
vn 0 -1 0
vn 0 -1 0
vn 0 -1 0
vn 0 -1 0
vn 0 -1 0
vn 0 -1 0
vn 0 -1 0
vn 0 -1 0
vn 0 -1 0
vn 0 -1 0
vn 0 -1 0
vn 0 -1 0
vn 0 -1 0
vn 0 -1 0
vn 0 -1 0
vn 0 -1 0
vn 0 -1 0
vn 0 -1 0
vn 0 -1 0
vn 0 -1 0
vn 0 -1 0
vn 0 -1 0
vn 0 -1 0
vn 0 -1 0
vn 0 -1 0
vn 0 -1 0
vn 0 -1 0
vn 0 -1 0
vn 0 -1 0
vn 0 -1 0
vn 0 -1 0
vn 0 -1 0
vn 0 -1 0
vn 0 -1 0
vn 0 -1 0
vn 0 -1 0
vn 0 -1 0
vn 0 -1 0
vn 0 -1 0
vn 0 -1 0
vn 0 -1 0
vn 0 -1 0
vn 0 -1 0
vn 0 -1 0
vn 0 -1 0
vn 0 -1 0
vn 0 -1 0
vn 0 -1 0
vn 0 -1 0
vn 0 -1 0
vn 0 -1 0
vn 0 -1 0
vn 0 -1 0
vn 0 -1 0
vn 0 -1 0
vn 0 -1 0
vn 0 -1 0
vn 0 -1 0
vn 0 -1 0
vn 0 -1 0
vn 0 -1 0
vn 0 -1 0
vn 0 -1 0
vn 0 -1 0
vn 0 -1 0
vn 0 -1 0
vn 0 -1 0
vn 0 -1 0
vn 0 -1 0
vn 0 -1 0
vn 0 -1 0
vn 0 -1 0
vn 0 -1 0
vn 0 -1 0
vn 0 -1 0
vn 0 -1 0
vn 0 -1 0
vn 0 -1 0
vn 0 -1 0
vn 0 -1 0
vn 0 -1 0
vn 0 -1 0
vn 0 -1 0
vn 0 -1 0
vn 0 -1 0
vn 0 -1 0
vn 0 -1 0
vn 0 -1 0
vn 0 -1 0
vn 0 -1 0
vn 0 -1 0
vn 0 -1 0
vn 0 -1 0
vn 0 -1 0
vn 0 -1 0
vn 0 -1 0
vn 0 -1 0
vn 0 -1 0
vn 0 -1 0
vn 0 -1 0
vn 0 -1 0
vn 0 -1 0
vn 0 -1 0
vn 0 -1 0
vn 0 -1 0
vn 0 -1 0
vn 0 -1 0
vn 0 -1 0
vn 0 -1 0
vn 0 -1 0
vn 0 -1 0
vn 0 -1 0
vn 0 -1 0
vn 0 -1 0
vn 0 -1 0
vn 0 -1 0
vn 0 -1 0
vn 0 -1 0
vn 0 -1 0
vn 0 -1 0
vn 0 -1 0
vn 0 -1 0
vn 0 -1 0
vn 0 -1 0
vn 0 -1 0
vn 0 -1 0
vn 0 -1 0
vn 0 -1 0
vn 0 -1 0
vn 0 -1 0
f 85/85/85 77/77/77 76/76/76
f 78/78/78 79/79/79 85/85/85
f 76/76/76 78/78/78 85/85/85
f 77/77/77 85/85/85 86/86/86 84/84/84
f 85/85/85 79/79/79 83/83/83 86/86/86
f 64/64/64 38/38/38 36/36/36
f 2/2/2 21/21/21 64/64/64
f 36/36/36 2/2/2 64/64/64
f 71/71/71 66/66/66 64/64/64
f 21/21/21 34/34/34 71/71/71
f 64/64/64 21/21/21 71/71/71
f 34/34/34 62/62/62 72/72/72 71/71/71
f 64/64/64 66/66/66 65/65/65 38/38/38
f 36/36/36 38/38/38 37/37/37 1/1/1
f 23/23/23 22/22/22 19/19/19
f 3/3/3 20/20/20 23/23/23
f 19/19/19 3/3/3 23/23/23
f 43/43/43 26/26/26 23/23/23
f 20/20/20 24/24/24 43/43/43
f 23/23/23 20/20/20 43/43/43
f 24/24/24 44/44/44 45/45/45 43/43/43
f 43/43/43 45/45/45 30/30/30 26/26/26
f 39/39/39 32/32/32 29/29/29
f 26/26/26 30/30/30 39/39/39
f 29/29/29 26/26/26 39/39/39
f 30/30/30 40/40/40 42/42/42 39/39/39
f 39/39/39 42/42/42 41/41/41 32/32/32
f 32/32/32 41/41/41 51/51/51 49/49/49
f 49/49/49 51/51/51 50/50/50 31/31/31
f 49/49/49 31/31/31 25/25/25
f 29/29/29 32/32/32 49/49/49
f 25/25/25 29/29/29 49/49/49
f 29/29/29 25/25/25 22/22/22
f 23/23/23 26/26/26 29/29/29
f 22/22/22 23/23/23 29/29/29
f 52/52/52 35/35/35 33/33/33
f 22/22/22 25/25/25 52/52/52
f 33/33/33 22/22/22 52/52/52
f 55/55/55 54/54/54 52/52/52
f 25/25/25 31/31/31 55/55/55
f 52/52/52 25/25/25 55/55/55
f 31/31/31 50/50/50 57/57/57 55/55/55
f 55/55/55 57/57/57 56/56/56 54/54/54
f 54/54/54 56/56/56 60/60/60 58/58/58
f 58/58/58 60/60/60 59/59/59 53/53/53
f 58/58/58 53/53/53 35/35/35
f 52/52/52 54/54/54 58/58/58
f 35/35/35 52/52/52 58/58/58
f 67/67/67 63/63/63 61/61/61
f 35/35/35 53/53/53 67/67/67
f 61/61/61 35/35/35 67/67/67
f 53/53/53 59/59/59 69/69/69 67/67/67
f 67/67/67 69/69/69 68/68/68 63/63/63
f 70/70/70 63/63/63 68/68/68
f 70/70/70 62/62/62 34/34/34
f 61/61/61 63/63/63 70/70/70
f 34/34/34 61/61/61 70/70/70
f 61/61/61 34/34/34 21/21/21
f 33/33/33 35/35/35 61/61/61
f 21/21/21 33/33/33 61/61/61
f 33/33/33 21/21/21 2/2/2
f 19/19/19 22/22/22 33/33/33
f 2/2/2 19/19/19 33/33/33
f 301/301/301 276/276/276 28/28/28 300/300/300
f 299/299/299 301/301/301 300/300/300 27/27/27
f 298/298/298 278/278/278 277/277/277 297/297/297
f 296/296/296 298/298/298 297/297/297 276/276/276
f 295/295/295 281/281/281 280/280/280 294/294/294
f 293/293/293 295/295/295 294/294/294 278/278/278
f 292/292/292 284/284/284 283/283/283 291/291/291
f 290/290/290 292/292/292 291/291/291 281/281/281
f 287/287/287 289/289/289 288/288/288 284/284/284
f 288/288/288 286/286/286 304/304/304
f 304/304/304 285/285/285 283/283/283
f 283/283/283 284/284/284 288/288/288
f 288/288/288 304/304/304 283/283/283
f 314/314/314 307/307/307 305/305/305
f 283/283/283 285/285/285 314/314/314
f 305/305/305 283/283/283 314/314/314
f 307/307/307 315/315/315 318/318/318 316/316/316
f 316/316/316 318/318/318 317/317/317 306/306/306
f 316/316/316 306/306/306 282/282/282
f 305/305/305 307/307/307 316/316/316
f 282/282/282 305/305/305 316/316/316
f 291/291/291 283/283/283 305/305/305
f 305/305/305 282/282/282 280/280/280
f 280/280/280 281/281/281 291/291/291
f 291/291/291 305/305/305 280/280/280
f 319/319/319 310/310/310 308/308/308
f 280/280/280 282/282/282 319/319/319
f 308/308/308 280/280/280 319/319/319
f 282/282/282 306/306/306 321/321/321 319/319/319
f 321/321/321 323/323/323 325/325/325 322/322/322
f 322/322/322 325/325/325 324/324/324 320/320/320
f 322/322/322 320/320/320 310/310/310
f 319/319/319 321/321/321 322/322/322
f 310/310/310 319/319/319 322/322/322
f 332/332/332 328/328/328 326/326/326
f 310/310/310 320/320/320 332/332/332
f 326/326/326 310/310/310 332/332/332
f 320/320/320 324/324/324 334/334/334 332/332/332
f 332/332/332 334/334/334 333/333/333 328/328/328
f 328/328/328 333/333/333 337/337/337 335/335/335
f 335/335/335 337/337/337 336/336/336 327/327/327
f 335/335/335 327/327/327 309/309/309
f 326/326/326 328/328/328 335/335/335
f 309/309/309 326/326/326 335/335/335
f 326/326/326 309/309/309 279/279/279
f 308/308/308 310/310/310 326/326/326
f 279/279/279 308/308/308 326/326/326
f 294/294/294 280/280/280 308/308/308
f 308/308/308 279/279/279 277/277/277
f 277/277/277 278/278/278 294/294/294
f 294/294/294 308/308/308 277/277/277
f 329/329/329 313/313/313 311/311/311
f 277/277/277 279/279/279 329/329/329
f 311/311/311 277/277/277 329/329/329
f 338/338/338 331/331/331 329/329/329
f 279/279/279 309/309/309 338/338/338
f 329/329/329 279/279/279 338/338/338
f 309/309/309 327/327/327 340/340/340 338/338/338
f 340/340/340 342/342/342 344/344/344 341/341/341
f 341/341/341 344/344/344 343/343/343 339/339/339
f 341/341/341 339/339/339 331/331/331
f 338/338/338 340/340/340 341/341/341
f 331/331/331 338/338/338 341/341/341
f 331/331/331 339/339/339 347/347/347 345/345/345
f 345/345/345 347/347/347 346/346/346 330/330/330
f 345/345/345 330/330/330 313/313/313
f 329/329/329 331/331/331 345/345/345
f 313/313/313 329/329/329 345/345/345
f 313/313/313 330/330/330 350/350/350 348/348/348
f 348/348/348 350/350/350 349/349/349 312/312/312
f 348/348/348 312/312/312 47/47/47
f 311/311/311 313/313/313 348/348/348
f 47/47/47 311/311/311 348/348/348
f 297/297/297 277/277/277 311/311/311
f 311/311/311 47/47/47 28/28/28
f 28/28/28 276/276/276 297/297/297
f 297/297/297 311/311/311 28/28/28
f 351/351/351 48/48/48 46/46/46
f 28/28/28 47/47/47 351/351/351
f 46/46/46 28/28/28 351/351/351
f 47/47/47 312/312/312 353/353/353 351/351/351
f 351/351/351 353/353/353 352/352/352 48/48/48
f 46/46/46 48/48/48 24/24/24 20/20/20
f 300/300/300 28/28/28 46/46/46
f 46/46/46 20/20/20 3/3/3
f 3/3/3 27/27/27 300/300/300
f 300/300/300 46/46/46 3/3/3
f 4/4/4 81/81/81 82/82/82 80/80/80
f 88/88/88 82/82/82 81/81/81
f 1/1/1 76/76/76 88/88/88
f 81/81/81 1/1/1 88/88/88
f 82/82/82 88/88/88 89/89/89 87/87/87
f 88/88/88 76/76/76 77/77/77 89/89/89
f 36/36/36 1/1/1 81/81/81
f 81/81/81 4/4/4 5/5/5
f 5/5/5 2/2/2 36/36/36
f 36/36/36 81/81/81 5/5/5
f 302/302/302 3/3/3 19/19/19
f 19/19/19 2/2/2 5/5/5
f 5/5/5 6/6/6 302/302/302
f 302/302/302 19/19/19 5/5/5
f 303/303/303 27/27/27 3/3/3 302/302/302
f 258/258/258 303/303/303 302/302/302 6/6/6
f 109/109/109 99/99/99 8/8/8
f 103/103/103 104/104/104 109/109/109
f 8/8/8 103/103/103 109/109/109
f 103/103/103 4/4/4 80/80/80 104/104/104
f 99/99/99 109/109/109 111/111/111 101/101/101
f 109/109/109 104/104/104 110/110/110 111/111/111
f 103/103/103 8/8/8 128/128/128
f 128/128/128 9/9/9 5/5/5
f 5/5/5 4/4/4 103/103/103
f 103/103/103 128/128/128 5/5/5
f 121/121/121 10/10/10 259/259/259
f 259/259/259 6/6/6 5/5/5
f 5/5/5 9/9/9 121/121/121
f 121/121/121 259/259/259 5/5/5
f 260/260/260 258/258/258 6/6/6 259/259/259
f 148/148/148 260/260/260 259/259/259 10/10/10
f 106/106/106 102/102/102 100/100/100
f 99/99/99 101/101/101 106/106/106
f 100/100/100 99/99/99 106/106/106
f 102/102/102 106/106/106 108/108/108 105/105/105
f 106/106/106 101/101/101 107/107/107 108/108/108
f 138/138/138 126/126/126 122/122/122
f 134/134/134 135/135/135 138/138/138
f 122/122/122 134/134/134 138/138/138
f 134/134/134 122/122/122 9/9/9
f 128/128/128 129/129/129 134/134/134
f 9/9/9 128/128/128 134/134/134
f 129/129/129 128/128/128 8/8/8 98/98/98
f 165/165/165 145/145/145 166/166/166 167/167/167
f 167/167/167 166/166/166 147/147/147 156/156/156
f 166/166/166 145/145/145 120/120/120
f 146/146/146 147/147/147 166/166/166
f 120/120/120 146/146/146 166/166/166
f 157/157/157 147/147/147 146/146/146
f 123/123/123 124/124/124 157/157/157
f 146/146/146 123/123/123 157/157/157
f 162/162/162 156/156/156 163/163/163 164/164/164
f 164/164/164 163/163/163 158/158/158 159/159/159
f 163/163/163 156/156/156 147/147/147
f 157/157/157 158/158/158 163/163/163
f 147/147/147 157/157/157 163/163/163
f 160/160/160 158/158/158 157/157/157
f 124/124/124 142/142/142 160/160/160
f 157/157/157 124/124/124 160/160/160
f 159/159/159 158/158/158 160/160/160 161/161/161
f 161/161/161 160/160/160 142/142/142 153/153/153
f 146/146/146 120/120/120 10/10/10
f 121/121/121 123/123/123 146/146/146
f 10/10/10 121/121/121 146/146/146
f 125/125/125 123/123/123 121/121/121
f 9/9/9 122/122/122 125/125/125
f 121/121/121 9/9/9 125/125/125
f 153/153/153 142/142/142 154/154/154 155/155/155
f 155/155/155 154/154/154 144/144/144 150/150/150
f 154/154/154 142/142/142 124/124/124
f 143/143/143 144/144/144 154/154/154
f 124/124/124 143/143/143 154/154/154
f 151/151/151 144/144/144 143/143/143
f 127/127/127 130/130/130 151/151/151
f 143/143/143 127/127/127 151/151/151
f 150/150/150 144/144/144 151/151/151 152/152/152
f 152/152/152 151/151/151 130/130/130 139/139/139
f 143/143/143 124/124/124 123/123/123
f 125/125/125 127/127/127 143/143/143
f 123/123/123 125/125/125 143/143/143
f 131/131/131 127/127/127 125/125/125
f 122/122/122 126/126/126 131/131/131
f 125/125/125 122/122/122 131/131/131
f 139/139/139 130/130/130 140/140/140 141/141/141
f 141/141/141 140/140/140 133/133/133 136/136/136
f 140/140/140 130/130/130 127/127/127
f 131/131/131 133/133/133 140/140/140
f 127/127/127 131/131/131 140/140/140
f 137/137/137 133/133/133 131/131/131
f 126/126/126 132/132/132 137/137/137
f 131/131/131 126/126/126 137/137/137
f 136/136/136 133/133/133 137/137/137
f 245/245/245 243/243/243 240/240/240 244/244/244
f 242/242/242 241/241/241 244/244/244
f 244/244/244 240/240/240 228/228/228
f 228/228/228 232/232/232 242/242/242
f 242/242/242 244/244/244 228/228/228
f 248/248/248 246/246/246 227/227/227 247/247/247
f 240/240/240 248/248/248 247/247/247 228/228/228
f 233/233/233 228/228/228 247/247/247
f 247/247/247 227/227/227 193/193/193
f 193/193/193 198/198/198 233/233/233
f 233/233/233 247/247/247 193/193/193
f 239/239/239 232/232/232 228/228/228
f 233/233/233 234/234/234 239/239/239
f 228/228/228 233/233/233 239/239/239
f 236/236/236 234/234/234 233/233/233
f 198/198/198 224/224/224 236/236/236
f 233/233/233 198/198/198 236/236/236
f 235/235/235 234/234/234 236/236/236 238/238/238
f 238/238/238 236/236/236 224/224/224 237/237/237
f 251/251/251 249/249/249 192/192/192 250/250/250
f 227/227/227 251/251/251 250/250/250 193/193/193
f 199/199/199 193/193/193 250/250/250
f 250/250/250 192/192/192 183/183/183
f 183/183/183 184/184/184 199/199/199
f 199/199/199 250/250/250 183/183/183
f 224/224/224 198/198/198 225/225/225 226/226/226
f 230/230/230 226/226/226 225/225/225
f 200/200/200 214/214/214 230/230/230
f 225/225/225 200/200/200 230/230/230
f 229/229/229 226/226/226 230/230/230 231/231/231
f 231/231/231 230/230/230 214/214/214 221/221/221
f 225/225/225 198/198/198 193/193/193
f 199/199/199 200/200/200 225/225/225
f 193/193/193 199/199/199 225/225/225
f 215/215/215 200/200/200 199/199/199
f 184/184/184 188/188/188 215/215/215
f 199/199/199 184/184/184 215/215/215
f 221/221/221 214/214/214 222/222/222 223/223/223
f 223/223/223 222/222/222 216/216/216 217/217/217
f 222/222/222 214/214/214 200/200/200
f 215/215/215 216/216/216 222/222/222
f 200/200/200 215/215/215 222/222/222
f 218/218/218 216/216/216 215/215/215
f 188/188/188 194/194/194 218/218/218
f 215/215/215 188/188/188 218/218/218
f 217/217/217 216/216/216 218/218/218 220/220/220
f 220/220/220 218/218/218 194/194/194 219/219/219
f 254/254/254 252/252/252 182/182/182 253/253/253
f 192/192/192 254/254/254 253/253/253 183/183/183
f 185/185/185 183/183/183 253/253/253
f 253/253/253 182/182/182 149/149/149
f 149/149/149 168/168/168 185/185/185
f 185/185/185 253/253/253 149/149/149
f 194/194/194 188/188/188 195/195/195 197/197/197
f 202/202/202 197/197/197 195/195/195
f 191/191/191 196/196/196 202/202/202
f 195/195/195 191/191/191 202/202/202
f 201/201/201 197/197/197 202/202/202 204/204/204
f 204/204/204 202/202/202 196/196/196 203/203/203
f 195/195/195 188/188/188 184/184/184
f 189/189/189 191/191/191 195/195/195
f 184/184/184 189/189/189 195/195/195
f 205/205/205 191/191/191 189/189/189
f 187/187/187 190/190/190 205/205/205
f 189/189/189 187/187/187 205/205/205
f 196/196/196 191/191/191 205/205/205 207/207/207
f 207/207/207 205/205/205 190/190/190 206/206/206
f 189/189/189 184/184/184 183/183/183
f 185/185/185 187/187/187 189/189/189
f 183/183/183 185/185/185 189/189/189
f 208/208/208 187/187/187 185/185/185
f 168/168/168 186/186/186 208/208/208
f 185/185/185 168/168/168 208/208/208
f 190/190/190 187/187/187 208/208/208 210/210/210
f 210/210/210 208/208/208 186/186/186 209/209/209
f 257/257/257 255/255/255 148/148/148 256/256/256
f 182/182/182 257/257/257 256/256/256 149/149/149
f 169/169/169 149/149/149 256/256/256
f 256/256/256 148/148/148 10/10/10
f 10/10/10 120/120/120 169/169/169
f 169/169/169 256/256/256 10/10/10
f 186/186/186 168/168/168 211/211/211 213/213/213
f 213/213/213 211/211/211 170/170/170 212/212/212
f 211/211/211 168/168/168 149/149/149
f 169/169/169 170/170/170 211/211/211
f 149/149/149 169/169/169 211/211/211
f 170/170/170 169/169/169 120/120/120 145/145/145
f 68/68/68 16/16/16 17/17/17
f 70/70/70 68/68/68 17/17/17
f 69/69/69 16/16/16 68/68/68
f 15/15/15 60/60/60 14/14/14
f 16/16/16 69/69/69 15/15/15
f 69/69/69 59/59/59 15/15/15
f 62/62/62 18/18/18 72/72/72
f 65/65/65 72/72/72 18/18/18
f 70/70/70 18/18/18 62/62/62
f 15/15/15 59/59/59 60/60/60
f 14/14/14 60/60/60 56/56/56
f 18/18/18 70/70/70 17/17/17
f 13/13/13 14/14/14 56/56/56
f 50/50/50 13/13/13 57/57/57
f 56/56/56 57/57/57 13/13/13
f 12/12/12 13/13/13 50/50/50
f 41/41/41 11/11/11 12/12/12
f 12/12/12 51/51/51 41/41/41
f 51/51/51 12/12/12 50/50/50
f 42/42/42 11/11/11 41/41/41
f 45/45/45 40/40/40 30/30/30
f 11/11/11 42/42/42 40/40/40
f 44/44/44 352/352/352 11/11/11
f 45/45/45 44/44/44 40/40/40
f 11/11/11 352/352/352 349/349/349
f 352/352/352 44/44/44 24/24/24 48/48/48
f 353/353/353 349/349/349 352/352/352
f 40/40/40 44/44/44 11/11/11
f 275/275/275 11/11/11 349/349/349
f 90/90/90 74/74/74 75/75/75
f 83/83/83 74/74/74 90/90/90
f 79/79/79 73/73/73 83/83/83
f 74/74/74 83/83/83 73/73/73
f 73/73/73 79/79/79 78/78/78
f 37/37/37 73/73/73 78/78/78
f 83/83/83 90/90/90 86/86/86
f 84/84/84 86/86/86 90/90/90
f 91/91/91 84/84/84 90/90/90
f 92/92/92 87/87/87 91/91/91
f 89/89/89 77/77/77 84/84/84
f 91/91/91 89/89/89 84/84/84
f 89/89/89 91/91/91 87/87/87
f 87/87/87 92/92/92 80/80/80
f 66/66/66 71/71/71 72/72/72
f 349/349/349 353/353/353 312/312/312
f 65/65/65 66/66/66 72/72/72
f 87/87/87 80/80/80 82/82/82
f 65/65/65 37/37/37 38/38/38
f 37/37/37 78/78/78 1/1/1
f 76/76/76 1/1/1 78/78/78
f 37/37/37 65/65/65 73/73/73
f 80/80/80 92/92/92 110/110/110
f 18/18/18 73/73/73 65/65/65
f 344/344/344 275/275/275 343/343/343
f 346/346/346 343/343/343 275/275/275
f 342/342/342 275/275/275 344/344/344
f 274/274/274 337/337/337 273/273/273
f 274/274/274 342/342/342 336/336/336
f 336/336/336 342/342/342 340/340/340 327/327/327
f 342/342/342 274/274/274 275/275/275
f 336/336/336 337/337/337 274/274/274
f 347/347/347 339/339/339 343/343/343
f 273/273/273 337/337/337 333/333/333
f 346/346/346 347/347/347 343/343/343
f 346/346/346 275/275/275 349/349/349
f 334/334/334 273/273/273 333/333/333
f 273/273/273 324/324/324 272/272/272
f 272/272/272 324/324/324 325/325/325
f 323/323/323 271/271/271 272/272/272
f 323/323/323 317/317/317 271/271/271
f 270/270/270 271/271/271 315/315/315
f 323/323/323 272/272/272 325/325/325
f 334/334/334 324/324/324 273/273/273
f 321/321/321 306/306/306 317/317/317 323/323/323
f 271/271/271 318/318/318 315/315/315
f 270/270/270 315/315/315 307/307/307
f 269/269/269 304/304/304 268/268/268
f 269/269/269 270/270/270 314/314/314
f 271/271/271 317/317/317 318/318/318
f 350/350/350 330/330/330 346/346/346
f 269/269/269 314/314/314 285/285/285
f 290/290/290 281/281/281 295/295/295
f 270/270/270 307/307/307 314/314/314
f 296/296/296 276/276/276 301/301/301
f 299/299/299 264/264/264 301/301/301
f 296/296/296 301/301/301 264/264/264
f 298/298/298 293/293/293 278/278/278
f 299/299/299 303/303/303 263/263/263
f 27/27/27 303/303/303 299/299/299
f 296/296/296 293/293/293 298/298/298
f 289/289/289 286/286/286 288/288/288
f 268/268/268 304/304/304 286/286/286
f 289/289/289 266/266/266 267/267/267
f 266/266/266 289/289/289 265/265/265
f 289/289/289 287/287/287 265/265/265
f 289/289/289 267/267/267 286/286/286
f 268/268/268 286/286/286 267/267/267
f 287/287/287 284/284/284 292/292/292
f 265/265/265 290/290/290 264/264/264
f 292/292/292 290/290/290 287/287/287
f 293/293/293 264/264/264 290/290/290
f 293/293/293 296/296/296 264/264/264
f 287/287/287 290/290/290 265/265/265
f 264/264/264 299/299/299 263/263/263
f 290/290/290 295/295/295 293/293/293
f 7/7/7 263/263/263 303/303/303 258/258/258
f 269/269/269 285/285/285 304/304/304
f 350/350/350 346/346/346 349/349/349
f 93/93/93 111/111/111 110/110/110
f 92/92/92 93/93/93 110/110/110
f 94/94/94 107/107/107 93/93/93
f 107/107/107 111/111/111 93/93/93
f 107/107/107 101/101/101 111/111/111
f 96/96/96 94/94/94 95/95/95
f 105/105/105 94/94/94 96/96/96
f 105/105/105 108/108/108 94/94/94
f 100/100/100 102/102/102 97/97/97
f 105/105/105 97/97/97 102/102/102
f 105/105/105 96/96/96 97/97/97
f 107/107/107 94/94/94 108/108/108
f 8/8/8 99/99/99 100/100/100
f 98/98/98 8/8/8 100/100/100
f 258/258/258 260/260/260 262/262/262 7/7/7
f 255/255/255 260/260/260 148/148/148
f 98/98/98 100/100/100 97/97/97
f 134/134/134 129/129/129 135/135/135
f 98/98/98 135/135/135 129/129/129
f 132/132/132 126/126/126 138/138/138
f 170/170/170 145/145/145 165/165/165 212/212/212
f 138/138/138 135/135/135 132/132/132
f 112/112/112 135/135/135 98/98/98
f 112/112/112 98/98/98 97/97/97
f 110/110/110 104/104/104 80/80/80
f 137/137/137 132/132/132 112/112/112
f 135/135/135 112/112/112 132/132/132
f 113/113/113 136/136/136 137/137/137
f 114/114/114 141/141/141 136/136/136
f 115/115/115 152/152/152 139/139/139
f 139/139/139 141/141/141 115/115/115
f 113/113/113 137/137/137 112/112/112
f 141/141/141 114/114/114 115/115/115
f 152/152/152 115/115/115 116/116/116
f 117/117/117 155/155/155 150/150/150
f 150/150/150 116/116/116 117/117/117
f 150/150/150 152/152/152 116/116/116
f 153/153/153 155/155/155 117/117/117
f 113/113/113 114/114/114 136/136/136
f 162/162/162 167/167/167 156/156/156
f 162/162/162 165/165/165 167/167/167
f 165/165/165 119/119/119 212/212/212
f 213/213/213 209/209/209 186/186/186
f 209/209/209 213/213/213 212/212/212
f 159/159/159 161/161/161 118/118/118
f 153/153/153 118/118/118 161/161/161
f 119/119/119 159/159/159 118/118/118
f 119/119/119 162/162/162 164/164/164
f 171/171/171 209/209/209 119/119/119
f 119/119/119 209/209/209 212/212/212
f 119/119/119 164/164/164 159/159/159
f 162/162/162 119/119/119 165/165/165
f 118/118/118 153/153/153 117/117/117
f 257/257/257 261/261/261 255/255/255
f 252/252/252 257/257/257 182/182/182
f 249/249/249 252/252/252 254/254/254
f 254/254/254 192/192/192 249/249/249
f 261/261/261 252/252/252 249/249/249
f 252/252/252 261/261/261 257/257/257
f 190/190/190 210/210/210 206/206/206
f 209/209/209 206/206/206 210/210/210
f 203/203/203 196/196/196 207/207/207
f 194/194/194 197/197/197 201/201/201 219/219/219
f 207/207/207 206/206/206 203/203/203
f 246/246/246 251/251/251 227/227/227
f 249/249/249 246/246/246 261/261/261
f 248/248/248 243/243/243 246/246/246
f 261/261/261 262/262/262 255/255/255
f 261/261/261 246/246/246 181/181/181
f 249/249/249 251/251/251 246/246/246
f 248/248/248 240/240/240 243/243/243
f 180/180/180 181/181/181 245/245/245
f 243/243/243 245/245/245 181/181/181
f 245/245/245 179/179/179 180/180/180
f 241/241/241 179/179/179 245/245/245
f 244/244/244 241/241/241 245/245/245
f 246/246/246 243/243/243 181/181/181
f 255/255/255 262/262/262 260/260/260
f 171/171/171 204/204/204 203/203/203
f 171/171/171 201/201/201 204/204/204
f 173/173/173 217/217/217 220/220/220
f 220/220/220 219/219/219 172/172/172
f 219/219/219 201/201/201 172/172/172
f 173/173/173 220/220/220 172/172/172
f 223/223/223 217/217/217 173/173/173
f 221/221/221 223/223/223 173/173/173
f 221/221/221 174/174/174 231/231/231
f 221/221/221 173/173/173 174/174/174
f 171/171/171 172/172/172 201/201/201
f 171/171/171 203/203/203 206/206/206
f 174/174/174 229/229/229 231/231/231
f 234/234/234 176/176/176 239/239/239
f 239/239/239 177/177/177 232/232/232
f 177/177/177 178/178/178 242/242/242
f 179/179/179 241/241/241 178/178/178
f 242/242/242 178/178/178 241/241/241
f 232/232/232 177/177/177 242/242/242
f 237/237/237 229/229/229 175/175/175
f 174/174/174 175/175/175 229/229/229
f 238/238/238 237/237/237 175/175/175
f 234/234/234 235/235/235 176/176/176
f 239/239/239 176/176/176 177/177/177
f 175/175/175 235/235/235 238/238/238
f 235/235/235 175/175/175 176/176/176
f 229/229/229 237/237/237 224/224/224 226/226/226
f 171/171/171 206/206/206 209/209/209
