# Rhino

mtllib 02打磨面.mtl
usemtl Default
v -2212.360595703125 745 506.18032836914062
v -2212.360595703125 805 506.18032836914062
v -2240 745 550.90167236328125
v -2240 805 550.90167236328125
v -2239.3759765625 805 543.02642822265625
v -2237.519287109375 805 535.34771728515625
v -2234.476318359375 805 528.057373046875
v -2230.322998046875 805 521.33721923828125
v -2225.1630859375 805 515.35516357421875
v -2219.12548828125 805 510.26046752929688
v -2240 775 550.90167236328125
v -2219.12548828125 745 510.26046752929688
v -2225.1630859375 745 515.35516357421875
v -2230.322998046875 745 521.33721923828125
v -2234.476318359375 745 528.057373046875
v -2237.519287109375 745 535.34771728515625
v -2239.3759765625 745 543.02642822265625
v -2212.360595703125 775 506.18032836914062
v -2240 805 620
v -2240 745 620
v -2240 805 550.90167236328125
v -2240 745 550.90167236328125
v -2240 775 550.90167236328125
v -2240 805 585.45086669921875
v -2240 760 620
v -2240 775 620
v -2240 790 620
v -2240 745 585.45086669921875
v -2240 745 620
v -2240 805 620
v -2239.577392578125 765 624.0899658203125
v -2239.577392578125 785 624.0899658203125
v -2238.3798828125 765 627.885498046875
v -2238.3798828125 785 627.885498046875
v -2236.490966796875 765 631.3157958984375
v -2236.490966796875 785 631.3157958984375
v -2234.001708984375 765 634.28106689453125
v -2234.001708984375 785 634.28106689453125
v -2230.988037109375 765 636.71124267578125
v -2230.988037109375 785 636.71124267578125
v -2227.562255859375 765 638.51513671875
v -2227.562255859375 785 638.51513671875
v -2223.853271484375 765 639.62530517578125
v -2223.853271484375 785 639.62530517578125
v -2220 745 640
v -2220 805 640
v -2240 790 620
v -2240 775 620
v -2240 760 620
v -2223.128662109375 805 639.7537841796875
v -2226.180419921875 805 639.0211181640625
v -2229.079833984375 805 637.82012939453125
v -2231.755615234375 805 636.18035888671875
v -2234.14208984375 805 634.14215087890625
v -2236.180419921875 805 631.75567626953125
v -2237.820068359375 805 629.079833984375
v -2239.021240234375 805 626.18035888671875
v -2239.753662109375 805 623.128662109375
v -2223.853271484375 795 639.62530517578125
v -2221.935791015625 785 639.9061279296875
v -2221.935791015625 795 639.9061279296875
v -2227.562255859375 795 638.51513671875
v -2225.73486328125 785 639.16015625
v -2225.73486328125 795 639.16015625
v -2230.988037109375 795 636.71124267578125
v -2229.31884765625 785 637.6962890625
v -2229.31884765625 795 637.6962890625
v -2234.001708984375 795 634.28106689453125
v -2232.5537109375 785 635.56927490234375
v -2232.5537109375 795 635.56927490234375
v -2236.490966796875 795 631.3157958984375
v -2235.318359375 785 632.85882568359375
v -2235.318359375 795 632.85882568359375
v -2238.3798828125 795 627.885498046875
v -2237.51953125 785 629.64703369140625
v -2237.51953125 795 629.64703369140625
v -2239.577392578125 795 624.0899658203125
v -2239.0732421875 785 626.017578125
v -2239.0732421875 795 626.017578125
v -2239.89404296875 785 622.05584716796875
v -2239.89404296875 795 622.05584716796875
v -2220 760 640
v -2220 775 640
v -2220 790 640
v -2239.753662109375 745 623.128662109375
v -2239.021240234375 745 626.18035888671875
v -2237.820068359375 745 629.079833984375
v -2236.180419921875 745 631.75567626953125
v -2234.14208984375 745 634.14215087890625
v -2231.755615234375 745 636.18035888671875
v -2229.079833984375 745 637.82012939453125
v -2226.180419921875 745 639.0211181640625
v -2223.128662109375 745 639.7537841796875
v -2239.577392578125 755 624.0899658203125
v -2239.89404296875 765 622.05584716796875
v -2239.89404296875 755 622.05584716796875
v -2238.3798828125 755 627.885498046875
v -2239.0732421875 765 626.017578125
v -2239.0732421875 755 626.017578125
v -2236.490966796875 755 631.3157958984375
v -2237.51953125 765 629.64703369140625
v -2237.51953125 755 629.64703369140625
v -2234.001708984375 755 634.28106689453125
v -2235.318359375 765 632.85882568359375
v -2235.318359375 755 632.85882568359375
v -2230.988037109375 755 636.71124267578125
v -2232.5537109375 765 635.56927490234375
v -2232.5537109375 755 635.56927490234375
v -2227.562255859375 755 638.51513671875
v -2229.31884765625 765 637.6962890625
v -2229.31884765625 755 637.6962890625
v -2223.853271484375 755 639.62530517578125
v -2225.73486328125 765 639.16015625
v -2225.73486328125 755 639.16015625
v -2221.935791015625 765 639.9061279296875
v -2221.935791015625 755 639.9061279296875
v -560 805 640
v -560 745 640
v -2220 805 640
v -2220 745 640
v -2220 790 640
v -2220 775 640
v -2220 760 640
v -2054 775 640
v -2137 775 640
v -2054 790 640
v -2137 790 640
v -2178.5 790 640
v -2137 797.5 640
v -2178.5 797.5 640
v -2178.5 775 640
v -2137 782.5 640
v -2178.5 782.5 640
v -2054 760 640
v -2137 760 640
v -2178.5 760 640
v -2137 767.5 640
v -2178.5 767.5 640
v -2137 752.5 640
v -2178.5 752.5 640
v -797.14288330078125 805 640
v -1034.2857666015625 805 640
v -1271.4285888671875 805 640
v -1508.5714111328125 805 640
v -1745.7142333984375 805 640
v -1982.857177734375 805 640
v -560 760 640
v -560 775 640
v -560 790 640
v -726 775 640
v -726 760 640
v -643 775 640
v -643 760 640
v -643 752.5 640
v -601.5 760 640
v -601.5 752.5 640
v -643 767.5 640
v -601.5 775 640
v -601.5 767.5 640
v -726 790 640
v -643 790 640
v -643 782.5 640
v -601.5 790 640
v -601.5 782.5 640
v -643 797.5 640
v -601.5 797.5 640
v -1982.857177734375 745 640
v -1745.7142333984375 745 640
v -1508.5714111328125 745 640
v -1271.4285888671875 745 640
v -1034.2857666015625 745 640
v -797.14288330078125 745 640
v -560 745 640
v -560 805 640
v -555.9100341796875 765 639.57733154296875
v -555.9100341796875 785 639.57733154296875
v -552.114501953125 765 638.37982177734375
v -552.114501953125 785 638.37982177734375
v -548.6842041015625 765 636.490966796875
v -548.6842041015625 785 636.490966796875
v -545.71893310546875 765 634.00177001953125
v -545.71893310546875 785 634.00177001953125
v -543.28875732421875 765 630.9879150390625
v -543.28875732421875 785 630.9879150390625
v -541.48486328125 765 627.56231689453125
v -541.48486328125 785 627.56231689453125
v -540.37469482421875 765 623.8533935546875
v -540.37469482421875 785 623.8533935546875
v -540 745 620
v -540 805 620
v -560 790 640
v -560 775 640
v -560 760 640
v -540.2462158203125 805 623.128662109375
v -540.9788818359375 805 626.18035888671875
v -542.17987060546875 805 629.079833984375
v -543.81964111328125 805 631.75567626953125
v -545.85784912109375 805 634.14215087890625
v -548.24432373046875 805 636.18035888671875
v -550.920166015625 805 637.82012939453125
v -553.81964111328125 805 639.0211181640625
v -556.871337890625 805 639.7537841796875
v -540.37469482421875 795 623.8533935546875
v -540.0938720703125 785 621.935791015625
v -540.0938720703125 795 621.935791015625
v -541.48486328125 795 627.56231689453125
v -540.83984375 785 625.73480224609375
v -540.83984375 795 625.73480224609375
v -543.28875732421875 795 630.9879150390625
v -542.3037109375 785 629.31890869140625
v -542.3037109375 795 629.31890869140625
v -545.71893310546875 795 634.00177001953125
v -544.43072509765625 785 632.5538330078125
v -544.43072509765625 795 632.5538330078125
v -548.6842041015625 795 636.490966796875
v -547.14117431640625 785 635.31829833984375
v -547.14117431640625 795 635.31829833984375
v -552.114501953125 795 638.37982177734375
v -550.35296630859375 785 637.51959228515625
v -550.35296630859375 795 637.51959228515625
v -555.9100341796875 795 639.57733154296875
v -553.982421875 785 639.0732421875
v -553.982421875 795 639.0732421875
v -557.94415283203125 785 639.89404296875
v -557.94415283203125 795 639.89404296875
v -540 760 620
v -540 775 620
v -540 790 620
v -556.871337890625 745 639.7537841796875
v -553.81964111328125 745 639.0211181640625
v -550.920166015625 745 637.82012939453125
v -548.24432373046875 745 636.18035888671875
v -545.85784912109375 745 634.14215087890625
v -543.81964111328125 745 631.75567626953125
v -542.17987060546875 745 629.079833984375
v -540.9788818359375 745 626.18035888671875
v -540.2462158203125 745 623.128662109375
v -555.9100341796875 755 639.57733154296875
v -557.94415283203125 765 639.89404296875
v -557.94415283203125 755 639.89404296875
v -552.114501953125 755 638.37982177734375
v -553.982421875 765 639.0732421875
v -553.982421875 755 639.0732421875
v -548.6842041015625 755 636.490966796875
v -550.35296630859375 765 637.51959228515625
v -550.35296630859375 755 637.51959228515625
v -545.71893310546875 755 634.00177001953125
v -547.14117431640625 765 635.31829833984375
v -547.14117431640625 755 635.31829833984375
v -543.28875732421875 755 630.9879150390625
v -544.43072509765625 765 632.5538330078125
v -544.43072509765625 755 632.5538330078125
v -541.48486328125 755 627.56231689453125
v -542.3037109375 765 629.31890869140625
v -542.3037109375 755 629.31890869140625
v -540.37469482421875 755 623.8533935546875
v -540.83984375 765 625.73480224609375
v -540.83984375 755 625.73480224609375
v -540.0938720703125 765 621.935791015625
v -540.0938720703125 755 621.935791015625
v -540 805 550.90167236328125
v -540 745 550.90167236328125
v -540 805 620
v -540 745 620
v -540 790 620
v -540 775 620
v -540 760 620
v -540 775 550.90167236328125
v -540 805 585.45086669921875
v -540 745 585.45086669921875
v -540 745 550.90167236328125
v -540 805 550.90167236328125
v -567.63934326171875 745 506.18032836914062
v -567.63934326171875 805 506.18032836914062
v -540 775 550.90167236328125
v -560.87457275390625 805 510.26046752929688
v -554.8369140625 805 515.35516357421875
v -549.677001953125 805 521.33721923828125
v -545.52374267578125 805 528.057373046875
v -542.48077392578125 805 535.34771728515625
v -540.62408447265625 805 543.02642822265625
v -567.63934326171875 775 506.18032836914062
v -540.62408447265625 745 543.02642822265625
v -542.48077392578125 745 535.34771728515625
v -545.52374267578125 745 528.057373046875
v -549.677001953125 745 521.33721923828125
v -554.8369140625 745 515.35516357421875
v -560.87457275390625 745 510.26046752929688
v -829.4427490234375 805 375.27862548828125
v -829.4427490234375 745 375.27862548828125
v -567.63934326171875 805 506.18032836914062
v -567.63934326171875 745 506.18032836914062
v -567.63934326171875 775 506.18032836914062
v -829.4427490234375 775 375.27862548828125
v -698.541015625 775 440.7294921875
v -633.09014892578125 775 473.45492553710938
v -698.541015625 790 440.7294921875
v -633.09014892578125 790 473.45492553710938
v -698.541015625 760 440.7294921875
v -633.09014892578125 760 473.45492553710938
v -763.99188232421875 775 408.00405883789062
v -763.99188232421875 760 408.00405883789062
v -763.99188232421875 790 408.00405883789062
v -698.541015625 745 440.7294921875
v -698.541015625 805 440.7294921875
v -829.4427490234375 745 375.27862548828125
v -829.4427490234375 805 375.27862548828125
v -851.80340576171875 805 370
v -829.4427490234375 775 375.27862548828125
v -844.106689453125 805 370.595947265625
v -836.5933837890625 805 372.36959838867188
v -851.80340576171875 745 370
v -851.80340576171875 775 370
v -836.5933837890625 745 372.36959838867188
v -844.106689453125 745 370.595947265625
v -1928.1966552734375 805 370
v -1928.1966552734375 745 370
v -851.80340576171875 805 370
v -851.80340576171875 745 370
v -851.80340576171875 775 370
v -1031.2022705078125 775 370
v -941.5028076171875 775 370
v -1031.2022705078125 790 370
v -941.5028076171875 790 370
v -1031.2022705078125 760 370
v -941.5028076171875 760 370
v -1659.0982666015625 805 370
v -1390 805 370
v -1120.9017333984375 805 370
v -1928.1966552734375 775 370
v -1748.7977294921875 775 370
v -1748.7977294921875 760 370
v -1838.4971923828125 775 370
v -1838.4971923828125 760 370
v -1748.7977294921875 790 370
v -1838.4971923828125 790 370
v -1120.9017333984375 745 370
v -1390 745 370
v -1659.0982666015625 745 370
v -1928.1966552734375 745 370
v -1928.1966552734375 805 370
v -1950.5572509765625 805 375.27862548828125
v -1928.1966552734375 775 370
v -1943.4066162109375 805 372.36959838867188
v -1935.893310546875 805 370.595947265625
v -1950.5572509765625 745 375.27862548828125
v -1950.5572509765625 775 375.27862548828125
v -1935.893310546875 745 370.595947265625
v -1943.4066162109375 745 372.36959838867188
v -2212.360595703125 805 506.18032836914062
v -2212.360595703125 745 506.18032836914062
v -1950.5572509765625 805 375.27862548828125
v -1950.5572509765625 745 375.27862548828125
v -2212.360595703125 775 506.18032836914062
v -1950.5572509765625 775 375.27862548828125
v -2081.458984375 775 440.7294921875
v -2081.458984375 760 440.7294921875
v -2146.909912109375 775 473.45492553710938
v -2146.909912109375 760 473.45492553710938
v -2081.458984375 790 440.7294921875
v -2146.909912109375 790 473.45492553710938
v -2016.0081787109375 775 408.00405883789062
v -2016.0081787109375 790 408.00405883789062
v -2016.0081787109375 760 408.00405883789062
v -2081.458984375 745 440.7294921875
v -2081.458984375 805 440.7294921875
vt 0.25856325030326843 0
vt 0.25856325030326843 0.036144576966762543
vt 0.29186373949050903 0
vt 0.29186373949050903 0.036144576966762543
vt 0.28710654377937317 0.036144576966762543
vt 0.28234931826591492 0.036144576966762543
vt 0.27759212255477905 0.036144576966762543
vt 0.2728348970413208 0.036144576966762543
vt 0.26807767152786255 0.036144576966762543
vt 0.26332047581672668 0.036144576966762543
vt 0.29186373949050903 0.018072288483381271
vt 0.26332047581672668 0
vt 0.26807767152786255 0
vt 0.2728348970413208 0
vt 0.27759212255477905 0
vt 0.28234931826591492 0
vt 0.28710654377937317 0
vt 0.25856325030326843 0.018072288483381271
vt 0.50771331787109375 0.19411300122737885
vt 0.47156873345375061 0.19411300122737885
vt 0.50771331787109375 0.23573848605155945
vt 0.47156873345375061 0.23573848605155945
vt 0.48964104056358337 0.23573848605155945
vt 0.50771331787109375 0.21492575109004974
vt 0.48060488700866699 0.19411300122737885
vt 0.48964104056358337 0.19411300122737885
vt 0.49867716431617737 0.19411300122737885
vt 0.47156873345375061 0.21492575109004974
vt 0.036144576966762543 0.17882066965103149
vt 0.036144576966762543 0.21496525406837463
vt 0.038618799299001694 0.19086886942386627
vt 0.038618799299001694 0.20291705429553986
vt 0.041013449430465698 0.19086886942386627
vt 0.041013449430465698 0.20291705429553986
vt 0.043369472026824951 0.19086886942386627
vt 0.043369472026824951 0.20291705429553986
vt 0.045698679983615875 0.19086886942386627
vt 0.045698679983615875 0.20291705429553986
vt 0.048027891665697098 0.19086886942386627
vt 0.048027891665697098 0.20291705429553986
vt 0.05035710334777832 0.19086886942386627
vt 0.05035710334777832 0.20291705429553986
vt 0.052686311304569244 0.19086886942386627
vt 0.052686311304569244 0.20291705429553986
vt 0.055015522986650467 0.17882066965103149
vt 0.055015522986650467 0.21496525406837463
vt 0.036144576966762543 0.20592910051345825
vt 0.036144576966762543 0.19689296185970306
vt 0.036144576966762543 0.18785682320594788
vt 0.053128428757190704 0.21496525406837463
vt 0.051241334527730942 0.21496525406837463
vt 0.049354240298271179 0.21496525406837463
vt 0.047467146068811417 0.21496525406837463
vt 0.045580051839351654 0.21496525406837463
vt 0.043692957609891891 0.21496525406837463
vt 0.041805863380432129 0.21496525406837463
vt 0.039918769150972366 0.21496525406837463
vt 0.038031671196222305 0.21496525406837463
vt 0.052686311304569244 0.20894114673137665
vt 0.053850919008255005 0.20291705429553986
vt 0.053850919008255005 0.20894114673137665
vt 0.05035710334777832 0.20894114673137665
vt 0.051521707326173782 0.20291705429553986
vt 0.051521707326173782 0.20894114673137665
vt 0.048027891665697098 0.20894114673137665
vt 0.04919249564409256 0.20291705429553986
vt 0.04919249564409256 0.20894114673137665
vt 0.045698679983615875 0.20894114673137665
vt 0.046863287687301636 0.20291705429553986
vt 0.046863287687301636 0.20894114673137665
vt 0.043369472026824951 0.20894114673137665
vt 0.044534076005220413 0.20291705429553986
vt 0.044534076005220413 0.20894114673137665
vt 0.041013449430465698 0.20894114673137665
vt 0.042191460728645325 0.20291705429553986
vt 0.042191460728645325 0.20894114673137665
vt 0.038618799299001694 0.20894114673137665
vt 0.039816126227378845 0.20291705429553986
vt 0.039816126227378845 0.20894114673137665
vt 0.037381689995527267 0.20291705429553986
vt 0.037381689995527267 0.20894114673137665
vt 0.055015522986650467 0.18785682320594788
vt 0.055015522986650467 0.19689296185970306
vt 0.055015522986650467 0.20592910051345825
vt 0.038031671196222305 0.17882066965103149
vt 0.039918769150972366 0.17882066965103149
vt 0.041805863380432129 0.17882066965103149
vt 0.043692957609891891 0.17882066965103149
vt 0.045580051839351654 0.17882066965103149
vt 0.047467146068811417 0.17882066965103149
vt 0.049354240298271179 0.17882066965103149
vt 0.051241334527730942 0.17882066965103149
vt 0.053128428757190704 0.17882066965103149
vt 0.038618799299001694 0.18484476208686829
vt 0.037381689995527267 0.19086886942386627
vt 0.037381689995527267 0.18484476208686829
vt 0.041013449430465698 0.18484476208686829
vt 0.039816126227378845 0.19086886942386627
vt 0.039816126227378845 0.18484476208686829
vt 0.043369472026824951 0.18484476208686829
vt 0.042191460728645325 0.19086886942386627
vt 0.042191460728645325 0.18484476208686829
vt 0.045698679983615875 0.18484476208686829
vt 0.044534076005220413 0.19086886942386627
vt 0.044534076005220413 0.18484476208686829
vt 0.048027891665697098 0.18484476208686829
vt 0.046863287687301636 0.19086886942386627
vt 0.046863287687301636 0.18484476208686829
vt 0.05035710334777832 0.18484476208686829
vt 0.04919249564409256 0.19086886942386627
vt 0.04919249564409256 0.18484476208686829
vt 0.052686311304569244 0.18484476208686829
vt 0.051521707326173782 0.19086886942386627
vt 0.051521707326173782 0.18484476208686829
vt 0.053850919008255005 0.19086886942386627
vt 0.053850919008255005 0.18484476208686829
vt 0.034679733216762543 0
vt 0 0
vt 0.034679733216762543 0.99853515625
vt 0 0.99853515625
vt 0.026009801775217056 0.99853515625
vt 0.017339866608381271 0.99853515625
vt 0.0086699333041906357 0.99853515625
vt 0.017339866608381271 0.898681640625
vt 0.017339866608381271 0.9486083984375
vt 0.026009801775217056 0.898681640625
vt 0.026009801775217056 0.9486083984375
vt 0.026009801775217056 0.97357177734375
vt 0.030344767495989799 0.9486083984375
vt 0.030344767495989799 0.97357177734375
vt 0.017339866608381271 0.97357177734375
vt 0.021674834191799164 0.9486083984375
vt 0.021674834191799164 0.97357177734375
vt 0.0086699333041906357 0.898681640625
vt 0.0086699333041906357 0.9486083984375
vt 0.0086699333041906357 0.97357177734375
vt 0.013004900887608528 0.9486083984375
vt 0.013004900887608528 0.97357177734375
vt 0.0043349666520953178 0.9486083984375
vt 0.0043349666520953178 0.97357177734375
vt 0.034679733216762543 0.14264789223670959
vt 0.034679733216762543 0.28529578447341919
vt 0.034679733216762543 0.4279436469078064
vt 0.034679733216762543 0.57059156894683838
vt 0.034679733216762543 0.71323943138122559
vt 0.034679733216762543 0.85588729381561279
vt 0.0086699333041906357 0
vt 0.017339866608381271 0
vt 0.026009801775217056 0
vt 0.017339866608381271 0.099853515625
vt 0.0086699333041906357 0.099853515625
vt 0.017339866608381271 0.0499267578125
vt 0.0086699333041906357 0.0499267578125
vt 0.0043349666520953178 0.0499267578125
vt 0.0086699333041906357 0.02496337890625
vt 0.0043349666520953178 0.02496337890625
vt 0.013004900887608528 0.0499267578125
vt 0.017339866608381271 0.02496337890625
vt 0.013004900887608528 0.02496337890625
vt 0.026009801775217056 0.099853515625
vt 0.026009801775217056 0.0499267578125
vt 0.021674834191799164 0.0499267578125
vt 0.026009801775217056 0.02496337890625
vt 0.021674834191799164 0.02496337890625
vt 0.030344767495989799 0.0499267578125
vt 0.030344767495989799 0.02496337890625
vt 0 0.85588729381561279
vt 0 0.71323943138122559
vt 0 0.57059156894683838
vt 0 0.4279436469078064
vt 0 0.28529578447341919
vt 0 0.14264789223670959
vt 0.14735391736030579 0.17882066965103149
vt 0.14735391736030579 0.21496525406837463
vt 0.14982813596725464 0.19086886942386627
vt 0.14982813596725464 0.20291705429553986
vt 0.15222278237342834 0.19086886942386627
vt 0.15222278237342834 0.20291705429553986
vt 0.1545788049697876 0.19086886942386627
vt 0.1545788049697876 0.20291705429553986
vt 0.15690802037715912 0.19086886942386627
vt 0.15690802037715912 0.20291705429553986
vt 0.15923723578453064 0.19086886942386627
vt 0.15923723578453064 0.20291705429553986
vt 0.16156643629074097 0.19086886942386627
vt 0.16156643629074097 0.20291705429553986
vt 0.16389565169811249 0.19086886942386627
vt 0.16389565169811249 0.20291705429553986
vt 0.16622486710548401 0.17882066965103149
vt 0.16622486710548401 0.21496525406837463
vt 0.14735391736030579 0.20592910051345825
vt 0.14735391736030579 0.19689296185970306
vt 0.14735391736030579 0.18785682320594788
vt 0.16433776915073395 0.21496525406837463
vt 0.16245067119598389 0.21496525406837463
vt 0.16056357324123383 0.21496525406837463
vt 0.15867649018764496 0.21496525406837463
vt 0.1567893922328949 0.21496525406837463
vt 0.15490229427814484 0.21496525406837463
vt 0.15301519632339478 0.21496525406837463
vt 0.15112811326980591 0.21496525406837463
vt 0.14924101531505585 0.21496525406837463
vt 0.16389565169811249 0.20894114673137665
vt 0.16506025195121765 0.20291705429553986
vt 0.16506025195121765 0.20894114673137665
vt 0.16156643629074097 0.20894114673137665
vt 0.16273105144500732 0.20291705429553986
vt 0.16273105144500732 0.20894114673137665
vt 0.15923723578453064 0.20894114673137665
vt 0.1604018360376358 0.20291705429553986
vt 0.1604018360376358 0.20894114673137665
vt 0.15690802037715912 0.20894114673137665
vt 0.15807262063026428 0.20291705429553986
vt 0.15807262063026428 0.20894114673137665
vt 0.1545788049697876 0.20894114673137665
vt 0.15574342012405396 0.20291705429553986
vt 0.15574342012405396 0.20894114673137665
vt 0.15222278237342834 0.20894114673137665
vt 0.15340079367160797 0.20291705429553986
vt 0.15340079367160797 0.20894114673137665
vt 0.14982813596725464 0.20894114673137665
vt 0.15102545917034149 0.20291705429553986
vt 0.15102545917034149 0.20894114673137665
vt 0.14859102666378021 0.20291705429553986
vt 0.14859102666378021 0.20894114673137665
vt 0.16622486710548401 0.18785682320594788
vt 0.16622486710548401 0.19689296185970306
vt 0.16622486710548401 0.20592910051345825
vt 0.14924101531505585 0.17882066965103149
vt 0.15112811326980591 0.17882066965103149
vt 0.15301519632339478 0.17882066965103149
vt 0.15490229427814484 0.17882066965103149
vt 0.1567893922328949 0.17882066965103149
vt 0.15867649018764496 0.17882066965103149
vt 0.16056357324123383 0.17882066965103149
vt 0.16245067119598389 0.17882066965103149
vt 0.16433776915073395 0.17882066965103149
vt 0.14982813596725464 0.18484476208686829
vt 0.14859102666378021 0.19086886942386627
vt 0.14859102666378021 0.18484476208686829
vt 0.15222278237342834 0.18484476208686829
vt 0.15102545917034149 0.19086886942386627
vt 0.15102545917034149 0.18484476208686829
vt 0.1545788049697876 0.18484476208686829
vt 0.15340079367160797 0.19086886942386627
vt 0.15340079367160797 0.18484476208686829
vt 0.15690802037715912 0.18484476208686829
vt 0.15574342012405396 0.19086886942386627
vt 0.15574342012405396 0.18484476208686829
vt 0.15923723578453064 0.18484476208686829
vt 0.15807262063026428 0.19086886942386627
vt 0.15807262063026428 0.18484476208686829
vt 0.16156643629074097 0.18484476208686829
vt 0.1604018360376358 0.19086886942386627
vt 0.1604018360376358 0.18484476208686829
vt 0.16389565169811249 0.18484476208686829
vt 0.16273105144500732 0.19086886942386627
vt 0.16273105144500732 0.18484476208686829
vt 0.16506025195121765 0.19086886942386627
vt 0.16506025195121765 0.18484476208686829
vt 0.29470783472061157 0.19411300122737885
vt 0.25856325030326843 0.19411300122737885
vt 0.29470783472061157 0.23573848605155945
vt 0.25856325030326843 0.23573848605155945
vt 0.28567168116569519 0.23573848605155945
vt 0.2766355574131012 0.23573848605155945
vt 0.26759940385818481 0.23573848605155945
vt 0.2766355574131012 0.19411300122737885
vt 0.29470783472061157 0.21492575109004974
vt 0.25856325030326843 0.21492575109004974
vt 0.47156873345375061 0
vt 0.47156873345375061 0.036144576966762543
vt 0.50486922264099121 0
vt 0.50486922264099121 0.036144576966762543
vt 0.47156873345375061 0.018072288483381271
vt 0.50011199712753296 0.036144576966762543
vt 0.49535480141639709 0.036144576966762543
vt 0.49059760570526123 0.036144576966762543
vt 0.48584038019180298 0.036144576966762543
vt 0.48108315467834473 0.036144576966762543
vt 0.47632595896720886 0.036144576966762543
vt 0.50486922264099121 0.018072288483381271
vt 0.47632595896720886 0
vt 0.48108315467834473 0
vt 0.48584038019180298 0
vt 0.49059760570526123 0
vt 0.49535480141639709 0
vt 0.50011199712753296 0
vt 0.036144576966762543 0.61177396774291992
vt 0.036144576966762543 0.64791858196258545
vt 0.21247294545173645 0.61177396774291992
vt 0.21247294545173645 0.64791858196258545
vt 0.21247294545173645 0.62984627485275269
vt 0.036144576966762543 0.62984627485275269
vt 0.12430876493453979 0.62984627485275269
vt 0.16839085519313812 0.62984627485275269
vt 0.12430876493453979 0.62081015110015869
vt 0.16839085519313812 0.62081015110015869
vt 0.12430876493453979 0.63888239860534668
vt 0.16839085519313812 0.63888239860534668
vt 0.080226674675941467 0.62984627485275269
vt 0.080226674675941467 0.63888239860534668
vt 0.080226674675941467 0.62081015110015869
vt 0.12430876493453979 0.64791858196258545
vt 0.12430876493453979 0.61177396774291992
vt 0.072289153933525085 0.089410334825515747
vt 0.036144576966762543 0.089410334825515747
vt 0.036144576966762543 0.1029411256313324
vt 0.054216869175434113 0.089410334825515747
vt 0.036144576966762543 0.09843086451292038
vt 0.036144576966762543 0.093920603394508362
vt 0.072289153933525085 0.1029411256313324
vt 0.054216869175434113 0.1029411256313324
vt 0.072289153933525085 0.093920603394508362
vt 0.072289153933525085 0.09843086451292038
vt 0.036144576966762543 0.80588698387145996
vt 0.036144576966762543 0.84203159809112549
vt 0.68310940265655518 0.80588698387145996
vt 0.68310940265655518 0.84203159809112549
vt 0.68310940265655518 0.82395929098129272
vt 0.57528191804885864 0.82395929098129272
vt 0.62919563055038452 0.82395929098129272
vt 0.57528191804885864 0.81492316722869873
vt 0.62919563055038452 0.81492316722869873
vt 0.57528191804885864 0.83299541473388672
vt 0.62919563055038452 0.83299541473388672
vt 0.19788578152656555 0.80588698387145996
vt 0.35962697863578796 0.80588698387145996
vt 0.52136814594268799 0.80588698387145996
vt 0.036144576966762543 0.82395929098129272
vt 0.14397205412387848 0.82395929098129272
vt 0.14397205412387848 0.83299541473388672
vt 0.090058311820030212 0.82395929098129272
vt 0.090058311820030212 0.83299541473388672
vt 0.14397205412387848 0.81492316722869873
vt 0.090058311820030212 0.81492316722869873
vt 0.52136814594268799 0.84203159809112549
vt 0.35962697863578796 0.84203159809112549
vt 0.19788578152656555 0.84203159809112549
vt 0.072289153933525085 0
vt 0.036144576966762543 0
vt 0.036144576966762543 0.013530793599784374
vt 0.054216869175434113 0
vt 0.036144576966762543 0.009020528756082058
vt 0.036144576966762543 0.004510264378041029
vt 0.072289153933525085 0.013530793599784374
vt 0.054216869175434113 0.013530793599784374
vt 0.072289153933525085 0.004510264378041029
vt 0.072289153933525085 0.009020528756082058
vt 0.036144576966762543 0.41766098141670227
vt 0.036144576966762543 0.45380556583404541
vt 0.21247294545173645 0.41766098141670227
vt 0.21247294545173645 0.45380556583404541
vt 0.036144576966762543 0.43573328852653503
vt 0.21247294545173645 0.43573328852653503
vt 0.12430876493453979 0.43573328852653503
vt 0.12430876493453979 0.44476941227912903
vt 0.080226674675941467 0.43573328852653503
vt 0.080226674675941467 0.44476941227912903
vt 0.12430876493453979 0.42669713497161865
vt 0.080226674675941467 0.42669713497161865
vt 0.16839085519313812 0.43573328852653503
vt 0.16839085519313812 0.42669713497161865
vt 0.16839085519313812 0.44476941227912903
vt 0.12430876493453979 0.45380556583404541
vt 0.12430876493453979 0.41766098141670227
vn -0.44721359014511108 0 -0.89442718029022217
vn -0.44721359014511108 0 -0.89442718029022217
vn -1 0 0
vn -1 0 0
vn -0.98751813173294067 0 -0.15750549733638763
vn -0.95038402080535889 0 -0.31107905507087708
vn -0.88952481746673584 0 -0.456886887550354
vn -0.80645966529846191 0 -0.59128910303115845
vn -0.70326220989227295 0 -0.71093052625656128
vn -0.58250874280929565 0 -0.81282442808151245
vn -1 0 0
vn -0.58250874280929565 0 -0.81282442808151245
vn -0.70326220989227295 0 -0.71093052625656128
vn -0.80645966529846191 0 -0.59128910303115845
vn -0.88952481746673584 0 -0.456886887550354
vn -0.95038402080535889 0 -0.31107905507087708
vn -0.98751813173294067 0 -0.15750549733638763
vn -0.44721359014511108 0 -0.89442718029022217
vn -1 0 0
vn -1 0 0
vn -1 0 0
vn -1 0 0
vn -1 0 0
vn -1 0 0
vn -1 0 0
vn -1 0 0
vn -1 0 0
vn -1 0 0
vn -1 0 0
vn -1 0 0
vn -0.97886687517166138 0 0.20449861884117126
vn -0.97886687517166138 0 0.20449861884117126
vn -0.91899228096008301 0 0.39427557587623596
vn -0.91899228096008301 0 0.39427557587623596
vn -0.82454878091812134 0 0.56579083204269409
vn -0.82454878091812134 0 0.56579083204269409
vn -0.70008993148803711 0 0.71405470371246338
vn -0.70008993148803711 0 0.71405470371246338
vn -0.54939717054367065 0 0.83556133508682251
vn -0.54939717054367065 0 0.83556133508682251
vn -0.37811726331710815 0 0.92575770616531372
vn -0.37811726331710815 0 0.92575770616531372
vn -0.19266848266124725 0 0.98126393556594849
vn -0.19266848266124725 0 0.98126393556594849
vn 0 0 1
vn 0 0 1
vn -1 0 0
vn -1 0 0
vn -1 0 0
vn -0.15643446147441864 0 0.98768836259841919
vn -0.30901700258255005 0 0.95105654001235962
vn -0.45399048924446106 0 0.89100652933120728
vn -0.58778524398803711 0 0.80901700258255005
vn -0.70710676908493042 0 0.70710676908493042
vn -0.80901700258255005 0 0.58778524398803711
vn -0.89100652933120728 0 0.45399048924446106
vn -0.95105654001235962 0 0.30901700258255005
vn -0.98768836259841919 0 0.15643446147441864
vn -0.19266848266124725 0 0.98126393556594849
vn -0.096788667142391205 0 0.99530494213104248
vn -0.096788667142391205 0 0.99530494213104248
vn -0.37811726331710815 0 0.92575770616531372
vn -0.28673911094665527 0 0.95800870656967163
vn -0.28673911094665527 0 0.95800870656967163
vn -0.54939717054367065 0 0.83556133508682251
vn -0.46594482660293579 0 0.88481378555297852
vn -0.46594482660293579 0 0.88481378555297852
vn -0.70008993148803711 0 0.71405470371246338
vn -0.62769055366516113 0 0.77846294641494751
vn -0.62769055366516113 0 0.77846294641494751
vn -0.82454878091812134 0 0.56579083204269409
vn -0.7659153938293457 0 0.64294141530990601
vn -0.7659153938293457 0 0.64294141530990601
vn -0.91899228096008301 0 0.39427557587623596
vn -0.87597846984863281 0 0.48235026001930237
vn -0.87597846984863281 0 0.48235026001930237
vn -0.97886687517166138 0 0.20449861884117126
vn -0.95366197824478149 0 0.30088016390800476
vn -0.95366197824478149 0 0.30088016390800476
vn -0.99470269680023193 0 0.10279384255409241
vn -0.99470269680023193 0 0.10279384255409241
vn 0 0 1
vn 0 0 1
vn 0 0 1
vn -0.98768836259841919 0 0.15643446147441864
vn -0.95105654001235962 0 0.30901700258255005
vn -0.89100652933120728 0 0.45399048924446106
vn -0.80901700258255005 0 0.58778524398803711
vn -0.70710676908493042 0 0.70710676908493042
vn -0.58778524398803711 0 0.80901700258255005
vn -0.45399048924446106 0 0.89100652933120728
vn -0.30901700258255005 0 0.95105654001235962
vn -0.15643446147441864 0 0.98768836259841919
vn -0.97886687517166138 0 0.20449861884117126
vn -0.99470269680023193 0 0.10279384255409241
vn -0.99470269680023193 0 0.10279384255409241
vn -0.91899228096008301 0 0.39427557587623596
vn -0.95366197824478149 0 0.30088016390800476
vn -0.95366197824478149 0 0.30088016390800476
vn -0.82454878091812134 0 0.56579083204269409
vn -0.87597846984863281 0 0.48235026001930237
vn -0.87597846984863281 0 0.48235026001930237
vn -0.70008993148803711 0 0.71405470371246338
vn -0.7659153938293457 0 0.64294141530990601
vn -0.7659153938293457 0 0.64294141530990601
vn -0.54939717054367065 0 0.83556133508682251
vn -0.62769055366516113 0 0.77846294641494751
vn -0.62769055366516113 0 0.77846294641494751
vn -0.37811726331710815 0 0.92575770616531372
vn -0.46594482660293579 0 0.88481378555297852
vn -0.46594482660293579 0 0.88481378555297852
vn -0.19266848266124725 0 0.98126393556594849
vn -0.28673911094665527 0 0.95800870656967163
vn -0.28673911094665527 0 0.95800870656967163
vn -0.096788667142391205 0 0.99530494213104248
vn -0.096788667142391205 0 0.99530494213104248
vn 0 0 1
vn 0 0 1
vn 0 0 1
vn 0 0 1
vn 0 0 1
vn 0 0 1
vn 0 0 1
vn 0 0 1
vn 0 0 1
vn 0 0 1
vn 0 0 1
vn 0 0 1
vn 0 0 1
vn 0 0 1
vn 0 0 1
vn 0 0 1
vn 0 0 1
vn 0 0 1
vn 0 0 1
vn 0 0 1
vn 0 0 1
vn 0 0 1
vn 0 0 1
vn 0 0 1
vn 0 0 1
vn 0 0 1
vn 0 0 1
vn 0 0 1
vn 0 0 1
vn 0 0 1
vn 0 0 1
vn 0 0 1
vn 0 0 1
vn 0 0 1
vn 0 0 1
vn 0 0 1
vn 0 0 1
vn 0 0 1
vn 0 0 1
vn 0 0 1
vn 0 0 1
vn 0 0 1
vn 0 0 1
vn 0 0 1
vn 0 0 1
vn 0 0 1
vn 0 0 1
vn 0 0 1
vn 0 0 1
vn 0 0 1
vn 0 0 1
vn 0 0 1
vn 0 0 1
vn 0 0 1
vn 0 0 1
vn 0 0 1
vn 0 0 1
vn 0 0 1
vn 0.20449861884117126 0 0.97886687517166138
vn 0.20449861884117126 0 0.97886687517166138
vn 0.39427557587623596 0 0.91899228096008301
vn 0.39427557587623596 0 0.91899228096008301
vn 0.56579083204269409 0 0.82454878091812134
vn 0.56579083204269409 0 0.82454878091812134
vn 0.71405470371246338 0 0.70008993148803711
vn 0.71405470371246338 0 0.70008993148803711
vn 0.83556133508682251 0 0.54939717054367065
vn 0.83556133508682251 0 0.54939717054367065
vn 0.92575770616531372 0 0.37811726331710815
vn 0.92575770616531372 0 0.37811726331710815
vn 0.98126393556594849 0 0.19266848266124725
vn 0.98126393556594849 0 0.19266848266124725
vn 1 0 0
vn 1 0 0
vn 0 0 1
vn 0 0 1
vn 0 0 1
vn 0.98768836259841919 0 0.15643446147441864
vn 0.95105654001235962 0 0.30901700258255005
vn 0.89100652933120728 0 0.45399048924446106
vn 0.80901700258255005 0 0.58778524398803711
vn 0.70710676908493042 0 0.70710676908493042
vn 0.58778524398803711 0 0.80901700258255005
vn 0.45399048924446106 0 0.89100652933120728
vn 0.30901700258255005 0 0.95105654001235962
vn 0.15643446147441864 0 0.98768836259841919
vn 0.98126393556594849 0 0.19266848266124725
vn 0.99530494213104248 0 0.096788667142391205
vn 0.99530494213104248 0 0.096788667142391205
vn 0.92575770616531372 0 0.37811726331710815
vn 0.95800870656967163 0 0.28673911094665527
vn 0.95800870656967163 0 0.28673911094665527
vn 0.83556133508682251 0 0.54939717054367065
vn 0.88481378555297852 0 0.46594482660293579
vn 0.88481378555297852 0 0.46594482660293579
vn 0.71405470371246338 0 0.70008993148803711
vn 0.77846294641494751 0 0.62769055366516113
vn 0.77846294641494751 0 0.62769055366516113
vn 0.56579083204269409 0 0.82454878091812134
vn 0.64294141530990601 0 0.7659153938293457
vn 0.64294141530990601 0 0.7659153938293457
vn 0.39427557587623596 0 0.91899228096008301
vn 0.48235026001930237 0 0.87597846984863281
vn 0.48235026001930237 0 0.87597846984863281
vn 0.20449861884117126 0 0.97886687517166138
vn 0.30088016390800476 0 0.95366197824478149
vn 0.30088016390800476 0 0.95366197824478149
vn 0.10279384255409241 0 0.99470269680023193
vn 0.10279384255409241 0 0.99470269680023193
vn 1 0 0
vn 1 0 0
vn 1 0 0
vn 0.15643446147441864 0 0.98768836259841919
vn 0.30901700258255005 0 0.95105654001235962
vn 0.45399048924446106 0 0.89100652933120728
vn 0.58778524398803711 0 0.80901700258255005
vn 0.70710676908493042 0 0.70710676908493042
vn 0.80901700258255005 0 0.58778524398803711
vn 0.89100652933120728 0 0.45399048924446106
vn 0.95105654001235962 0 0.30901700258255005
vn 0.98768836259841919 0 0.15643446147441864
vn 0.20449861884117126 0 0.97886687517166138
vn 0.10279384255409241 0 0.99470269680023193
vn 0.10279384255409241 0 0.99470269680023193
vn 0.39427557587623596 0 0.91899228096008301
vn 0.30088016390800476 0 0.95366197824478149
vn 0.30088016390800476 0 0.95366197824478149
vn 0.56579083204269409 0 0.82454878091812134
vn 0.48235026001930237 0 0.87597846984863281
vn 0.48235026001930237 0 0.87597846984863281
vn 0.71405470371246338 0 0.70008993148803711
vn 0.64294141530990601 0 0.7659153938293457
vn 0.64294141530990601 0 0.7659153938293457
vn 0.83556133508682251 0 0.54939717054367065
vn 0.77846294641494751 0 0.62769055366516113
vn 0.77846294641494751 0 0.62769055366516113
vn 0.92575770616531372 0 0.37811726331710815
vn 0.88481378555297852 0 0.46594482660293579
vn 0.88481378555297852 0 0.46594482660293579
vn 0.98126393556594849 0 0.19266848266124725
vn 0.95800870656967163 0 0.28673911094665527
vn 0.95800870656967163 0 0.28673911094665527
vn 0.99530494213104248 0 0.096788667142391205
vn 0.99530494213104248 0 0.096788667142391205
vn 1 0 0
vn 1 0 0
vn 1 0 0
vn 1 0 0
vn 1 0 0
vn 1 0 0
vn 1 0 0
vn 1 0 0
vn 1 0 0
vn 1 0 0
vn 1 0 0
vn 1 0 0
vn 0.44721359014511108 0 -0.89442718029022217
vn 0.44721359014511108 0 -0.89442718029022217
vn 1 0 0
vn 0.58250874280929565 0 -0.81282442808151245
vn 0.70326220989227295 0 -0.71093052625656128
vn 0.80645966529846191 0 -0.59128910303115845
vn 0.88952481746673584 0 -0.456886887550354
vn 0.95038402080535889 0 -0.31107905507087708
vn 0.98751813173294067 0 -0.15750549733638763
vn 0.44721359014511108 0 -0.89442718029022217
vn 0.98751813173294067 0 -0.15750549733638763
vn 0.95038402080535889 0 -0.31107905507087708
vn 0.88952481746673584 0 -0.456886887550354
vn 0.80645966529846191 0 -0.59128910303115845
vn 0.70326220989227295 0 -0.71093052625656128
vn 0.58250874280929565 0 -0.81282442808151245
vn 0.44721359014511108 0 -0.89442718029022217
vn 0.44721359014511108 0 -0.89442718029022217
vn 0.44721359014511108 0 -0.89442718029022217
vn 0.44721359014511108 0 -0.89442718029022217
vn 0.44721359014511108 0 -0.89442718029022217
vn 0.44721359014511108 0 -0.89442718029022217
vn 0.44721359014511108 0 -0.89442718029022217
vn 0.44721359014511108 0 -0.89442718029022217
vn 0.44721359014511108 0 -0.89442718029022217
vn 0.44721359014511108 0 -0.89442718029022217
vn 0.44721359014511108 0 -0.89442718029022217
vn 0.44721359014511108 0 -0.89442718029022217
vn 0.44721359014511108 0 -0.89442718029022217
vn 0.44721359014511108 0 -0.89442718029022217
vn 0.44721359014511108 0 -0.89442718029022217
vn 0.44721359014511108 0 -0.89442718029022217
vn 0.44721359014511108 0 -0.89442718029022217
vn 0.44721359014511108 0 -0.89442718029022217
vn 0.44721359014511108 0 -0.89442718029022217
vn 0 0 -1
vn 0.44721359014511108 0 -0.89442718029022217
vn 0.15393468737602234 0 -0.98808103799819946
vn 0.30419990420341492 0 -0.95260822772979736
vn 0 0 -1
vn 0 0 -1
vn 0.30419990420341492 0 -0.95260822772979736
vn 0.15393468737602234 0 -0.98808103799819946
vn 0 0 -1
vn 0 0 -1
vn 0 0 -1
vn 0 0 -1
vn 0 0 -1
vn 0 0 -1
vn 0 0 -1
vn 0 0 -1
vn 0 0 -1
vn 0 0 -1
vn 0 0 -1
vn 0 0 -1
vn 0 0 -1
vn 0 0 -1
vn 0 0 -1
vn 0 0 -1
vn 0 0 -1
vn 0 0 -1
vn 0 0 -1
vn 0 0 -1
vn 0 0 -1
vn 0 0 -1
vn 0 0 -1
vn 0 0 -1
vn 0 0 -1
vn 0 0 -1
vn -0.44721359014511108 0 -0.89442718029022217
vn 0 0 -1
vn -0.30419990420341492 0 -0.95260822772979736
vn -0.15393468737602234 0 -0.98808103799819946
vn -0.44721359014511108 0 -0.89442718029022217
vn -0.44721359014511108 0 -0.89442718029022217
vn -0.15393468737602234 0 -0.98808103799819946
vn -0.30419990420341492 0 -0.95260822772979736
vn -0.44721359014511108 0 -0.89442718029022217
vn -0.44721359014511108 0 -0.89442718029022217
vn -0.44721359014511108 0 -0.89442718029022217
vn -0.44721359014511108 0 -0.89442718029022217
vn -0.44721359014511108 0 -0.89442718029022217
vn -0.44721359014511108 0 -0.89442718029022217
vn -0.44721359014511108 0 -0.89442718029022217
vn -0.44721359014511108 0 -0.89442718029022217
vn -0.44721359014511108 0 -0.89442718029022217
vn -0.44721359014511108 0 -0.89442718029022217
vn -0.44721359014511108 0 -0.89442718029022217
vn -0.44721359014511108 0 -0.89442718029022217
vn -0.44721359014511108 0 -0.89442718029022217
vn -0.44721359014511108 0 -0.89442718029022217
vn -0.44721359014511108 0 -0.89442718029022217
vn -0.44721359014511108 0 -0.89442718029022217
vn -0.44721359014511108 0 -0.89442718029022217
f 18/18/18 1/1/1 12/12/12
f 13/13/13 14/14/14 8/8/8 9/9/9
f 12/12/12 13/13/13 9/9/9 10/10/10
f 10/10/10 2/2/2 18/18/18
f 12/12/12 10/10/10 18/18/18
f 7/7/7 8/8/8 14/14/14 15/15/15
f 15/15/15 16/16/16 6/6/6 7/7/7
f 11/11/11 17/17/17 3/3/3
f 16/16/16 17/17/17 5/5/5 6/6/6
f 4/4/4 5/5/5 11/11/11
f 17/17/17 11/11/11 5/5/5
f 24/24/24 27/27/27 19/19/19
f 28/28/28 25/25/25 26/26/26
f 28/28/28 20/20/20 25/25/25
f 26/26/26 27/27/27 24/24/24
f 23/23/23 24/24/24 21/21/21
f 22/22/22 28/28/28 23/23/23
f 23/23/23 28/28/28 26/26/26
f 24/24/24 23/23/23 26/26/26
f 31/31/31 95/95/95 96/96/96 94/94/94
f 77/77/77 81/81/81 80/80/80 32/32/32
f 33/33/33 98/98/98 99/99/99 97/97/97
f 98/98/98 31/31/31 94/94/94 99/99/99
f 78/78/78 32/32/32 31/31/31 98/98/98
f 98/98/98 33/33/33 34/34/34 78/78/78
f 79/79/79 77/77/77 32/32/32 78/78/78
f 74/74/74 79/79/79 78/78/78 34/34/34
f 35/35/35 101/101/101 102/102/102 100/100/100
f 101/101/101 33/33/33 97/97/97 102/102/102
f 75/75/75 34/34/34 33/33/33 101/101/101
f 101/101/101 35/35/35 36/36/36 75/75/75
f 76/76/76 74/74/74 34/34/34 75/75/75
f 71/71/71 76/76/76 75/75/75 36/36/36
f 37/37/37 104/104/104 105/105/105 103/103/103
f 104/104/104 35/35/35 100/100/100 105/105/105
f 72/72/72 36/36/36 35/35/35 104/104/104
f 104/104/104 37/37/37 38/38/38 72/72/72
f 73/73/73 71/71/71 36/36/36 72/72/72
f 68/68/68 73/73/73 72/72/72 38/38/38
f 39/39/39 107/107/107 108/108/108 106/106/106
f 107/107/107 37/37/37 103/103/103 108/108/108
f 69/69/69 38/38/38 37/37/37 107/107/107
f 107/107/107 39/39/39 40/40/40 69/69/69
f 70/70/70 68/68/68 38/38/38 69/69/69
f 65/65/65 70/70/70 69/69/69 40/40/40
f 41/41/41 110/110/110 111/111/111 109/109/109
f 110/110/110 39/39/39 106/106/106 111/111/111
f 66/66/66 40/40/40 39/39/39 110/110/110
f 110/110/110 41/41/41 42/42/42 66/66/66
f 67/67/67 65/65/65 40/40/40 66/66/66
f 62/62/62 67/67/67 66/66/66 42/42/42
f 43/43/43 113/113/113 114/114/114 112/112/112
f 113/113/113 41/41/41 109/109/109 114/114/114
f 63/63/63 42/42/42 41/41/41 113/113/113
f 113/113/113 43/43/43 44/44/44 63/63/63
f 64/64/64 62/62/62 42/42/42 63/63/63
f 59/59/59 64/64/64 63/63/63 44/44/44
f 115/115/115 43/43/43 112/112/112 116/116/116
f 61/61/61 59/59/59 44/44/44 60/60/60
f 49/49/49 29/29/29 96/96/96
f 85/85/85 96/96/96 29/29/29
f 96/96/96 85/85/85 94/94/94
f 99/99/99 94/94/94 85/85/85 86/86/86
f 48/48/48 49/49/49 95/95/95
f 95/95/95 49/49/49 96/96/96
f 31/31/31 32/32/32 80/80/80 95/95/95
f 86/86/86 87/87/87 97/97/97 99/99/99
f 88/88/88 89/89/89 103/103/103 105/105/105
f 87/87/87 88/88/88 100/100/100 102/102/102
f 87/87/87 102/102/102 97/97/97
f 88/88/88 105/105/105 100/100/100
f 80/80/80 47/47/47 48/48/48
f 81/81/81 47/47/47 80/80/80
f 95/95/95 80/80/80 48/48/48
f 58/58/58 30/30/30 81/81/81
f 47/47/47 81/81/81 30/30/30
f 57/57/57 58/58/58 77/77/77 79/79/79
f 81/81/81 77/77/77 58/58/58
f 57/57/57 79/79/79 74/74/74
f 76/76/76 71/71/71 55/55/55 56/56/56
f 56/56/56 74/74/74 76/76/76
f 56/56/56 57/57/57 74/74/74
f 54/54/54 55/55/55 73/73/73 68/68/68
f 71/71/71 73/73/73 55/55/55
f 108/108/108 103/103/103 89/89/89
f 90/90/90 108/108/108 89/89/89
f 90/90/90 91/91/91 111/111/111 106/106/106
f 91/91/91 92/92/92 109/109/109 111/111/111
f 90/90/90 106/106/106 108/108/108
f 109/109/109 92/92/92 114/114/114
f 112/112/112 114/114/114 92/92/92 93/93/93
f 116/116/116 112/112/112 93/93/93
f 45/45/45 116/116/116 93/93/93
f 83/83/83 115/115/115 82/82/82
f 116/116/116 82/82/82 115/115/115
f 82/82/82 116/116/116 45/45/45
f 115/115/115 60/60/60 44/44/44 43/43/43
f 53/53/53 54/54/54 68/68/68 70/70/70
f 65/65/65 67/67/67 52/52/52 53/53/53
f 53/53/53 70/70/70 65/65/65
f 51/51/51 52/52/52 67/67/67 62/62/62
f 64/64/64 51/51/51 62/62/62
f 60/60/60 83/83/83 84/84/84
f 84/84/84 61/61/61 60/60/60
f 50/50/50 51/51/51 64/64/64 59/59/59
f 46/46/46 50/50/50 61/61/61
f 59/59/59 61/61/61 50/50/50
f 84/84/84 46/46/46 61/61/61
f 83/83/83 60/60/60 115/115/115
f 154/154/154 156/156/156 155/155/155 153/153/153
f 153/153/153 155/155/155 159/159/159 157/157/157
f 157/157/157 159/159/159 158/158/158 152/152/152
f 157/157/157 152/152/152 150/150/150
f 151/151/151 153/153/153 157/157/157
f 150/150/150 151/151/151 157/157/157
f 162/162/162 161/161/161 160/160/160
f 150/150/150 152/152/152 162/162/162
f 160/160/160 150/150/150 162/162/162
f 152/152/152 158/158/158 164/164/164 162/162/162
f 162/162/162 164/164/164 163/163/163 161/161/161
f 161/161/161 163/163/163 166/166/166 165/165/165
f 140/140/140 139/139/139 135/135/135 136/136/136
f 137/137/137 135/135/135 134/134/134
f 124/124/124 125/125/125 137/137/137
f 134/134/134 124/124/124 137/137/137
f 136/136/136 135/135/135 137/137/137 138/138/138
f 138/138/138 137/137/137 125/125/125 131/131/131
f 131/131/131 125/125/125 132/132/132 133/133/133
f 133/133/133 132/132/132 127/127/127 128/128/128
f 132/132/132 125/125/125 124/124/124
f 126/126/126 127/127/127 132/132/132
f 124/124/124 126/126/126 132/132/132
f 128/128/128 127/127/127 129/129/129 130/130/130
f 149/149/149 117/117/117 166/166/166
f 165/165/165 166/166/166 117/117/117
f 163/163/163 149/149/149 166/166/166
f 148/148/148 149/149/149 164/164/164
f 163/163/163 164/164/164 149/149/149
f 164/164/164 158/158/158 148/148/148
f 150/150/150 160/160/160 141/141/141
f 142/142/142 150/150/150 141/141/141
f 161/161/161 165/165/165 160/160/160
f 141/141/141 160/160/160 165/165/165
f 117/117/117 141/141/141 165/165/165
f 142/142/142 143/143/143 170/170/170 171/171/171
f 147/147/147 148/148/148 158/158/158 159/159/159
f 155/155/155 147/147/147 159/159/159
f 118/118/118 147/147/147 156/156/156
f 155/155/155 156/156/156 147/147/147
f 154/154/154 118/118/118 156/156/156
f 172/172/172 151/151/151 150/150/150
f 154/154/154 153/153/153 151/151/151
f 118/118/118 154/154/154 172/172/172
f 172/172/172 154/154/154 151/151/151
f 171/171/171 172/172/172 150/150/150
f 150/150/150 142/142/142 171/171/171
f 170/170/170 143/143/143 144/144/144 169/169/169
f 144/144/144 145/145/145 168/168/168 169/169/169
f 124/124/124 145/145/145 146/146/146
f 146/146/146 129/129/129 126/126/126
f 129/129/129 127/127/127 126/126/126
f 146/146/146 126/126/126 124/124/124
f 129/129/129 146/146/146 119/119/119
f 124/124/124 168/168/168 145/145/145
f 129/129/129 119/119/119 130/130/130
f 121/121/121 130/130/130 119/119/119
f 133/133/133 128/128/128 121/121/121
f 130/130/130 121/121/121 128/128/128
f 122/122/122 133/133/133 121/121/121
f 139/139/139 134/134/134 135/135/135
f 167/167/167 134/134/134 139/139/139
f 167/167/167 124/124/124 134/134/134
f 167/167/167 168/168/168 124/124/124
f 167/167/167 139/139/139 120/120/120
f 138/138/138 131/131/131 122/122/122
f 133/133/133 122/122/122 131/131/131
f 123/123/123 138/138/138 122/122/122
f 123/123/123 140/140/140 136/136/136
f 140/140/140 123/123/123 120/120/120
f 123/123/123 136/136/136 138/138/138
f 139/139/139 140/140/140 120/120/120
f 175/175/175 239/239/239 240/240/240 238/238/238
f 221/221/221 225/225/225 224/224/224 176/176/176
f 177/177/177 242/242/242 243/243/243 241/241/241
f 242/242/242 175/175/175 238/238/238 243/243/243
f 222/222/222 176/176/176 175/175/175 242/242/242
f 242/242/242 177/177/177 178/178/178 222/222/222
f 223/223/223 221/221/221 176/176/176 222/222/222
f 218/218/218 223/223/223 222/222/222 178/178/178
f 179/179/179 245/245/245 246/246/246 244/244/244
f 245/245/245 177/177/177 241/241/241 246/246/246
f 219/219/219 178/178/178 177/177/177 245/245/245
f 245/245/245 179/179/179 180/180/180 219/219/219
f 220/220/220 218/218/218 178/178/178 219/219/219
f 215/215/215 220/220/220 219/219/219 180/180/180
f 181/181/181 248/248/248 249/249/249 247/247/247
f 248/248/248 179/179/179 244/244/244 249/249/249
f 216/216/216 180/180/180 179/179/179 248/248/248
f 248/248/248 181/181/181 182/182/182 216/216/216
f 217/217/217 215/215/215 180/180/180 216/216/216
f 212/212/212 217/217/217 216/216/216 182/182/182
f 183/183/183 251/251/251 252/252/252 250/250/250
f 251/251/251 181/181/181 247/247/247 252/252/252
f 213/213/213 182/182/182 181/181/181 251/251/251
f 251/251/251 183/183/183 184/184/184 213/213/213
f 214/214/214 212/212/212 182/182/182 213/213/213
f 209/209/209 214/214/214 213/213/213 184/184/184
f 185/185/185 254/254/254 255/255/255 253/253/253
f 254/254/254 183/183/183 250/250/250 255/255/255
f 210/210/210 184/184/184 183/183/183 254/254/254
f 254/254/254 185/185/185 186/186/186 210/210/210
f 211/211/211 209/209/209 184/184/184 210/210/210
f 206/206/206 211/211/211 210/210/210 186/186/186
f 187/187/187 257/257/257 258/258/258 256/256/256
f 257/257/257 185/185/185 253/253/253 258/258/258
f 207/207/207 186/186/186 185/185/185 257/257/257
f 257/257/257 187/187/187 188/188/188 207/207/207
f 208/208/208 206/206/206 186/186/186 207/207/207
f 203/203/203 208/208/208 207/207/207 188/188/188
f 259/259/259 187/187/187 256/256/256 260/260/260
f 205/205/205 203/203/203 188/188/188 204/204/204
f 193/193/193 173/173/173 240/240/240
f 229/229/229 240/240/240 173/173/173
f 240/240/240 229/229/229 238/238/238
f 243/243/243 238/238/238 229/229/229 230/230/230
f 192/192/192 193/193/193 239/239/239
f 239/239/239 193/193/193 240/240/240
f 175/175/175 176/176/176 224/224/224 239/239/239
f 230/230/230 231/231/231 241/241/241 243/243/243
f 232/232/232 233/233/233 247/247/247 249/249/249
f 231/231/231 232/232/232 244/244/244 246/246/246
f 231/231/231 246/246/246 241/241/241
f 232/232/232 249/249/249 244/244/244
f 224/224/224 191/191/191 192/192/192
f 225/225/225 191/191/191 224/224/224
f 239/239/239 224/224/224 192/192/192
f 202/202/202 174/174/174 225/225/225
f 191/191/191 225/225/225 174/174/174
f 201/201/201 202/202/202 221/221/221 223/223/223
f 225/225/225 221/221/221 202/202/202
f 201/201/201 223/223/223 218/218/218
f 220/220/220 215/215/215 199/199/199 200/200/200
f 200/200/200 218/218/218 220/220/220
f 200/200/200 201/201/201 218/218/218
f 198/198/198 199/199/199 217/217/217 212/212/212
f 215/215/215 217/217/217 199/199/199
f 252/252/252 247/247/247 233/233/233
f 234/234/234 252/252/252 233/233/233
f 234/234/234 235/235/235 255/255/255 250/250/250
f 235/235/235 236/236/236 253/253/253 255/255/255
f 234/234/234 250/250/250 252/252/252
f 253/253/253 236/236/236 258/258/258
f 256/256/256 258/258/258 236/236/236 237/237/237
f 260/260/260 256/256/256 237/237/237
f 189/189/189 260/260/260 237/237/237
f 227/227/227 259/259/259 226/226/226
f 260/260/260 226/226/226 259/259/259
f 226/226/226 260/260/260 189/189/189
f 259/259/259 204/204/204 188/188/188 187/187/187
f 197/197/197 198/198/198 212/212/212 214/214/214
f 209/209/209 211/211/211 196/196/196 197/197/197
f 197/197/197 214/214/214 209/209/209
f 195/195/195 196/196/196 211/211/211 206/206/206
f 208/208/208 195/195/195 206/206/206
f 204/204/204 227/227/227 228/228/228
f 228/228/228 205/205/205 204/204/204
f 194/194/194 195/195/195 208/208/208 203/203/203
f 190/190/190 194/194/194 205/205/205
f 203/203/203 205/205/205 194/194/194
f 228/228/228 190/190/190 205/205/205
f 227/227/227 204/204/204 259/259/259
f 268/268/268 261/261/261 269/269/269
f 262/262/262 268/268/268 270/270/270
f 268/268/268 266/266/266 270/270/270
f 266/266/266 268/268/268 269/269/269
f 269/269/269 263/263/263 265/265/265
f 270/270/270 266/266/266 267/267/267
f 270/270/270 267/267/267 264/264/264
f 269/269/269 265/265/265 266/266/266
f 275/275/275 271/271/271 283/283/283
f 284/284/284 285/285/285 279/279/279 280/280/280
f 283/283/283 284/284/284 280/280/280 281/281/281
f 281/281/281 272/272/272 275/275/275
f 283/283/283 281/281/281 275/275/275
f 278/278/278 279/279/279 285/285/285 286/286/286
f 286/286/286 287/287/287 277/277/277 278/278/278
f 282/282/282 288/288/288 273/273/273
f 287/287/287 288/288/288 276/276/276 277/277/277
f 274/274/274 276/276/276 282/282/282
f 288/288/288 282/282/282 276/276/276
f 300/300/300 299/299/299 295/295/295 296/296/296
f 299/299/299 302/302/302 301/301/301 295/295/295
f 295/295/295 301/301/301 303/303/303 297/297/297
f 296/296/296 295/295/295 297/297/297 298/298/298
f 303/303/303 294/294/294 289/289/289
f 289/289/289 305/305/305 303/303/303
f 301/301/301 294/294/294 303/303/303
f 290/290/290 294/294/294 301/301/301 302/302/302
f 290/290/290 302/302/302 304/304/304
f 302/302/302 299/299/299 304/304/304
f 305/305/305 297/297/297 303/303/303
f 298/298/298 297/297/297 305/305/305
f 291/291/291 293/293/293 298/298/298
f 296/296/296 298/298/298 293/293/293
f 298/298/298 305/305/305 291/291/291
f 292/292/292 304/304/304 299/299/299 300/300/300
f 293/293/293 292/292/292 300/300/300 296/296/296
f 309/309/309 306/306/306 314/314/314
f 307/307/307 309/309/309 311/311/311
f 314/314/314 311/311/311 309/309/309
f 314/314/314 315/315/315 310/310/310 311/311/311
f 313/313/313 315/315/315 312/312/312
f 308/308/308 310/310/310 313/313/313
f 315/315/315 313/313/313 310/310/310
f 332/332/332 334/334/334 333/333/333 331/331/331
f 331/331/331 333/333/333 336/336/336 335/335/335
f 326/326/326 325/325/325 321/321/321 322/322/322
f 322/322/322 321/321/321 323/323/323 324/324/324
f 330/330/330 316/316/316 336/336/336
f 335/335/335 336/336/336 316/316/316
f 336/336/336 333/333/333 330/330/330
f 327/327/327 331/331/331 335/335/335
f 316/316/316 327/327/327 335/335/335
f 338/338/338 339/339/339 327/327/327 328/328/328
f 317/317/317 330/330/330 334/334/334
f 333/333/333 334/334/334 330/330/330
f 332/332/332 317/317/317 334/334/334
f 332/332/332 331/331/331 339/339/339
f 327/327/327 339/339/339 331/331/331
f 317/317/317 332/332/332 339/339/339
f 321/321/321 329/329/329 323/323/323
f 329/329/329 318/318/318 324/324/324 323/323/323
f 337/337/337 329/329/329 321/321/321
f 320/320/320 322/322/322 324/324/324
f 318/318/318 320/320/320 324/324/324
f 329/329/329 337/337/337 338/338/338 328/328/328
f 337/337/337 321/321/321 325/325/325
f 319/319/319 337/337/337 325/325/325 326/326/326
f 319/319/319 326/326/326 320/320/320
f 322/322/322 320/320/320 326/326/326
f 343/343/343 340/340/340 348/348/348
f 341/341/341 343/343/343 345/345/345
f 348/348/348 345/345/345 343/343/343
f 348/348/348 349/349/349 344/344/344 345/345/345
f 347/347/347 349/349/349 346/346/346
f 342/342/342 344/344/344 347/347/347
f 349/349/349 347/347/347 344/344/344
f 364/364/364 357/357/357 356/356/356 362/362/362
f 357/357/357 359/359/359 358/358/358 356/356/356
f 356/356/356 358/358/358 361/361/361 360/360/360
f 362/362/362 356/356/356 360/360/360 363/363/363
f 361/361/361 354/354/354 350/350/350
f 350/350/350 366/366/366 361/361/361
f 358/358/358 354/354/354 361/361/361
f 351/351/351 354/354/354 358/358/358 359/359/359
f 351/351/351 359/359/359 365/365/365
f 359/359/359 357/357/357 365/365/365
f 366/366/366 360/360/360 361/361/361
f 363/363/363 360/360/360 366/366/366
f 352/352/352 355/355/355 363/363/363
f 362/362/362 363/363/363 355/355/355
f 363/363/363 366/366/366 352/352/352
f 353/353/353 365/365/365 357/357/357 364/364/364
f 355/355/355 353/353/353 364/364/364 362/362/362
