# Rhino

mtllib 03打磨面2.mtl
usemtl Default
v -310 660 60
v -310 660 644
v -239.42857360839844 660 143.42857360839844
v -239.42857360839844 660 226.85714721679688
v -239.42857360839844 660 310.28570556640625
v -239.42857360839844 660 393.71429443359375
v -239.42857360839844 660 477.14285278320312
v -239.42857360839844 660 560.5714111328125
v -168.85714721679688 660 143.42857360839844
v -168.85714721679688 660 226.85714721679688
v -168.85714721679688 660 310.28570556640625
v -168.85714721679688 660 393.71429443359375
v -168.85714721679688 660 477.14285278320312
v -168.85714721679688 660 560.5714111328125
v -98.285713195800781 660 143.42857360839844
v -98.285713195800781 660 226.85714721679688
v -98.285713195800781 660 310.28570556640625
v -98.285713195800781 660 477.14285278320312
v -98.285713195800781 660 560.5714111328125
v -27.714284896850586 660 143.42857360839844
v -27.714284896850586 660 226.85714721679688
v -27.714284896850586 660 560.5714111328125
v 42.857143402099609 660 143.42857360839844
v 42.857143402099609 660 226.85714721679688
v 113.42857360839844 660 310.28570556640625
v -253.71427917480469 660 60
v -197.42857360839844 660 60
v -141.14285278320312 660 60
v -84.857139587402344 660 60
v -28.571428298950195 660 60
v 27.714284896850586 660 60
v 84 660 60
v 84 660 103.33333587646484
v 84 660 146.66667175292969
v 84 660 190
v 84.786651611328125 660 200.15968322753906
v 87.127861022949219 660 210.07719421386719
v 90.967803955078125 660 219.51609802246094
v 96.214958190917969 660 228.25140380859375
v 102.74423980712891 660 236.07485961914062
v 110.40000152587891 660 242.80000305175781
v 78.142860412597656 660 226.85714721679688
v 42.857143402099609 660 185.14285278320312
v 78.142860412597656 660 185.14285278320312
v 78.142860412597656 660 206
v 113.42857360839844 660 268.57144165039062
v 78.142860412597656 660 310.28570556640625
v 42.857143402099609 660 268.57144165039062
v 78.142860412597656 660 268.57144165039062
v 95.785713195800781 660 268.57144165039062
v 78.142860412597656 660 247.71427917480469
v 95.785713195800781 660 247.71427917480469
v 133.73995971679688 660 263.6290283203125
v 153.21418762207031 660 288.11077880859375
v 168.25978088378906 660 315.53762817382812
v 178.44186401367188 660 345.11679077148438
v 183.46611022949219 660 375.99331665039062
v 183.18730163574219 660 407.274658203125
v 177.61349487304688 660 438.05673217773438
v 166.90579223632812 660 467.44970703125
v 151.37371826171875 660 494.60400390625
v 131.46620178222656 660 518.7347412109375
v 107.75868988037109 660 539.14447021484375
v 80.936424255371094 660 555.2431640625
v 51.774703979492188 660 566.56549072265625
v 1.2751587629318237 660 581.37359619140625
v -49.224388122558594 660 596.18170166015625
v -99.72393798828125 660 610.98980712890625
v -150.22348022460938 660 625.79791259765625
v -200.7230224609375 660 640.60601806640625
v -212.41995239257812 660 643.14715576171875
v -224.35929870605469 660 644
v -168.85714721679688 660 602.28570556640625
v -239.42857360839844 660 602.28570556640625
v -204.14285278320312 660 560.5714111328125
v -204.14285278320312 660 602.28570556640625
v -168.85714721679688 660 623.14288330078125
v -204.14285278320312 660 623.14288330078125
v -186.5 660 602.28570556640625
v -186.5 660 623.14288330078125
v -133.57142639160156 660 560.5714111328125
v -133.57142639160156 660 602.28570556640625
v -239.42857360839844 660 623.14288330078125
v -221.78572082519531 660 602.28570556640625
v -221.78572082519531 660 623.14288330078125
v -274.71429443359375 660 560.5714111328125
v -274.71429443359375 660 602.28570556640625
v -267.17965698242188 660 644
v -310 660 585.5999755859375
v -310 660 527.20001220703125
v -310 660 468.79998779296875
v -310 660 410.39999389648438
v -310 660 352
v -310 660 293.60000610351562
v -310 660 235.19999694824219
v -310 660 176.80000305175781
v -310 660 118.40000152587891
v -90 660 390
v -88.772514343261719 660 404.81350708007812
v -85.123550415039062 660 419.22296142578125
v -79.152641296386719 660 432.83526611328125
v -71.02264404296875 660 445.27914428710938
v -60.955341339111328 660 456.21514892578125
v -49.225334167480469 660 465.344970703125
v -36.152587890625 660 472.41958618164062
v -22.093694686889648 660 477.24603271484375
v -7.4321413040161133 660 479.69259643554688
v 7.4321413040161133 660 479.69259643554688
v 22.093694686889648 660 477.24603271484375
v 36.152587890625 660 472.41958618164062
v 49.225334167480469 660 465.344970703125
v 60.955341339111328 660 456.21514892578125
v 71.02264404296875 660 445.27914428710938
v 79.152641296386719 660 432.83526611328125
v 85.123550415039062 660 419.22296142578125
v 88.772514343261719 660 404.81350708007812
v 90 660 390
v -63 660 310.28570556640625
v -27.714284896850586 660 518.85711669921875
v 7.5714287757873535 660 518.85711669921875
v 88.772514343261719 660 375.18649291992188
v 85.123550415039062 660 360.77703857421875
v 79.152641296386719 660 347.16473388671875
v 71.02264404296875 660 334.72085571289062
v 60.955341339111328 660 323.78485107421875
v 49.225334167480469 660 314.655029296875
v 36.152587890625 660 307.58041381835938
v 22.093694686889648 660 302.75396728515625
v 7.4321413040161133 660 300.30740356445312
v -7.4321413040161133 660 300.30740356445312
v -22.093694686889648 660 302.75396728515625
v -36.152587890625 660 307.58041381835938
v -49.225334167480469 660 314.655029296875
v -60.955341339111328 660 323.78485107421875
v -71.02264404296875 660 334.72085571289062
v -79.152641296386719 660 347.16473388671875
v -85.123550415039062 660 360.77703857421875
v -88.772514343261719 660 375.18649291992188
v -27.714284896850586 660 268.57144165039062
v 7.5714287757873535 660 226.85714721679688
v 7.5714287757873535 660 268.57144165039062
v -98.285713195800781 660 268.57144165039062
v -63 660 226.85714721679688
v -63 660 268.57144165039062
v 113.42857360839844 660 477.14285278320312
vt 0 0
vt 0 1
vt 0.14301170408725739 0.1428571492433548
vt 0.14301170408725739 0.28571429848670959
vt 0.14301170408725739 0.4285714328289032
vt 0.14301170408725739 0.57142859697341919
vt 0.14301170408725739 0.71428573131561279
vt 0.14301170408725739 0.8571428656578064
vt 0.28602340817451477 0.1428571492433548
vt 0.28602340817451477 0.28571429848670959
vt 0.28602340817451477 0.4285714328289032
vt 0.28602340817451477 0.57142859697341919
vt 0.28602340817451477 0.71428573131561279
vt 0.28602340817451477 0.8571428656578064
vt 0.42903509736061096 0.1428571492433548
vt 0.42903509736061096 0.28571429848670959
vt 0.42903509736061096 0.4285714328289032
vt 0.42903509736061096 0.71428573131561279
vt 0.42903509736061096 0.8571428656578064
vt 0.57204681634902954 0.1428571492433548
vt 0.57204681634902954 0.28571429848670959
vt 0.57204681634902954 0.8571428656578064
vt 0.71505850553512573 0.1428571492433548
vt 0.71505850553512573 0.28571429848670959
vt 0.85807019472122192 0.4285714328289032
vt 0.11406196653842926 0
vt 0.22812393307685852 0
vt 0.34218588471412659 0
vt 0.45624786615371704 0
vt 0.57030981779098511 0
vt 0.68437176942825317 0
vt 0.79843378067016602 0
vt 0.79843378067016602 0.074200913310050964
vt 0.79843378067016602 0.14840182662010193
vt 0.79843378067016602 0.22260273993015289
vt 0.80002790689468384 0.23999947309494019
vt 0.80477231740951538 0.2569814920425415
vt 0.81255388259887695 0.27314400672912598
vt 0.82318717241287231 0.28810170292854309
vt 0.83641862869262695 0.30149805545806885
vt 0.85193288326263428 0.3130137026309967
vt 0.78656435012817383 0.28571429848670959
vt 0.71505850553512573 0.2142857164144516
vt 0.78656435012817383 0.2142857164144516
vt 0.78656435012817383 0.25
vt 0.85807019472122192 0.3571428656578064
vt 0.78656435012817383 0.4285714328289032
vt 0.71505850553512573 0.3571428656578064
vt 0.78656435012817383 0.3571428656578064
vt 0.82231730222702026 0.3571428656578064
vt 0.78656435012817383 0.3214285671710968
vt 0.82231730222702026 0.3214285671710968
vt 0.89923089742660522 0.34867984056472778
vt 0.93869501352310181 0.39060065150260925
vt 0.96918463706970215 0.4375644326210022
vt 0.98981845378875732 0.48821368813514709
vt 1 0.5410844087600708
vt 0.99943500757217407 0.59464842081069946
vt 0.98813974857330322 0.64735740423202515
vt 0.96644085645675659 0.69768786430358887
vt 0.93496537208557129 0.74418497085571289
vt 0.89462316036224365 0.78550469875335693
vt 0.84658032655715942 0.82045280933380127
vt 0.79222548007965088 0.8480190634727478
vt 0.73312979936599731 0.86740672588348389
vt 0.63079339265823364 0.89276301860809326
vt 0.52845698595046997 0.91811937093734741
vt 0.4261205792427063 0.94347566366195679
vt 0.32378417253494263 0.96883201599121094
vt 0.22144778072834015 0.99418836832046509
vt 0.19774417579174042 0.99853968620300293
vt 0.17354929447174072 1
vt 0.28602340817451477 0.92857140302658081
vt 0.14301170408725739 0.92857140302658081
vt 0.21451754868030548 0.8571428656578064
vt 0.21451754868030548 0.92857140302658081
vt 0.28602340817451477 0.96428573131561279
vt 0.21451754868030548 0.96428573131561279
vt 0.25027048587799072 0.92857140302658081
vt 0.25027048587799072 0.96428573131561279
vt 0.35752925276756287 0.8571428656578064
vt 0.35752925276756287 0.92857140302658081
vt 0.14301170408725739 0.96428573131561279
vt 0.17876462638378143 0.92857140302658081
vt 0.17876462638378143 0.96428573131561279
vt 0.071505852043628693 0.8571428656578064
vt 0.071505852043628693 0.92857140302658081
vt 0.086774647235870361 1
vt 0 0.89999997615814209
vt 0 0.80000001192092896
vt 0 0.69999998807907104
vt 0 0.60000002384185791
vt 0 0.5
vt 0 0.40000000596046448
vt 0 0.30000001192092896
vt 0 0.20000000298023224
vt 0 0.10000000149011612
vt 0.4458259642124176 0.56506848335266113
vt 0.44831341505050659 0.59043407440185547
vt 0.45570799708366394 0.61510777473449707
vt 0.46780794858932495 0.63841652870178223
vt 0.4842832088470459 0.65972453355789185
vt 0.5046844482421875 0.67845058441162109
vt 0.52845507860183716 0.69408386945724487
vt 0.55494672060012817 0.70619791746139526
vt 0.58343684673309326 0.71446239948272705
vt 0.61314821243286133 0.71865171194076538
vt 0.64327037334442139 0.71865171194076538
vt 0.67298179864883423 0.71446239948272705
vt 0.70147186517715454 0.70619791746139526
vt 0.72796356678009033 0.69408386945724487
vt 0.75173419713973999 0.67845058441162109
vt 0.77213537693023682 0.65972453355789185
vt 0.78861069679260254 0.63841652870178223
vt 0.80071061849594116 0.61510777473449707
vt 0.80810517072677612 0.59043407440185547
vt 0.8105926513671875 0.56506848335266113
vt 0.50054097175598145 0.4285714328289032
vt 0.57204681634902954 0.78571426868438721
vt 0.64355266094207764 0.78571426868438721
vt 0.80810517072677612 0.5397028923034668
vt 0.80071061849594116 0.5150291919708252
vt 0.78861069679260254 0.49172043800354004
vt 0.77213537693023682 0.47041243314743042
vt 0.75173419713973999 0.45168638229370117
vt 0.72796356678009033 0.43605309724807739
vt 0.70147186517715454 0.423939049243927
vt 0.67298179864883423 0.41567462682723999
vt 0.64327037334442139 0.41148525476455688
vt 0.61314821243286133 0.41148525476455688
vt 0.58343684673309326 0.41567462682723999
vt 0.55494672060012817 0.423939049243927
vt 0.52845507860183716 0.43605309724807739
vt 0.5046844482421875 0.45168638229370117
vt 0.4842832088470459 0.47041243314743042
vt 0.46780794858932495 0.49172043800354004
vt 0.45570799708366394 0.5150291919708252
vt 0.44831341505050659 0.5397028923034668
vt 0.57204681634902954 0.3571428656578064
vt 0.64355266094207764 0.28571429848670959
vt 0.64355266094207764 0.3571428656578064
vt 0.42903509736061096 0.3571428656578064
vt 0.50054097175598145 0.28571429848670959
vt 0.50054097175598145 0.3571428656578064
vt 0.85807019472122192 0.71428573131561279
vn 0 1 0
vn 0 1 0
vn 0 1 0
vn 0 1 0
vn 0 1 0
vn 0 1 0
vn 0 1 0
vn 0 1 0
vn 0 1 0
vn 0 1 0
vn 0 1 0
vn 0 1 0
vn 0 1 0
vn 0 1 0
vn 0 1 0
vn 0 1 0
vn 0 1 0
vn 0 1 0
vn 0 1 0
vn 0 1 0
vn 0 1 0
vn 0 1 0
vn 0 1 0
vn 0 1 0
vn 0 1 0
vn 0 1 0
vn 0 1 0
vn 0 1 0
vn 0 1 0
vn 0 1 0
vn 0 1 0
vn 0 1 0
vn 0 1 0
vn 0 1 0
vn 0 1 0
vn 0 1 0
vn 0 1 0
vn 0 1 0
vn 0 1 0
vn 0 1 0
vn 0 1 0
vn 0 1 0
vn 0 1 0
vn 0 1 0
vn 0 1 0
vn 0 1 0
vn 0 1 0
vn 0 1 0
vn 0 1 0
vn 0 1 0
vn 0 1 0
vn 0 1 0
vn 0 1 0
vn 0 1 0
vn 0 1 0
vn 0 1 0
vn 0 1 0
vn 0 1 0
vn 0 1 0
vn 0 1 0
vn 0 1 0
vn 0 1 0
vn 0 1 0
vn 0 1 0
vn 0 1 0
vn 0 1 0
vn 0 1 0
vn 0 1 0
vn 0 1 0
vn 0 1 0
vn 0 1 0
vn 0 1 0
vn 0 1 0
vn 0 1 0
vn 0 1 0
vn 0 1 0
vn 0 1 0
vn 0 1 0
vn 0 1 0
vn 0 1 0
vn 0 1 0
vn 0 1 0
vn 0 1 0
vn 0 1 0
vn 0 1 0
vn 0 1 0
vn 0 1 0
vn 0 1 0
vn 0 1 0
vn 0 1 0
vn 0 1 0
vn 0 1 0
vn 0 1 0
vn 0 1 0
vn 0 1 0
vn 0 1 0
vn 0 1 0
vn 0 1 0
vn 0 1 0
vn 0 1 0
vn 0 1 0
vn 0 1 0
vn 0 1 0
vn 0 1 0
vn 0 1 0
vn 0 1 0
vn 0 1 0
vn 0 1 0
vn 0 1 0
vn 0 1 0
vn 0 1 0
vn 0 1 0
vn 0 1 0
vn 0 1 0
vn 0 1 0
vn 0 1 0
vn 0 1 0
vn 0 1 0
vn 0 1 0
vn 0 1 0
vn 0 1 0
vn 0 1 0
vn 0 1 0
vn 0 1 0
vn 0 1 0
vn 0 1 0
vn 0 1 0
vn 0 1 0
vn 0 1 0
vn 0 1 0
vn 0 1 0
vn 0 1 0
vn 0 1 0
vn 0 1 0
vn 0 1 0
vn 0 1 0
vn 0 1 0
vn 0 1 0
vn 0 1 0
vn 0 1 0
vn 0 1 0
vn 0 1 0
vn 0 1 0
vn 0 1 0
vn 0 1 0
f 74/74/74 8/8/8 86/86/86 87/87/87
f 10/10/10 9/9/9 3/3/3 4/4/4
f 11/11/11 10/10/10 4/4/4 5/5/5
f 12/12/12 11/11/11 5/5/5 6/6/6
f 13/13/13 12/12/12 6/6/6 7/7/7
f 75/75/75 7/7/7 8/8/8
f 13/13/13 75/75/75 14/14/14
f 7/7/7 75/75/75 13/13/13
f 80/80/80 79/79/79 76/76/76 78/78/78
f 77/77/77 73/73/73 79/79/79 80/80/80
f 85/85/85 84/84/84 74/74/74 83/83/83
f 78/78/78 76/76/76 84/84/84 85/85/85
f 84/84/84 8/8/8 74/74/74
f 75/75/75 84/84/84 76/76/76
f 8/8/8 84/84/84 75/75/75
f 79/79/79 75/75/75 76/76/76
f 14/14/14 79/79/79 73/73/73
f 75/75/75 79/79/79 14/14/14
f 16/16/16 15/15/15 9/9/9 10/10/10
f 142/142/142 11/11/11 17/17/17
f 10/10/10 142/142/142 16/16/16
f 11/11/11 142/142/142 10/10/10
f 81/81/81 13/13/13 14/14/14
f 18/18/18 81/81/81 19/19/19
f 13/13/13 81/81/81 18/18/18
f 82/82/82 81/81/81 14/14/14 73/73/73
f 82/82/82 19/19/19 81/81/81
f 143/143/143 15/15/15 16/16/16
f 20/20/20 143/143/143 21/21/21
f 15/15/15 143/143/143 20/20/20
f 118/118/118 144/144/144 142/142/142 17/17/17
f 144/144/144 143/143/143 16/16/16 142/142/142
f 139/139/139 21/21/21 143/143/143 144/144/144
f 43/43/43 140/140/140 24/24/24
f 140/140/140 20/20/20 21/21/21
f 20/20/20 43/43/43 23/23/23
f 43/43/43 20/20/20 140/140/140
f 141/141/141 140/140/140 21/21/21 139/139/139
f 48/48/48 24/24/24 140/140/140 141/141/141
f 22/22/22 120/120/120 119/119/119
f 45/45/45 24/24/24 42/42/42
f 43/43/43 45/45/45 44/44/44
f 24/24/24 45/45/45 43/43/43
f 44/44/44 23/23/23 43/43/43
f 50/50/50 25/25/25 46/46/46
f 47/47/47 50/50/50 49/49/49
f 25/25/25 50/50/50 47/47/47
f 51/51/51 48/48/48 49/49/49
f 24/24/24 51/51/51 42/42/42
f 48/48/48 51/51/51 24/24/24
f 46/46/46 52/52/52 50/50/50
f 50/50/50 52/52/52 51/51/51 49/49/49
f 97/97/97 26/26/26 1/1/1
f 97/97/97 96/96/96 3/3/3
f 3/3/3 26/26/26 97/97/97
f 9/9/9 28/28/28 27/27/27
f 3/3/3 96/96/96 95/95/95 4/4/4
f 9/9/9 27/27/27 26/26/26 3/3/3
f 94/94/94 5/5/5 4/4/4 95/95/95
f 94/94/94 93/93/93 5/5/5
f 12/12/12 17/17/17 11/11/11
f 93/93/93 6/6/6 5/5/5
f 92/92/92 6/6/6 93/93/93
f 15/15/15 29/29/29 28/28/28 9/9/9
f 20/20/20 30/30/30 29/29/29 15/15/15
f 144/144/144 132/132/132 139/139/139
f 30/30/30 20/20/20 23/23/23 31/31/31
f 133/133/133 132/132/132 118/118/118
f 132/132/132 144/144/144 118/118/118
f 135/135/135 118/118/118 17/17/17
f 17/17/17 98/98/98 138/138/138
f 18/18/18 100/100/100 99/99/99
f 18/18/18 99/99/99 98/98/98
f 118/118/118 134/134/134 133/133/133
f 17/17/17 136/136/136 135/135/135
f 118/118/118 135/135/135 134/134/134
f 136/136/136 17/17/17 137/137/137
f 17/17/17 138/138/138 137/137/137
f 98/98/98 17/17/17 18/18/18
f 91/91/91 7/7/7 6/6/6 92/92/92
f 86/86/86 90/90/90 89/89/89
f 90/90/90 7/7/7 91/91/91
f 8/8/8 7/7/7 86/86/86
f 90/90/90 86/86/86 7/7/7
f 89/89/89 87/87/87 86/86/86
f 2/2/2 87/87/87 89/89/89
f 87/87/87 88/88/88 83/83/83
f 88/88/88 87/87/87 2/2/2
f 88/88/88 72/72/72 83/83/83
f 83/83/83 74/74/74 87/87/87
f 71/71/71 78/78/78 85/85/85
f 85/85/85 72/72/72 71/71/71
f 71/71/71 70/70/70 78/78/78
f 83/83/83 72/72/72 85/85/85
f 18/18/18 101/101/101 100/100/100
f 18/18/18 12/12/12 13/13/13
f 18/18/18 102/102/102 101/101/101
f 18/18/18 103/103/103 102/102/102
f 119/119/119 18/18/18 19/19/19
f 18/18/18 104/104/104 103/103/103
f 18/18/18 119/119/119 104/104/104
f 69/69/69 77/77/77 70/70/70
f 80/80/80 70/70/70 77/77/77
f 77/77/77 69/69/69 73/73/73
f 80/80/80 78/78/78 70/70/70
f 68/68/68 67/67/67 19/19/19
f 19/19/19 67/67/67 22/22/22
f 68/68/68 82/82/82 69/69/69
f 73/73/73 69/69/69 82/82/82
f 19/19/19 82/82/82 68/68/68
f 105/105/105 104/104/104 119/119/119
f 17/17/17 12/12/12 18/18/18
f 34/34/34 23/23/23 44/44/44
f 130/130/130 141/141/141 139/139/139
f 35/35/35 44/44/44 45/45/45
f 39/39/39 42/42/42 51/51/51
f 42/42/42 37/37/37 45/45/45
f 33/33/33 31/31/31 23/23/23
f 129/129/129 141/141/141 130/130/130
f 129/129/129 128/128/128 141/141/141
f 130/130/130 139/139/139 131/131/131
f 126/126/126 49/49/49 48/48/48
f 48/48/48 127/127/127 126/126/126
f 126/126/126 47/47/47 49/49/49
f 128/128/128 127/127/127 48/48/48
f 48/48/48 141/141/141 128/128/128
f 23/23/23 34/34/34 33/33/33
f 35/35/35 45/45/45 36/36/36
f 44/44/44 35/35/35 34/34/34
f 38/38/38 37/37/37 42/42/42
f 51/51/51 52/52/52 39/39/39
f 38/38/38 42/42/42 39/39/39
f 36/36/36 45/45/45 37/37/37
f 52/52/52 41/41/41 40/40/40
f 46/46/46 41/41/41 52/52/52
f 39/39/39 52/52/52 40/40/40
f 25/25/25 53/53/53 46/46/46
f 41/41/41 46/46/46 53/53/53
f 55/55/55 54/54/54 25/25/25
f 53/53/53 25/25/25 54/54/54
f 125/125/125 47/47/47 126/126/126
f 32/32/32 31/31/31 33/33/33
f 25/25/25 47/47/47 123/123/123
f 111/111/111 110/110/110 64/64/64
f 65/65/65 64/64/64 110/110/110
f 124/124/124 47/47/47 125/125/125
f 113/113/113 112/112/112 145/145/145
f 112/112/112 111/111/111 145/145/145
f 106/106/106 119/119/119 107/107/107
f 67/67/67 66/66/66 22/22/22
f 22/22/22 66/66/66 120/120/120
f 120/120/120 107/107/107 119/119/119
f 19/19/19 22/22/22 119/119/119
f 120/120/120 109/109/109 108/108/108
f 66/66/66 65/65/65 120/120/120
f 110/110/110 109/109/109 120/120/120
f 120/120/120 65/65/65 110/110/110
f 107/107/107 120/120/120 108/108/108
f 145/145/145 114/114/114 113/113/113
f 106/106/106 105/105/105 119/119/119
f 122/122/122 25/25/25 123/123/123
f 122/122/122 121/121/121 25/25/25
f 25/25/25 58/58/58 57/57/57
f 117/117/117 145/145/145 25/25/25
f 117/117/117 25/25/25 121/121/121
f 25/25/25 57/57/57 56/56/56
f 123/123/123 47/47/47 124/124/124
f 58/58/58 145/145/145 59/59/59
f 145/145/145 111/111/111 63/63/63
f 145/145/145 116/116/116 115/115/115
f 63/63/63 111/111/111 64/64/64
f 63/63/63 62/62/62 145/145/145
f 145/145/145 115/115/115 114/114/114
f 145/145/145 60/60/60 59/59/59
f 145/145/145 62/62/62 61/61/61
f 61/61/61 60/60/60 145/145/145
f 116/116/116 145/145/145 117/117/117
f 58/58/58 25/25/25 145/145/145
f 56/56/56 55/55/55 25/25/25
f 131/131/131 139/139/139 132/132/132
