# Rhino

mtllib 03打磨面1.mtl
usemtl Default
v -630 720 644
v -224.35929870605469 720 644
v -572.05133056640625 713.2872314453125 652
v -514.1026611328125 713.2872314453125 652
v -282.3079833984375 713.2872314453125 652
v -224.35929870605469 706.57440185546875 660
v -264.92337036132812 720 644
v -305.48745727539062 720 644
v -346.051513671875 720 644
v -386.61557006835938 720 644
v -427.17965698242188 720 644
v -467.74371337890625 720 644
v -508.30780029296875 720 644
v -548.87188720703125 720 644
v -589.4359130859375 720 644
v -224.35929870605469 711.04962158203125 654.66668701171875
v -224.35929870605469 715.5247802734375 649.33331298828125
v -253.33364868164062 713.2872314453125 652
v -282.3079833984375 709.9307861328125 656
v -253.33364868164062 709.9307861328125 656
v -282.3079833984375 716.64361572265625 648
v -253.33364868164062 716.64361572265625 648
v -630 710.7698974609375 655
v -629.90618896484375 709.90399169921875 656.03192138671875
v -629.6390380859375 709.14959716796875 656.9310302734375
v -629.2197265625 708.492919921875 657.713623046875
v -628.66973876953125 707.9202880859375 658.39605712890625
v -628.00360107421875 707.4222412109375 658.98956298828125
v -627.623779296875 707.20330810546875 659.25048828125
v -627.209716796875 707.00634765625 659.4852294921875
v -626.756591796875 706.83453369140625 659.68994140625
v -626.2491455078125 706.6976318359375 659.85308837890625
v -625.6695556640625 706.60711669921875 659.96099853515625
v -625 706.57440185546875 660
v -584.9359130859375 706.57440185546875 660
v -544.87188720703125 706.57440185546875 660
v -504.80780029296875 706.57440185546875 660
v -464.74371337890625 706.57440185546875 660
v -424.67965698242188 706.57440185546875 660
v -384.61557006835938 706.57440185546875 660
v -344.551513671875 706.57440185546875 660
v -304.48745727539062 706.57440185546875 660
v -264.42337036132812 706.57440185546875 660
v -572.05133056640625 709.9307861328125 656
v -601.025634765625 713.2872314453125 652
v -601.025634765625 709.9307861328125 656
v -615.5128173828125 709.9307861328125 656
v -601.025634765625 711.6090087890625 654
v -615.5128173828125 713.2872314453125 652
v -615.5128173828125 711.6090087890625 654
v -572.05133056640625 716.64361572265625 648
v -601.025634765625 716.64361572265625 648
v -622.75640869140625 709.9307861328125 656
v -615.5128173828125 710.7698974609375 655
v -622.75640869140625 711.6090087890625 654
v -622.75640869140625 710.7698974609375 655
v -601.025634765625 708.25262451171875 658
v -615.5128173828125 708.25262451171875 658
v -626.37823486328125 709.9307861328125 656
v -622.75640869140625 710.350341796875 655.5
v -626.37823486328125 710.7698974609375 655
v -626.37823486328125 710.350341796875 655.5
v -622.75640869140625 708.25262451171875 658
v -615.5128173828125 709.0916748046875 657
v -622.75640869140625 709.0916748046875 657
v -626.37823486328125 709.0916748046875 657
v -622.75640869140625 709.51123046875 656.5
v -626.37823486328125 709.51123046875 656.5
v -626.37823486328125 708.25262451171875 658
v -622.75640869140625 708.67218017578125 657.5
v -626.37823486328125 708.67218017578125 657.5
v -615.5128173828125 707.41351318359375 659
v -622.75640869140625 707.41351318359375 659
v -626.37823486328125 707.41351318359375 659
v -622.75640869140625 707.83306884765625 658.5
v -626.37823486328125 707.83306884765625 658.5
v -626.37823486328125 707.623291015625 658.75
v -628.1890869140625 707.623291015625 658.75
v -622.75640869140625 706.99395751953125 659.5
v -626.37823486328125 706.99395751953125 659.5
v -626.37823486328125 707.2037353515625 659.25
v -622.75640869140625 706.7841796875 659.75
v -624.56732177734375 706.99395751953125 659.5
v -624.56732177734375 706.7841796875 659.75
v -615.5128173828125 706.99395751953125 659.5
v -619.1346435546875 707.41351318359375 659
v -619.1346435546875 706.99395751953125 659.5
v -601.025634765625 707.41351318359375 659
v -608.26922607421875 708.25262451171875 658
v -608.26922607421875 707.41351318359375 659
v -572.05133056640625 708.25262451171875 658
v -586.53851318359375 709.9307861328125 656
v -586.53851318359375 708.25262451171875 658
v -514.1026611328125 709.9307861328125 656
v -543.07696533203125 713.2872314453125 652
v -543.07696533203125 709.9307861328125 656
v -398.205322265625 713.2872314453125 652
v -340.25665283203125 713.2872314453125 652
v -224.35929870605469 720 644
v -224.35929870605469 706.57440185546875 660
v -224.35929870605469 715.5247802734375 649.33331298828125
v -224.35929870605469 711.04962158203125 654.66668701171875
v -200.7230224609375 720 640.60601806640625
v -208.48216247558594 720 642.48583984375
v -216.38471984863281 720 643.62060546875
v -196.22088623046875 706.57440185546875 655.95953369140625
v -197.72158813476562 711.04962158203125 650.8416748046875
v -199.22230529785156 715.5247802734375 645.72381591796875
v -214.86575317382812 706.57440185546875 659.54833984375
v -205.45794677734375 706.57440185546875 658.19744873046875
v 51.774703979492188 720 566.56549072265625
v -200.7230224609375 720 640.60601806640625
v -199.22230529785156 715.5247802734375 645.72381591796875
v -197.72158813476562 711.04962158203125 650.8416748046875
v -156.38899230957031 713.2872314453125 635.94268798828125
v -177.43048095703125 713.2872314453125 642.11273193359375
v -157.51454162597656 716.64361572265625 632.10430908203125
v -178.55601501464844 716.64361572265625 638.27435302734375
v -155.26345825195312 709.9307861328125 639.78106689453125
v -176.304931640625 709.9307861328125 645.95111083984375
v -11.349727630615234 720 585.07562255859375
v -74.474159240722656 720 603.58575439453125
v -137.59858703613281 720 622.09588623046875
v 56.27685546875 706.57440185546875 581.91900634765625
v -196.22088623046875 706.57440185546875 655.95953369140625
v -133.09645080566406 706.57440185546875 637.44940185546875
v -69.972015380859375 706.57440185546875 618.93927001953125
v -6.8475794792175293 706.57440185546875 600.42913818359375
v 120 706.57440185546875 230
v 151.4669189453125 713.2872314453125 272.00942993164062
v 51.774703979492188 720 566.56549072265625
v 110.40000152587891 720 242.80000305175781
v 133.73995971679688 720 263.6290283203125
v 153.21418762207031 720 288.11077880859375
v 168.25978088378906 720 315.53762817382812
v 178.44186401367188 720 345.11679077148438
v 183.46611022949219 720 375.99331665039062
v 183.18730163574219 720 407.274658203125
v 177.61349487304688 720 438.05673217773438
v 166.90579223632812 720 467.44970703125
v 151.37371826171875 720 494.60400390625
v 131.46620178222656 720 518.7347412109375
v 107.75868988037109 720 539.14447021484375
v 80.936424255371094 720 555.2431640625
v 115.19999694824219 713.2872314453125 236.39999389648438
v 154.62248229980469 709.9307861328125 269.55130004882812
v 134.51698303222656 713.2872314453125 252.99934387207031
v 137.31942749023438 709.9307861328125 250.14515686035156
v 148.31135559082031 716.64361572265625 274.46759033203125
v 131.71455383300781 716.64361572265625 255.85353088378906
v 56.27685546875 706.57440185546875 581.91900634765625
v 87.974372863769531 706.57440185546875 569.61212158203125
v 117.12900543212891 706.57440185546875 552.113525390625
v 142.89805603027344 706.57440185546875 529.9290771484375
v 164.53665161132812 706.57440185546875 503.70001220703125
v 181.41934204101562 706.57440185546875 474.1844482421875
v 193.05813598632812 706.57440185546875 442.23556518554688
v 199.11662292480469 706.57440185546875 408.77682495117188
v 199.419677734375 706.57440185546875 374.77532958984375
v 193.95854187011719 706.57440185546875 341.21389770507812
v 182.89106750488281 706.57440185546875 309.0626220703125
v 166.53715515136719 706.57440185546875 279.2508544921875
v 145.36952209472656 706.57440185546875 252.64024353027344
v 191.08889770507812 713.2872314453125 371.31753540039062
v 188.42958068847656 713.2872314453125 426.85501098632812
v 170.68638610839844 713.2872314453125 477.92129516601562
v 141.05545043945312 713.2872314453125 520.2587890625
v 101.20635223388672 713.2872314453125 553.1602783203125
v 110.40000152587891 720 242.80000305175781
v 120 706.57440185546875 230
v 115.19999694824219 713.2872314453125 236.39999389648438
v 102.74423980712891 720 236.07485961914062
v 96.214958190917969 720 228.25140380859375
v 90.967803955078125 720 219.51609802246094
v 87.127853393554688 720 210.07719421386719
v 84.786651611328125 720 200.15968322753906
v 100 706.57440185546875 190
v 100.595947265625 706.57440185546875 197.69673156738281
v 102.36959075927734 706.57440185546875 205.20999145507812
v 105.27864074707031 706.57440185546875 212.36067199707031
v 109.25375366210938 706.57440185546875 218.97833251953125
v 114.20018005371094 706.57440185546875 224.90519714355469
v 84 720 190
v 92 713.2872314453125 190
v 84 720 60
v 100 706.57440185546875 190
v 84 720 190
v 92 713.2872314453125 190
v 100 706.57440185546875 60
v 100 706.57440185546875 146.66667175292969
v 100 706.57440185546875 103.33333587646484
v 84 720 103.33333587646484
v 84 720 146.66667175292969
vt 0.95230454206466675 0.80000001192092896
vt 0.046704921871423721 0.80000001192092896
vt 0.82293319702148438 0.82335245609283447
vt 0.69356179237365723 0.82335245609283447
vt 0.17607629299163818 0.82335245609283447
vt 0.046704921871423721 0.84670490026473999
vt 0.1372649073600769 0.80000001192092896
vt 0.22782483696937561 0.80000001192092896
vt 0.31838482618331909 0.80000001192092896
vt 0.4089447557926178 0.80000001192092896
vt 0.49950474500656128 0.80000001192092896
vt 0.59006470441818237 0.80000001192092896
vt 0.68062466382980347 0.80000001192092896
vt 0.77118462324142456 0.80000001192092896
vt 0.86174458265304565 0.80000001192092896
vt 0.046704921871423721 0.83113664388656616
vt 0.046704921871423721 0.81556832790374756
vt 0.11139063537120819 0.82335245609283447
vt 0.17607629299163818 0.83502870798110962
vt 0.11139063537120819 0.83502870798110962
vt 0.17607629299163818 0.81167620420455933
vt 0.11139063537120819 0.81167620420455933
vt 0.95230454206466675 0.83210963010787964
vt 0.9520951509475708 0.83512187004089355
vt 0.95149868726730347 0.83774644136428833
vt 0.95056265592575073 0.84003090858459473
vt 0.94933468103408813 0.84202289581298828
vt 0.94784760475158691 0.84375542402267456
vt 0.94699960947036743 0.8445170521736145
vt 0.94607526063919067 0.84520220756530762
vt 0.94506359100341797 0.84579992294311523
vt 0.94393068552017212 0.84627616405487061
vt 0.94263672828674316 0.84659111499786377
vt 0.94114196300506592 0.84670490026473999
vt 0.85169827938079834 0.84670490026473999
vt 0.76225453615188599 0.84670490026473999
vt 0.67281085252761841 0.84670490026473999
vt 0.58336716890335083 0.84670490026473999
vt 0.49392348527908325 0.84670490026473999
vt 0.4044797420501709 0.84670490026473999
vt 0.31503602862358093 0.84670490026473999
vt 0.22559231519699097 0.84670490026473999
vt 0.13614864647388458 0.84670490026473999
vt 0.82293319702148438 0.83502870798110962
vt 0.88761883974075317 0.82335245609283447
vt 0.88761883974075317 0.83502870798110962
vt 0.91996169090270996 0.83502870798110962
vt 0.88761883974075317 0.82919055223464966
vt 0.91996169090270996 0.82335245609283447
vt 0.91996169090270996 0.82919055223464966
vt 0.82293319702148438 0.81167620420455933
vt 0.88761883974075317 0.81167620420455933
vt 0.93613314628601074 0.83502870798110962
vt 0.91996169090270996 0.83210963010787964
vt 0.93613314628601074 0.82919055223464966
vt 0.93613314628601074 0.83210963010787964
vt 0.88761883974075317 0.8408668041229248
vt 0.91996169090270996 0.8408668041229248
vt 0.94421887397766113 0.83502870798110962
vt 0.93613314628601074 0.83356916904449463
vt 0.94421887397766113 0.83210963010787964
vt 0.94421887397766113 0.83356916904449463
vt 0.93613314628601074 0.8408668041229248
vt 0.91996169090270996 0.83794772624969482
vt 0.93613314628601074 0.83794772624969482
vt 0.94421887397766113 0.83794772624969482
vt 0.93613314628601074 0.83648824691772461
vt 0.94421887397766113 0.83648824691772461
vt 0.94421887397766113 0.8408668041229248
vt 0.93613314628601074 0.83940726518630981
vt 0.94421887397766113 0.83940726518630981
vt 0.91996169090270996 0.84378588199615479
vt 0.93613314628601074 0.84378588199615479
vt 0.94421887397766113 0.84378588199615479
vt 0.93613314628601074 0.84232634305953979
vt 0.94421887397766113 0.84232634305953979
vt 0.94421887397766113 0.8430560827255249
vt 0.94826167821884155 0.8430560827255249
vt 0.93613314628601074 0.84524542093276978
vt 0.94421887397766113 0.84524542093276978
vt 0.94421887397766113 0.84451562166213989
vt 0.93613314628601074 0.84597516059875488
vt 0.94017601013183594 0.84524542093276978
vt 0.94017601013183594 0.84597516059875488
vt 0.91996169090270996 0.84524542093276978
vt 0.92804741859436035 0.84378588199615479
vt 0.92804741859436035 0.84524542093276978
vt 0.88761883974075317 0.84378588199615479
vt 0.90379029512405396 0.8408668041229248
vt 0.90379029512405396 0.84378588199615479
vt 0.82293319702148438 0.8408668041229248
vt 0.85527604818344116 0.83502870798110962
vt 0.85527604818344116 0.8408668041229248
vt 0.69356179237365723 0.83502870798110962
vt 0.7582474946975708 0.82335245609283447
vt 0.7582474946975708 0.83502870798110962
vt 0.43481904268264771 0.82335245609283447
vt 0.30544766783714294 0.82335245609283447
vt 0.10698730498552322 0
vt 0.10698730498552322 0.046704921871423721
vt 0.10698730498552322 0.015568308532238007
vt 0.10698730498552322 0.031136617064476013
vt 0.046704921871423721 0
vt 0.066799052059650421 0
vt 0.086893178522586823 0
vt 0.046704921871423721 0.046704921871423721
vt 0.046704921871423721 0.031136617064476013
vt 0.046704921871423721 0.015568308532238007
vt 0.086893178522586823 0.046704921871423721
vt 0.066799052059650421 0.046704921871423721
vt 0.046704921871423721 0.60000002384185791
vt 0.63509601354598999 0.60000002384185791
vt 0.63509601354598999 0.61556828022003174
vt 0.63509601354598999 0.63113659620285034
vt 0.53703081607818604 0.62335246801376343
vt 0.58606338500976562 0.62335246801376343
vt 0.53703081607818604 0.61167621612548828
vt 0.58606338500976562 0.61167621612548828
vt 0.53703081607818604 0.63502871990203857
vt 0.58606338500976562 0.63502871990203857
vt 0.19380268454551697 0.60000002384185791
vt 0.34090045094490051 0.60000002384185791
vt 0.48799821734428406 0.60000002384185791
vt 0.046704921871423721 0.64670491218566895
vt 0.63509601354598999 0.64670491218566895
vt 0.48799821734428406 0.64670491218566895
vt 0.34090045094490051 0.64670491218566895
vt 0.19380268454551697 0.64670491218566895
vt 0 0
vt 0.022620039060711861 0.11980494111776352
vt 0.045240078121423721 0.99853515625
vt 0.045240078121423721 0
vt 0.045240078121423721 0.076810397207736969
vt 0.045240078121423721 0.15362079441547394
vt 0.045240078121423721 0.23043118417263031
vt 0.045240078121423721 0.30724158883094788
vt 0.045240078121423721 0.38405197858810425
vt 0.045240078121423721 0.46086236834526062
vt 0.045240078121423721 0.53767281770706177
vt 0.045240078121423721 0.61448317766189575
vt 0.045240078121423721 0.69129359722137451
vt 0.045240078121423721 0.7681039571762085
vt 0.045240078121423721 0.84491437673568726
vt 0.045240078121423721 0.92172473669052124
vt 0.022620039060711861 0
vt 0.01131001953035593 0.11980494111776352
vt 0.022620039060711861 0.05990247055888176
vt 0.01131001953035593 0.05990247055888176
vt 0.033930059522390366 0.11980494111776352
vt 0.033930059522390366 0.05990247055888176
vt 0 0.99853515625
vt 0 0.92172473669052124
vt 0 0.84491437673568726
vt 0 0.7681039571762085
vt 0 0.69129359722137451
vt 0 0.61448317766189575
vt 0 0.53767281770706177
vt 0 0.46086236834526062
vt 0 0.38405197858810425
vt 0 0.30724158883094788
vt 0 0.23043118417263031
vt 0 0.15362079441547394
vt 0 0.076810397207736969
vt 0.022620039060711861 0.37445780634880066
vt 0.022620039060711861 0.50559377670288086
vt 0.022620039060711861 0.63307267427444458
vt 0.022620039060711861 0.75489354133605957
vt 0.022620039060711861 0.87671428918838501
vt 0.18342302739620209 0.24670492112636566
vt 0.18342302739620209 0.20000000298023224
vt 0.18342302739620209 0.22335246205329895
vt 0.16063666343688965 0.24670492112636566
vt 0.1378503292798996 0.24670492112636566
vt 0.11506397277116776 0.24670492112636566
vt 0.09227762371301651 0.24670492112636566
vt 0.069491274654865265 0.24670492112636566
vt 0.046704921871423721 0.20000000298023224
vt 0.069491274654865265 0.20000000298023224
vt 0.09227762371301651 0.20000000298023224
vt 0.11506397277116776 0.20000000298023224
vt 0.1378503292798996 0.20000000298023224
vt 0.16063666343688965 0.20000000298023224
vt 0.046704921871423721 0.24670492112636566
vt 0.046704921871423721 0.22335246205329895
vt 0.046704921871423721 0.40000000596046448
vt 0.33740153908729553 0.4467049241065979
vt 0.33740153908729553 0.40000000596046448
vt 0.33740153908729553 0.42335245013237
vt 0.046704921871423721 0.4467049241065979
vt 0.24050267040729523 0.4467049241065979
vt 0.14360378682613373 0.4467049241065979
vt 0.14360378682613373 0.40000000596046448
vt 0.24050267040729523 0.40000000596046448
vn 0 0.76604443788528442 0.6427876353263855
vn 0 0.76604443788528442 0.6427876353263855
vn 0 0.76604443788528442 0.6427876353263855
vn 0 0.76604443788528442 0.6427876353263855
vn 0 0.76604443788528442 0.6427876353263855
vn 0 0.76604443788528442 0.6427876353263855
vn 0 0.76604443788528442 0.6427876353263855
vn 0 0.76604443788528442 0.6427876353263855
vn 0 0.76604443788528442 0.6427876353263855
vn 0 0.76604443788528442 0.6427876353263855
vn 0 0.76604443788528442 0.6427876353263855
vn 0 0.76604443788528442 0.6427876353263855
vn 0 0.76604443788528442 0.6427876353263855
vn 0 0.76604443788528442 0.6427876353263855
vn 0 0.76604443788528442 0.6427876353263855
vn 0 0.76604443788528442 0.6427876353263855
vn 0 0.76604443788528442 0.6427876353263855
vn 0 0.76604443788528442 0.6427876353263855
vn 0 0.76604443788528442 0.6427876353263855
vn 0 0.76604443788528442 0.6427876353263855
vn 0 0.76604443788528442 0.6427876353263855
vn 0 0.76604443788528442 0.6427876353263855
vn 0 0.76604443788528442 0.6427876353263855
vn 0 0.76604443788528442 0.6427876353263855
vn 0 0.76604443788528442 0.6427876353263855
vn 0 0.76604443788528442 0.6427876353263855
vn 0 0.76604443788528442 0.6427876353263855
vn 0 0.76604443788528442 0.6427876353263855
vn 0 0.76604443788528442 0.6427876353263855
vn 0 0.76604443788528442 0.6427876353263855
vn 0 0.76604443788528442 0.6427876353263855
vn 0 0.76604443788528442 0.6427876353263855
vn 0 0.76604443788528442 0.6427876353263855
vn 0 0.76604443788528442 0.6427876353263855
vn 0 0.76604443788528442 0.6427876353263855
vn 0 0.76604443788528442 0.6427876353263855
vn 0 0.76604443788528442 0.6427876353263855
vn 0 0.76604443788528442 0.6427876353263855
vn 0 0.76604443788528442 0.6427876353263855
vn 0 0.76604443788528442 0.6427876353263855
vn 0 0.76604443788528442 0.6427876353263855
vn 0 0.76604443788528442 0.6427876353263855
vn 0 0.76604443788528442 0.6427876353263855
vn 0 0.76604443788528442 0.6427876353263855
vn 0 0.76604443788528442 0.6427876353263855
vn 0 0.76604443788528442 0.6427876353263855
vn 0 0.76604443788528442 0.6427876353263855
vn 0 0.76604443788528442 0.6427876353263855
vn 0 0.76604443788528442 0.6427876353263855
vn 0 0.76604443788528442 0.6427876353263855
vn 0 0.76604443788528442 0.6427876353263855
vn 0 0.76604443788528442 0.6427876353263855
vn 0 0.76604443788528442 0.6427876353263855
vn 0 0.76604443788528442 0.6427876353263855
vn 0 0.76604443788528442 0.6427876353263855
vn 0 0.76604443788528442 0.6427876353263855
vn 0 0.76604443788528442 0.6427876353263855
vn 0 0.76604443788528442 0.6427876353263855
vn 0 0.76604443788528442 0.6427876353263855
vn 0 0.76604443788528442 0.6427876353263855
vn 0 0.76604443788528442 0.6427876353263855
vn 0 0.76604443788528442 0.6427876353263855
vn 0 0.76604443788528442 0.6427876353263855
vn 0 0.76604443788528442 0.6427876353263855
vn 0 0.76604443788528442 0.6427876353263855
vn 0 0.76604443788528442 0.6427876353263855
vn 0 0.76604443788528442 0.6427876353263855
vn 0 0.76604443788528442 0.6427876353263855
vn 0 0.76604443788528442 0.6427876353263855
vn 0 0.76604443788528442 0.6427876353263855
vn 0 0.76604443788528442 0.6427876353263855
vn 0 0.76604443788528442 0.6427876353263855
vn 0 0.76604443788528442 0.6427876353263855
vn 0 0.76604443788528442 0.6427876353263855
vn 0 0.76604443788528442 0.6427876353263855
vn 0 0.76604443788528442 0.6427876353263855
vn 0 0.76604443788528442 0.6427876353263855
vn 0 0.76604443788528442 0.6427876353263855
vn 0 0.76604443788528442 0.6427876353263855
vn 0 0.76604443788528442 0.6427876353263855
vn 0 0.76604443788528442 0.6427876353263855
vn 0 0.76604443788528442 0.6427876353263855
vn 0 0.76604443788528442 0.6427876353263855
vn 0 0.76604443788528442 0.6427876353263855
vn 0 0.76604443788528442 0.6427876353263855
vn 0 0.76604443788528442 0.6427876353263855
vn 0 0.76604443788528442 0.6427876353263855
vn 0 0.76604443788528442 0.6427876353263855
vn 0 0.76604443788528442 0.6427876353263855
vn 0 0.76604443788528442 0.6427876353263855
vn 0 0.76604443788528442 0.6427876353263855
vn 0 0.76604443788528442 0.6427876353263855
vn 0 0.76604443788528442 0.6427876353263855
vn 0 0.76604443788528442 0.6427876353263855
vn 0 0.76604443788528442 0.6427876353263855
vn 0 0.76604443788528442 0.6427876353263855
vn 0 0.76604443788528442 0.6427876353263855
vn 0 0.76604443788528442 0.6427876353263855
vn 0 0.76604443788528442 0.6427876353263855
vn 0 0.76604443788528442 0.6427876353263855
vn 0 0.76604443788528442 0.6427876353263855
vn 0 0.76604443788528442 0.6427876353263855
vn 0.18087032437324524 0.76604443788528442 0.61681586503982544
vn 0.12149561941623688 0.76604443788528442 0.63120102882385254
vn 0.061023425310850143 0.76604443788528442 0.63988441228866577
vn 0.18087032437324524 0.76604443788528442 0.61681586503982544
vn 0.18087032437324524 0.76604443788528442 0.61681586503982544
vn 0.18087032437324524 0.76604443788528442 0.61681586503982544
vn 0.061023425310850143 0.76604443788528442 0.63988441228866577
vn 0.12149561941623688 0.76604443788528442 0.63120102882385254
vn 0.18087032437324524 0.76604443788528442 0.61681586503982544
vn 0.18087032437324524 0.76604443788528442 0.61681586503982544
vn 0.18087032437324524 0.76604443788528442 0.61681586503982544
vn 0.18087032437324524 0.76604443788528442 0.61681586503982544
vn 0.18087032437324524 0.76604443788528442 0.61681586503982544
vn 0.18087032437324524 0.76604443788528442 0.61681586503982544
vn 0.18087032437324524 0.76604443788528442 0.61681586503982544
vn 0.18087032437324524 0.76604443788528442 0.61681586503982544
vn 0.18087032437324524 0.76604443788528442 0.61681586503982544
vn 0.18087032437324524 0.76604443788528442 0.61681586503982544
vn 0.18087032437324524 0.76604443788528442 0.61681586503982544
vn 0.18087032437324524 0.76604443788528442 0.61681586503982544
vn 0.18087032437324524 0.76604443788528442 0.61681586503982544
vn 0.18087032437324524 0.76604443788528442 0.61681586503982544
vn 0.18087032437324524 0.76604443788528442 0.61681586503982544
vn 0.18087032437324524 0.76604443788528442 0.61681586503982544
vn 0.18087032437324524 0.76604443788528442 0.61681586503982544
vn 0.18087032437324524 0.76604443788528442 0.61681586503982544
vn 0.38567256927490234 0.76604443788528442 -0.51423007249832153
vn 0.50708884000778198 0.76604443788528442 -0.39501494169235229
vn 0.18087032437324524 0.76604443788528442 0.61681586503982544
vn 0.38567256927490234 0.76604443788528442 -0.51423007249832153
vn 0.4672086238861084 0.76604443788528442 -0.44146573543548584
vn 0.53524011373519897 0.76604443788528442 -0.35594090819358826
vn 0.58780056238174438 0.76604443788528442 -0.26012766361236572
vn 0.62337076663970947 0.76604443788528442 -0.15679548680782318
vn 0.64092248678207397 0.76604443788528442 -0.048931151628494263
vn 0.63994848728179932 0.76604443788528442 0.060347530990839005
vn 0.62047690153121948 0.76604443788528442 0.16788187623023987
vn 0.58307051658630371 0.76604443788528442 0.27056363224983215
vn 0.52881062030792236 0.76604443788528442 0.36542478203773499
vn 0.45926547050476074 0.76604443788528442 0.44972339272499084
vn 0.37644538283348083 0.76604443788528442 0.52102285623550415
vn 0.28274419903755188 0.76604443788528442 0.57726216316223145
vn 0.38567256927490234 0.76604443788528442 -0.51423007249832153
vn 0.50708884000778198 0.76604443788528442 -0.39501494169235229
vn 0.45034298300743103 0.76604443788528442 -0.45865795016288757
vn 0.45034298300743103 0.76604443788528442 -0.45865795016288757
vn 0.50708884000778198 0.76604443788528442 -0.39501494169235229
vn 0.45034298300743103 0.76604443788528442 -0.45865795016288757
vn 0.18087032437324524 0.76604443788528442 0.61681586503982544
vn 0.28274419903755188 0.76604443788528442 0.57726216316223145
vn 0.37644538283348083 0.76604443788528442 0.52102285623550415
vn 0.45926547050476074 0.76604443788528442 0.44972339272499084
vn 0.52881062030792236 0.76604443788528442 0.36542478203773499
vn 0.58307051658630371 0.76604443788528442 0.27056363224983215
vn 0.62047690153121948 0.76604443788528442 0.16788187623023987
vn 0.63994848728179932 0.76604443788528442 0.060347530990839005
vn 0.64092248678207397 0.76604443788528442 -0.048931151628494263
vn 0.62337076663970947 0.76604443788528442 -0.15679548680782318
vn 0.58780056238174438 0.76604443788528442 -0.26012766361236572
vn 0.53524011373519897 0.76604443788528442 -0.35594090819358826
vn 0.4672086238861084 0.76604443788528442 -0.44146573543548584
vn 0.63973736763000488 0.76604443788528442 -0.06254616379737854
vn 0.63083440065383911 0.76604443788528442 0.12338512390851974
vn 0.57143276929855347 0.76604443788528442 0.29434755444526672
vn 0.47223278880119324 0.76604443788528442 0.43608725070953369
vn 0.33882388472557068 0.76604443788528442 0.54623645544052124
vn 0.38567256927490234 0.76604443788528442 -0.51423007249832153
vn 0.38567256927490234 0.76604443788528442 -0.51423007249832153
vn 0.38567256927490234 0.76604443788528442 -0.51423007249832153
vn 0.46023359894752502 0.76604443788528442 -0.44873261451721191
vn 0.52382361888885498 0.76604443788528442 -0.3725382387638092
vn 0.57492673397064209 0.76604443788528442 -0.28746333718299866
vn 0.61232477426528931 0.76604443788528442 -0.19553591310977936
vn 0.63512623310089111 0.76604443788528442 -0.098947294056415558
vn 0.6427876353263855 0.76604443788528442 1.3190001979523913E-08
vn 0.63512623310089111 0.76604443788528442 -0.098947301506996155
vn 0.61232477426528931 0.76604443788528442 -0.19553591310977936
vn 0.57492673397064209 0.76604443788528442 -0.28746336698532104
vn 0.52382361888885498 0.76604443788528442 -0.3725382387638092
vn 0.46023359894752502 0.76604443788528442 -0.44873261451721191
vn 0.6427876353263855 0.76604443788528442 1.7587058920298659E-08
vn 0.6427876353263855 0.76604443788528442 1.5388531338089706E-08
vn 0.6427876353263855 0.76604443788528442 0
vn 0.6427876353263855 0.76604443788528442 0
vn 0.6427876353263855 0.76604443788528442 0
vn 0.6427876353263855 0.76604443788528442 0
vn 0.6427876353263855 0.76604443788528442 0
vn 0.6427876353263855 0.76604443788528442 0
vn 0.6427876353263855 0.76604443788528442 0
vn 0.6427876353263855 0.76604443788528442 0
vn 0.6427876353263855 0.76604443788528442 0
f 3/3/3 51/51/51 52/52/52 45/45/45
f 18/18/18 22/22/22 21/21/21 5/5/5
f 91/91/91 44/44/44 92/92/92 93/93/93
f 93/93/93 92/92/92 46/46/46 57/57/57
f 48/48/48 46/46/46 92/92/92
f 92/92/92 44/44/44 3/3/3
f 3/3/3 45/45/45 48/48/48
f 48/48/48 92/92/92 3/3/3
f 54/54/54 47/47/47 46/46/46
f 48/48/48 50/50/50 54/54/54
f 46/46/46 48/48/48 54/54/54
f 48/48/48 45/45/45 49/49/49 50/50/50
f 60/60/60 53/53/53 47/47/47
f 54/54/54 56/56/56 60/60/60
f 47/47/47 54/54/54 60/60/60
f 54/54/54 50/50/50 55/55/55 56/56/56
f 53/53/53 60/60/60 62/62/62 59/59/59
f 60/60/60 56/56/56 61/61/61 62/62/62
f 88/88/88 57/57/57 89/89/89 90/90/90
f 90/90/90 89/89/89 58/58/58 72/72/72
f 64/64/64 58/58/58 89/89/89
f 89/89/89 57/57/57 46/46/46
f 46/46/46 47/47/47 64/64/64
f 64/64/64 89/89/89 46/46/46
f 70/70/70 63/63/63 58/58/58
f 64/64/64 65/65/65 70/70/70
f 58/58/58 64/64/64 70/70/70
f 67/67/67 65/65/65 64/64/64
f 47/47/47 53/53/53 67/67/67
f 64/64/64 47/47/47 67/67/67
f 65/65/65 67/67/67 68/68/68 66/66/66
f 67/67/67 53/53/53 59/59/59 68/68/68
f 63/63/63 70/70/70 71/71/71 69/69/69
f 70/70/70 65/65/65 66/66/66 71/71/71
f 85/85/85 72/72/72 86/86/86 87/87/87
f 87/87/87 86/86/86 73/73/73 79/79/79
f 75/75/75 73/73/73 86/86/86
f 86/86/86 72/72/72 58/58/58
f 58/58/58 63/63/63 75/75/75
f 75/75/75 86/86/86 58/58/58
f 77/77/77 74/74/74 73/73/73
f 75/75/75 76/76/76 77/77/77
f 73/73/73 75/75/75 77/77/77
f 75/75/75 63/63/63 69/69/69 76/76/76
f 78/78/78 77/77/77 76/76/76
f 82/82/82 79/79/79 83/83/83 84/84/84
f 84/84/84 83/83/83 80/80/80
f 81/81/81 80/80/80 83/83/83
f 83/83/83 79/79/79 73/73/73
f 73/73/73 74/74/74 81/81/81
f 81/81/81 83/83/83 73/73/73
f 94/94/94 4/4/4 95/95/95 96/96/96
f 96/96/96 95/95/95 3/3/3 44/44/44
f 20/20/20 18/18/18 5/5/5 19/19/19
f 15/15/15 1/1/1 52/52/52
f 49/49/49 52/52/52 1/1/1
f 49/49/49 23/23/23 55/55/55
f 52/52/52 49/49/49 45/45/45
f 23/23/23 49/49/49 1/1/1
f 51/51/51 14/14/14 15/15/15
f 95/95/95 51/51/51 3/3/3
f 52/52/52 51/51/51 15/15/15
f 14/14/14 51/51/51 95/95/95
f 95/95/95 4/4/4 13/13/13 14/14/14
f 49/49/49 55/55/55 50/50/50
f 62/62/62 61/61/61 23/23/23
f 61/61/61 56/56/56 55/55/55
f 59/59/59 62/62/62 24/24/24
f 23/23/23 24/24/24 62/62/62
f 68/68/68 59/59/59 24/24/24
f 91/91/91 96/96/96 44/44/44
f 94/94/94 96/96/96 36/36/36 37/37/37
f 68/68/68 24/24/24 25/25/25
f 23/23/23 61/61/61 55/55/55
f 12/12/12 97/97/97 11/11/11
f 9/9/9 10/10/10 97/97/97 98/98/98
f 9/9/9 98/98/98 8/8/8
f 97/97/97 10/10/10 11/11/11
f 21/21/21 7/7/7 8/8/8
f 2/2/2 7/7/7 22/22/22
f 21/21/21 22/22/22 7/7/7
f 17/17/17 2/2/2 22/22/22
f 98/98/98 21/21/21 8/8/8
f 4/4/4 12/12/12 13/13/13
f 97/97/97 4/4/4 38/38/38 39/39/39
f 19/19/19 5/5/5 98/98/98
f 19/19/19 98/98/98 42/42/42
f 98/98/98 97/97/97 40/40/40 41/41/41
f 98/98/98 5/5/5 21/21/21
f 16/16/16 17/17/17 22/22/22 18/18/18
f 16/16/16 18/18/18 20/20/20
f 19/19/19 43/43/43 20/20/20
f 6/6/6 16/16/16 20/20/20
f 4/4/4 94/94/94 38/38/38
f 4/4/4 97/97/97 12/12/12
f 26/26/26 71/71/71 25/25/25
f 78/78/78 27/27/27 28/28/28
f 77/77/77 78/78/78 28/28/28
f 69/69/69 26/26/26 27/27/27
f 27/27/27 78/78/78 76/76/76
f 25/25/25 71/71/71 66/66/66
f 27/27/27 76/76/76 69/69/69
f 69/69/69 71/71/71 26/26/26
f 77/77/77 28/28/28 74/74/74
f 29/29/29 81/81/81 74/74/74
f 80/80/80 81/81/81 30/30/30
f 29/29/29 30/30/30 81/81/81
f 29/29/29 74/74/74 28/28/28
f 31/31/31 80/80/80 30/30/30
f 84/84/84 80/80/80 31/31/31
f 84/84/84 33/33/33 34/34/34
f 32/32/32 33/33/33 84/84/84
f 84/84/84 31/31/31 32/32/32
f 82/82/82 84/84/84 34/34/34
f 85/85/85 87/87/87 82/82/82
f 79/79/79 82/82/82 87/87/87
f 85/85/85 82/82/82 34/34/34
f 90/90/90 72/72/72 85/85/85
f 88/88/88 93/93/93 57/57/57
f 35/35/35 91/91/91 93/93/93
f 85/85/85 88/88/88 90/90/90
f 93/93/93 88/88/88 35/35/35
f 35/35/35 88/88/88 85/85/85
f 91/91/91 35/35/35 36/36/36
f 37/37/37 38/38/38 94/94/94
f 43/43/43 19/19/19 42/42/42
f 6/6/6 20/20/20 43/43/43
f 42/42/42 98/98/98 41/41/41
f 39/39/39 40/40/40 97/97/97
f 85/85/85 34/34/34 35/35/35
f 96/96/96 91/91/91 36/36/36
f 66/66/66 68/68/68 25/25/25
f 108/108/108 103/103/103 104/104/104
f 110/110/110 108/108/108 104/104/104
f 106/106/106 107/107/107 110/110/110
f 108/108/108 110/110/110 107/107/107
f 110/110/110 104/104/104 105/105/105
f 101/101/101 105/105/105 99/99/99
f 110/110/110 101/101/101 102/102/102
f 100/100/100 109/109/109 102/102/102
f 102/102/102 109/109/109 110/110/110
f 101/101/101 110/110/110 105/105/105
f 115/115/115 117/117/117 118/118/118 116/116/116
f 119/119/119 115/115/115 116/116/116 120/120/120
f 117/117/117 112/112/112 118/118/118
f 113/113/113 118/118/118 112/112/112
f 118/118/118 113/113/113 116/116/116
f 113/113/113 114/114/114 120/120/120 116/116/116
f 122/122/122 123/123/123 126/126/126 127/127/127
f 121/121/121 122/122/122 127/127/127 128/128/128
f 115/115/115 123/123/123 117/117/117
f 111/111/111 121/121/121 128/128/128 124/124/124
f 117/117/117 123/123/123 112/112/112
f 114/114/114 125/125/125 120/120/120
f 125/125/125 126/126/126 119/119/119 120/120/120
f 115/115/115 119/119/119 126/126/126
f 123/123/123 115/115/115 126/126/126
f 130/130/130 147/147/147 150/150/150 149/149/149
f 146/146/146 148/148/148 147/147/147 130/130/130
f 150/150/150 132/132/132 133/133/133
f 133/133/133 149/149/149 150/150/150
f 145/145/145 132/132/132 150/150/150 147/147/147
f 149/149/149 133/133/133 134/134/134
f 149/149/149 135/135/135 130/130/130
f 135/135/135 136/136/136 164/164/164
f 135/135/135 164/164/164 130/130/130
f 137/137/137 164/164/164 136/136/136
f 134/134/134 135/135/135 149/149/149
f 129/129/129 145/145/145 148/148/148
f 148/148/148 145/145/145 147/147/147
f 129/129/129 148/148/148 163/163/163
f 146/146/146 163/163/163 148/148/148
f 162/162/162 163/163/163 146/146/146
f 162/162/162 146/146/146 161/161/161
f 161/161/161 146/146/146 130/130/130
f 164/164/164 160/160/160 161/161/161
f 164/164/164 159/159/159 160/160/160
f 158/158/158 159/159/159 164/164/164
f 164/164/164 161/161/161 130/130/130
f 138/138/138 164/164/164 137/137/137
f 165/165/165 138/138/138 139/139/139
f 166/166/166 165/165/165 139/139/139 140/140/140
f 141/141/141 166/166/166 140/140/140
f 165/165/165 166/166/166 156/156/156 157/157/157
f 164/164/164 165/165/165 158/158/158
f 167/167/167 166/166/166 141/141/141 142/142/142
f 142/142/142 143/143/143 168/168/168 167/167/167
f 144/144/144 168/168/168 143/143/143
f 131/131/131 168/168/168 144/144/144
f 158/158/158 165/165/165 157/157/157
f 166/166/166 167/167/167 154/154/154 155/155/155
f 155/155/155 156/156/156 166/166/166
f 153/153/153 154/154/154 167/167/167 168/168/168
f 168/168/168 152/152/152 153/153/153
f 168/168/168 151/151/151 152/152/152
f 151/151/151 168/168/168 131/131/131
f 138/138/138 165/165/165 164/164/164
f 178/178/178 177/177/177 184/184/184
f 184/184/184 179/179/179 178/178/178
f 175/175/175 179/179/179 184/184/184
f 184/184/184 183/183/183 176/176/176
f 174/174/174 180/180/180 179/179/179 175/175/175
f 175/175/175 184/184/184 176/176/176
f 180/180/180 174/174/174 173/173/173 181/181/181
f 171/171/171 170/170/170 182/182/182
f 171/171/171 182/182/182 181/181/181
f 171/171/171 173/173/173 172/172/172
f 172/172/172 169/169/169 171/171/171
f 171/171/171 181/181/181 173/173/173
f 188/188/188 193/193/193 187/187/187
f 185/185/185 192/192/192 191/191/191 189/189/189
f 192/192/192 193/193/193 190/190/190 191/191/191
f 190/190/190 188/188/188 186/186/186
f 190/190/190 193/193/193 188/188/188
