# Rhino

mtllib 04打磨面.mtl
usemtl Default
v -310 660 60
v -310 600 60
v -310 660 644
v -310 660 449.33334350585938
v -310 660 254.66667175292969
v -310 600 248.33332824707031
v -310 600 436.66665649414062
v -310 600 625
v -310 642 660
v -310 646.57440185546875 660
v -310 630 510
v -310 645 510
v -310 630 585
v -310 645 585
v -310 637.5 585
v -310 630 622.5
v -310 645 622.5
v -310 637.5 622.5
v -310 615 510
v -310 615 585
v -310 641.25 622.5
v -310 645 641.25
v -310 652.5 585
v -310 652.5 622.5
v -310 648.75 622.5
v -310 652.5 641.25
v -310 648.75 641.25
v -310 642 625
v -310 660 60
v -310 600 60
v 100 600 60
v -178.66667175292969 660 60
v -47.333332061767578 660 60
v 84 660 60
v -36.666667938232422 600 60
v -173.33332824707031 600 60
v 100 646.57440185546875 60
v -2.5 630 60
v 48.75 630 60
v -2.5 645 60
v 48.75 645 60
v -200.7230224609375 660 640.60601806640625
v -224.35929870605469 646.57440185546875 660
v -210.14578247070312 646.57440185546875 658.9847412109375
v -212.41995239257812 660 643.14715576171875
v -196.22088623046875 646.57440185546875 655.95953369140625
v -198.47195434570312 653.2872314453125 648.28277587890625
v -224.35929870605469 660 644
v -224.35929870605469 653.2872314453125 652
v -147.972412109375 653.2872314453125 633.47467041015625
v -196.22088623046875 646.57440185546875 655.95953369140625
v -200.7230224609375 660 640.60601806640625
v -198.47195434570312 653.2872314453125 648.28277587890625
v -173.22218322753906 653.2872314453125 640.87872314453125
v -149.09794616699219 656.64361572265625 629.63629150390625
v -174.34771728515625 656.64361572265625 637.04034423828125
v -146.84686279296875 649.9307861328125 637.31304931640625
v -172.09664916992188 649.9307861328125 644.71710205078125
v 51.774703979492188 660 566.56549072265625
v 15.703600883483887 660 577.1427001953125
v -20.367504119873047 660 587.71990966796875
v -56.438610076904297 660 598.297119140625
v -92.509712219238281 660 608.87432861328125
v -128.580810546875 660 619.45159912109375
v -164.65191650390625 660 630.02880859375
v 56.27685546875 646.57440185546875 581.91900634765625
v -160.1497802734375 646.57440185546875 645.38232421875
v -124.07866668701172 646.57440185546875 634.80511474609375
v -88.007568359375 646.57440185546875 624.2279052734375
v -51.936458587646484 646.57440185546875 613.65069580078125
v -15.865355491638184 646.57440185546875 603.073486328125
v 20.20574951171875 646.57440185546875 592.4962158203125
v -46.973312377929688 653.2872314453125 603.85845947265625
v 3.5262329578399658 653.2872314453125 589.05035400390625
v 51.774703979492188 660 566.56549072265625
v 110.40000152587891 660 242.80000305175781
v 133.73995971679688 660 263.6290283203125
v 153.21418762207031 660 288.11077880859375
v 168.25978088378906 660 315.53762817382812
v 178.44186401367188 660 345.11679077148438
v 183.46611022949219 660 375.99331665039062
v 183.18730163574219 660 407.274658203125
v 177.61349487304688 660 438.05673217773438
v 166.90579223632812 660 467.44970703125
v 151.37371826171875 660 494.60400390625
v 131.46620178222656 660 518.7347412109375
v 107.75868988037109 660 539.14447021484375
v 80.936424255371094 660 555.2431640625
v 120 646.57440185546875 230
v 115.19999694824219 653.2872314453125 236.39999389648438
v 56.27685546875 646.57440185546875 581.91900634765625
v 87.974372863769531 646.57440185546875 569.61212158203125
v 117.12900543212891 646.57440185546875 552.113525390625
v 142.89805603027344 646.57440185546875 529.9290771484375
v 164.53665161132812 646.57440185546875 503.70001220703125
v 181.41934204101562 646.57440185546875 474.1844482421875
v 193.05813598632812 646.57440185546875 442.23556518554688
v 199.11662292480469 646.57440185546875 408.77682495117188
v 199.419677734375 646.57440185546875 374.77532958984375
v 193.95854187011719 646.57440185546875 341.21389770507812
v 182.89106750488281 646.57440185546875 309.0626220703125
v 166.53715515136719 646.57440185546875 279.2508544921875
v 145.36952209472656 646.57440185546875 252.64024353027344
v 100 646.57440185546875 190
v 120 646.57440185546875 230
v 115.19999694824219 653.2872314453125 236.39999389648438
v 110.40000152587891 660 242.80000305175781
v 102.74423980712891 660 236.07485961914062
v 96.214958190917969 660 228.25140380859375
v 90.967803955078125 660 219.51609802246094
v 87.127861022949219 660 210.07719421386719
v 84.786651611328125 660 200.15968322753906
v 100.595947265625 646.57440185546875 197.69673156738281
v 102.36959075927734 646.57440185546875 205.20999145507812
v 105.27864074707031 646.57440185546875 212.36068725585938
v 109.25376129150391 646.57440185546875 218.97833251953125
v 114.20018005371094 646.57440185546875 224.90519714355469
v 84 660 190
v 92 653.2872314453125 190
v 93.768035888671875 653.2872314453125 204.21148681640625
v 105.70525360107422 653.2872314453125 227.44296264648438
v 84 660 60
v 100 646.57440185546875 190
v 84 660 190
v 92 653.2872314453125 190
v 100 646.57440185546875 60
v 100 646.57440185546875 146.66667175292969
v 100 646.57440185546875 103.33333587646484
v 84 660 103.33333587646484
v 84 660 146.66667175292969
v -310 660 644
v -224.35929870605469 660 644
v -310 646.57440185546875 660
v -224.35929870605469 646.57440185546875 660
v -224.35929870605469 653.2872314453125 652
v -267.17965698242188 660 644
v -267.17965698242188 646.57440185546875 660
vt 0.098535157740116119 0.99853515625
vt 0 0.99853515625
vt 0.098535157740116119 0.02662760391831398
vt 0.098535157740116119 0.35059678554534912
vt 0.098535157740116119 0.67456597089767456
vt 0 0.68510603904724121
vt 0 0.3716769814491272
vt 0 0.058247882872819901
vt 0.068974606692790985 0
vt 0.076486937701702118 0
vt 0.04926757887005806 0.2496337890625
vt 0.073901370167732239 0.2496337890625
vt 0.04926757887005806 0.12481689453125
vt 0.073901370167732239 0.12481689453125
vt 0.06158447265625 0.12481689453125
vt 0.04926757887005806 0.062408447265625
vt 0.073901370167732239 0.062408447265625
vt 0.06158447265625 0.062408447265625
vt 0.02463378943502903 0.2496337890625
vt 0.02463378943502903 0.12481689453125
vt 0.067742921411991119 0.062408447265625
vt 0.073901370167732239 0.0312042236328125
vt 0.086218260228633881 0.12481689453125
vt 0.086218260228633881 0.062408447265625
vt 0.080059811472892761 0.062408447265625
vt 0.086218260228633881 0.0312042236328125
vt 0.080059811472892761 0.0312042236328125
vt 0.068974606692790985 0.058247882872819901
vt 0.10000000149011612 0.45082274079322815
vt 0.10000000149011612 0.55082273483276367
vt 0.78333336114883423 0.55082273483276367
vt 0.31888887286186218 0.45082274079322815
vt 0.53777778148651123 0.45082274079322815
vt 0.75666666030883789 0.45082274079322815
vt 0.55555558204650879 0.55082273483276367
vt 0.32777777314186096 0.55082273483276367
vt 0.78333336114883423 0.47319874167442322
vt 0.61250001192092896 0.50082272291183472
vt 0.69791668653488159 0.50082272291183472
vt 0.61250001192092896 0.47582274675369263
vt 0.69791668653488159 0.47582274675369263
vt 0.10000000149011612 0
vt 0.1449306309223175 0.034810859709978104
vt 0.12246531248092651 0.034810859709978104
vt 0.12246531248092651 0
vt 0.10000000149011612 0.034810859709978104
vt 0.10000000149011612 0.017405429854989052
vt 0.1449306309223175 0
vt 0.1449306309223175 0.017405429854989052
vt 0.45083925127983093 0.79199403524398804
vt 0.53854906558990479 0.80939948558807373
vt 0.53854906558990479 0.77458864450454712
vt 0.53854906558990479 0.79199403524398804
vt 0.49469414353370667 0.79199403524398804
vt 0.45083925127983093 0.78329133987426758
vt 0.49469414353370667 0.78329133987426758
vt 0.45083925127983093 0.80069679021835327
vt 0.49469414353370667 0.80069679021835327
vt 0.10000000149011612 0.77458864450454712
vt 0.16264985501766205 0.77458864450454712
vt 0.22529971599578857 0.77458864450454712
vt 0.28794959187507629 0.77458864450454712
vt 0.35059946775436401 0.77458864450454712
vt 0.41324931383132935 0.77458864450454712
vt 0.47589918971061707 0.77458864450454712
vt 0.10000000149011612 0.80939948558807373
vt 0.47589918971061707 0.80939948558807373
vt 0.41324931383132935 0.80939948558807373
vt 0.35059946775436401 0.80939948558807373
vt 0.28794959187507629 0.80939948558807373
vt 0.22529971599578857 0.80939948558807373
vt 0.16264985501766205 0.80939948558807373
vt 0.27541962265968323 0.79199403524398804
vt 0.18770980834960938 0.79199403524398804
vt 0.84387117624282837 0.88729429244995117
vt 0.10000000149011612 0.88729429244995117
vt 0.15722085535526276 0.88729429244995117
vt 0.21444171667098999 0.88729429244995117
vt 0.27166259288787842 0.88729429244995117
vt 0.32888343930244446 0.88729429244995117
vt 0.38610431551933289 0.88729429244995117
vt 0.44332516193389893 0.88729429244995117
vt 0.50054603815078735 0.88729429244995117
vt 0.55776691436767578 0.88729429244995117
vt 0.61498773097991943 0.88729429244995117
vt 0.67220860719680786 0.88729429244995117
vt 0.72942948341369629 0.88729429244995117
vt 0.78665030002593994 0.88729429244995117
vt 0.10000000149011612 0.92210519313812256
vt 0.10000000149011612 0.90469974279403687
vt 0.84387117624282837 0.92210519313812256
vt 0.78665030002593994 0.92210519313812256
vt 0.72942948341369629 0.92210519313812256
vt 0.67220860719680786 0.92210519313812256
vt 0.61498773097991943 0.92210519313812256
vt 0.55776691436767578 0.92210519313812256
vt 0.50054603815078735 0.92210519313812256
vt 0.44332516193389893 0.92210519313812256
vt 0.38610431551933289 0.92210519313812256
vt 0.32888343930244446 0.92210519313812256
vt 0.27166259288787842 0.92210519313812256
vt 0.21444171667098999 0.92210519313812256
vt 0.15722085535526276 0.92210519313812256
vt 0.10000000149011612 0.11270568519830704
vt 0.201900914311409 0.11270568519830704
vt 0.201900914311409 0.13011111319065094
vt 0.201900914311409 0.14751654863357544
vt 0.18491743505001068 0.14751654863357544
vt 0.16793395578861237 0.14751654863357544
vt 0.15095046162605286 0.14751654863357544
vt 0.13396696746349335 0.14751654863357544
vt 0.11698348820209503 0.14751654863357544
vt 0.11698348820209503 0.11270568519830704
vt 0.13396696746349335 0.11270568519830704
vt 0.15095046162605286 0.11270568519830704
vt 0.16793395578861237 0.11270568519830704
vt 0.18491743505001068 0.11270568519830704
vt 0.10000000149011612 0.14751654863357544
vt 0.10000000149011612 0.13011111319065094
vt 0.12720297276973724 0.13011111319065094
vt 0.17711754143238068 0.13011111319065094
vt 0.10000000149011612 0.33811706304550171
vt 0.31666666269302368 0.37292793393135071
vt 0.31666666269302368 0.33811706304550171
vt 0.31666666269302368 0.35552248358726501
vt 0.10000000149011612 0.37292793393135071
vt 0.24444444477558136 0.37292793393135071
vt 0.17222221195697784 0.37292793393135071
vt 0.17222221195697784 0.33811706304550171
vt 0.24444444477558136 0.33811706304550171
vt 0.24273449182510376 0.22541137039661407
vt 0.10000000149011612 0.22541137039661407
vt 0.24273449182510376 0.26022222638130188
vt 0.10000000149011612 0.26022222638130188
vt 0.10000000149011612 0.24281680583953857
vt 0.17136724293231964 0.22541137039661407
vt 0.17136724293231964 0.26022222638130188
vn -1 0 0
vn -1 0 0
vn -1 0 0
vn -1 0 0
vn -1 0 0
vn -1 0 0
vn -1 0 0
vn -1 0 0
vn -1 0 0
vn -1 0 0
vn -1 0 0
vn -1 0 0
vn -1 0 0
vn -1 0 0
vn -1 0 0
vn -1 0 0
vn -1 0 0
vn -1 0 0
vn -1 0 0
vn -1 0 0
vn -1 0 0
vn -1 0 0
vn -1 0 0
vn -1 0 0
vn -1 0 0
vn -1 0 0
vn -1 0 0
vn -1 0 0
vn 0 0 -1
vn 0 0 -1
vn 0 0 -1
vn 0 0 -1
vn 0 0 -1
vn 0 0 -1
vn 0 0 -1
vn 0 0 -1
vn 0 0 -1
vn 0 0 -1
vn 0 0 -1
vn 0 0 -1
vn 0 0 -1
vn 0.18087032437324524 0.76604443788528442 0.61681586503982544
vn 0 0.76604443788528442 0.6427876353263855
vn 0.091362744569778442 0.76604443788528442 0.63626152276992798
vn 0.091362744569778442 0.76604443788528442 0.63626152276992798
vn 0.18087032437324524 0.76604443788528442 0.61681586503982544
vn 0.18087032437324524 0.76604443788528442 0.61681586503982544
vn 0 0.76604443788528442 0.6427876353263855
vn 0 0.76604443788528442 0.6427876353263855
vn 0.18087032437324524 0.76604443788528442 0.61681586503982544
vn 0.18087032437324524 0.76604443788528442 0.61681586503982544
vn 0.18087032437324524 0.76604443788528442 0.61681586503982544
vn 0.18087032437324524 0.76604443788528442 0.61681586503982544
vn 0.18087032437324524 0.76604443788528442 0.61681586503982544
vn 0.18087032437324524 0.76604443788528442 0.61681586503982544
vn 0.18087032437324524 0.76604443788528442 0.61681586503982544
vn 0.18087032437324524 0.76604443788528442 0.61681586503982544
vn 0.18087032437324524 0.76604443788528442 0.61681586503982544
vn 0.18087032437324524 0.76604443788528442 0.61681586503982544
vn 0.18087032437324524 0.76604443788528442 0.61681586503982544
vn 0.18087032437324524 0.76604443788528442 0.61681586503982544
vn 0.18087032437324524 0.76604443788528442 0.61681586503982544
vn 0.18087032437324524 0.76604443788528442 0.61681586503982544
vn 0.18087032437324524 0.76604443788528442 0.61681586503982544
vn 0.18087032437324524 0.76604443788528442 0.61681586503982544
vn 0.18087032437324524 0.76604443788528442 0.61681586503982544
vn 0.18087032437324524 0.76604443788528442 0.61681586503982544
vn 0.18087032437324524 0.76604443788528442 0.61681586503982544
vn 0.18087032437324524 0.76604443788528442 0.61681586503982544
vn 0.18087032437324524 0.76604443788528442 0.61681586503982544
vn 0.18087032437324524 0.76604443788528442 0.61681586503982544
vn 0.18087032437324524 0.76604443788528442 0.61681586503982544
vn 0.18087032437324524 0.76604443788528442 0.61681586503982544
vn 0.18087032437324524 0.76604443788528442 0.61681586503982544
vn 0.18087032437324524 0.76604443788528442 0.61681586503982544
vn 0.38567256927490234 0.76604443788528442 -0.51423007249832153
vn 0.4672086238861084 0.76604443788528442 -0.44146573543548584
vn 0.53524011373519897 0.76604443788528442 -0.35594090819358826
vn 0.58780056238174438 0.76604443788528442 -0.26012766361236572
vn 0.62337076663970947 0.76604443788528442 -0.15679548680782318
vn 0.64092248678207397 0.76604443788528442 -0.048931151628494263
vn 0.63994848728179932 0.76604443788528442 0.060347530990839005
vn 0.62047690153121948 0.76604443788528442 0.16788187623023987
vn 0.58307051658630371 0.76604443788528442 0.27056363224983215
vn 0.52881062030792236 0.76604443788528442 0.36542478203773499
vn 0.45926547050476074 0.76604443788528442 0.44972339272499084
vn 0.37644538283348083 0.76604443788528442 0.52102285623550415
vn 0.28274419903755188 0.76604443788528442 0.57726216316223145
vn 0.38567256927490234 0.76604443788528442 -0.51423007249832153
vn 0.38567256927490234 0.76604443788528442 -0.51423007249832153
vn 0.18087032437324524 0.76604443788528442 0.61681586503982544
vn 0.28274419903755188 0.76604443788528442 0.57726216316223145
vn 0.37644538283348083 0.76604443788528442 0.52102285623550415
vn 0.45926547050476074 0.76604443788528442 0.44972339272499084
vn 0.52881056070327759 0.76604443788528442 0.36542478203773499
vn 0.58307051658630371 0.76604443788528442 0.27056363224983215
vn 0.62047690153121948 0.76604443788528442 0.16788187623023987
vn 0.63994848728179932 0.76604443788528442 0.060347530990839005
vn 0.64092248678207397 0.76604443788528442 -0.048931151628494263
vn 0.62337076663970947 0.76604443788528442 -0.15679548680782318
vn 0.58780056238174438 0.76604443788528442 -0.26012766361236572
vn 0.53524011373519897 0.76604443788528442 -0.35594090819358826
vn 0.4672086238861084 0.76604443788528442 -0.44146573543548584
vn 0.6427876353263855 0.76604443788528442 0
vn 0.38567256927490234 0.76604443788528442 -0.51423007249832153
vn 0.38567256927490234 0.76604443788528442 -0.51423007249832153
vn 0.38567256927490234 0.76604443788528442 -0.51423007249832153
vn 0.46023359894752502 0.76604443788528442 -0.44873261451721191
vn 0.52382361888885498 0.76604443788528442 -0.37253826856613159
vn 0.57492673397064209 0.76604443788528442 -0.28746336698532104
vn 0.61232477426528931 0.76604443788528442 -0.19553591310977936
vn 0.63512623310089111 0.76604443788528442 -0.098947308957576752
vn 0.63512623310089111 0.76604443788528442 -0.098947308957576752
vn 0.61232477426528931 0.76604443788528442 -0.19553592801094055
vn 0.57492673397064209 0.76604443788528442 -0.28746336698532104
vn 0.52382361888885498 0.76604443788528442 -0.37253826856613159
vn 0.46023359894752502 0.76604443788528442 -0.44873261451721191
vn 0.6427876353263855 0.76604443788528442 0
vn 0.6427876353263855 0.76604443788528442 0
vn 0.62319326400756836 0.76604443788528442 -0.15749946236610413
vn 0.49089851975440979 0.76604443788528442 -0.41496333479881287
vn 0.6427876353263855 0.76604443788528442 0
vn 0.6427876353263855 0.76604443788528442 0
vn 0.6427876353263855 0.76604443788528442 0
vn 0.6427876353263855 0.76604443788528442 0
vn 0.6427876353263855 0.76604443788528442 0
vn 0.6427876353263855 0.76604443788528442 0
vn 0.6427876353263855 0.76604443788528442 0
vn 0.6427876353263855 0.76604443788528442 0
vn 0.6427876353263855 0.76604443788528442 0
vn 0 0.76604443788528442 0.6427876353263855
vn 0 0.76604443788528442 0.6427876353263855
vn 0 0.76604443788528442 0.6427876353263855
vn 0 0.76604443788528442 0.6427876353263855
vn 0 0.76604443788528442 0.6427876353263855
vn 0 0.76604443788528442 0.6427876353263855
vn 0 0.76604443788528442 0.6427876353263855
f 19/19/19 20/20/20 13/13/13 11/11/11
f 15/15/15 14/14/14 12/12/12
f 11/11/11 13/13/13 15/15/15
f 12/12/12 11/11/11 15/15/15
f 13/13/13 16/16/16 18/18/18 15/15/15
f 21/21/21 17/17/17 14/14/14
f 15/15/15 18/18/18 21/21/21
f 14/14/14 15/15/15 21/21/21
f 25/25/25 24/24/24 23/23/23
f 14/14/14 17/17/17 25/25/25
f 23/23/23 14/14/14 25/25/25
f 17/17/17 22/22/22 27/27/27 25/25/25
f 25/25/25 27/27/27 26/26/26 24/24/24
f 26/26/26 10/10/10 3/3/3
f 24/24/24 26/26/26 3/3/3
f 27/27/27 10/10/10 26/26/26
f 10/10/10 27/27/27 22/22/22
f 24/24/24 3/3/3 23/23/23
f 9/9/9 10/10/10 22/22/22
f 28/28/28 9/9/9 22/22/22
f 16/16/16 28/28/28 18/18/18
f 28/28/28 17/17/17 21/21/21
f 16/16/16 8/8/8 28/28/28
f 28/28/28 21/21/21 18/18/18
f 28/28/28 22/22/22 17/17/17
f 20/20/20 8/8/8 16/16/16
f 14/14/14 23/23/23 12/12/12
f 4/4/4 12/12/12 23/23/23
f 11/11/11 12/12/12 4/4/4
f 5/5/5 11/11/11 4/4/4
f 4/4/4 23/23/23 3/3/3
f 5/5/5 1/1/1 2/2/2 6/6/6
f 16/16/16 13/13/13 20/20/20
f 7/7/7 8/8/8 20/20/20 19/19/19
f 7/7/7 19/19/19 11/11/11
f 6/6/6 7/7/7 11/11/11
f 11/11/11 5/5/5 6/6/6
f 39/39/39 38/38/38 40/40/40 41/41/41
f 29/29/29 32/32/32 36/36/36 30/30/30
f 38/38/38 36/36/36 32/32/32
f 36/36/36 38/38/38 35/35/35
f 33/33/33 38/38/38 32/32/32
f 34/34/34 41/41/41 40/40/40
f 33/33/33 34/34/34 40/40/40
f 37/37/37 41/41/41 34/34/34
f 31/31/31 35/35/35 38/38/38 39/39/39
f 37/37/37 39/39/39 41/41/41
f 39/39/39 37/37/37 31/31/31
f 33/33/33 40/40/40 38/38/38
f 47/47/47 42/42/42 45/45/45
f 47/47/47 44/44/44 46/46/46
f 44/44/44 47/47/47 45/45/45
f 45/45/45 49/49/49 44/44/44
f 49/49/49 43/43/43 44/44/44
f 48/48/48 49/49/49 45/45/45
f 50/50/50 55/55/55 56/56/56 54/54/54
f 57/57/57 50/50/50 54/54/54 58/58/58
f 65/65/65 52/52/52 56/56/56
f 53/53/53 54/54/54 56/56/56
f 55/55/55 65/65/65 56/56/56
f 63/63/63 55/55/55 50/50/50
f 53/53/53 56/56/56 52/52/52
f 64/64/64 65/65/65 55/55/55
f 55/55/55 63/63/63 64/64/64
f 63/63/63 73/73/73 62/62/62
f 61/61/61 74/74/74 60/60/60
f 60/60/60 74/74/74 59/59/59
f 73/73/73 61/61/61 62/62/62
f 73/73/73 63/63/63 50/50/50
f 51/51/51 58/58/58 53/53/53
f 67/67/67 57/57/57 58/58/58
f 57/57/57 69/69/69 50/50/50
f 58/58/58 51/51/51 67/67/67
f 57/57/57 67/67/67 68/68/68
f 69/69/69 57/57/57 68/68/68
f 74/74/74 73/73/73 70/70/70 71/71/71
f 69/69/69 73/73/73 50/50/50
f 69/69/69 70/70/70 73/73/73
f 61/61/61 73/73/73 74/74/74
f 74/74/74 72/72/72 66/66/66
f 74/74/74 71/71/71 72/72/72
f 59/59/59 74/74/74 66/66/66
f 58/58/58 54/54/54 53/53/53
f 90/90/90 76/76/76 77/77/77
f 77/77/77 78/78/78 102/102/102 103/103/103
f 79/79/79 80/80/80 100/100/100 101/101/101
f 81/81/81 82/82/82 98/98/98 99/99/99
f 80/80/80 81/81/81 99/99/99 100/100/100
f 78/78/78 79/79/79 101/101/101 102/102/102
f 89/89/89 90/90/90 103/103/103
f 103/103/103 90/90/90 77/77/77
f 83/83/83 84/84/84 96/96/96 97/97/97
f 84/84/84 85/85/85 95/95/95 96/96/96
f 86/86/86 87/87/87 93/93/93 94/94/94
f 88/88/88 75/75/75 91/91/91 92/92/92
f 87/87/87 88/88/88 92/92/92 93/93/93
f 85/85/85 86/86/86 94/94/94 95/95/95
f 97/97/97 98/98/98 82/82/82 83/83/83
f 113/113/113 104/104/104 119/119/119
f 120/120/120 113/113/113 119/119/119
f 114/114/114 113/113/113 120/120/120
f 112/112/112 119/119/119 118/118/118
f 111/111/111 110/110/110 120/120/120
f 120/120/120 110/110/110 109/109/109 121/121/121
f 112/112/112 111/111/111 120/120/120
f 112/112/112 120/120/120 119/119/119
f 115/115/115 114/114/114 120/120/120
f 121/121/121 116/116/116 115/115/115
f 106/106/106 105/105/105 117/117/117
f 121/121/121 117/117/117 116/116/116
f 108/108/108 121/121/121 109/109/109
f 107/107/107 106/106/106 108/108/108
f 121/121/121 108/108/108 106/106/106
f 106/106/106 117/117/117 121/121/121
f 115/115/115 120/120/120 121/121/121
f 125/125/125 130/130/130 124/124/124
f 122/122/122 129/129/129 128/128/128 126/126/126
f 129/129/129 130/130/130 127/127/127 128/128/128
f 127/127/127 125/125/125 123/123/123
f 127/127/127 130/130/130 125/125/125
f 136/136/136 131/131/131 133/133/133 137/137/137
f 135/135/135 132/132/132 136/136/136
f 136/136/136 137/137/137 135/135/135
f 137/137/137 134/134/134 135/135/135
