# Rhino

mtllib 反面交线2.mtl
usemtl Default
v -200.72302752169998 660 640.6059944208 1
v -212.29748896931318 659.99999999999989 643.9999999999999 0.98984725379107519
v -224.35930606599999 660 644 1
cstype rat bspline
deg 2
curv 0 23.95985418019788 1 2 3
parm u 0 0 0 23.95985418019788 23.95985418019788 23.95985418019788
end
usemtl Default
v -224.35930606599996 660 644
v -310 660 644
cstype bspline
deg 1
curv 0 85.640693934000012 4 5
parm u 0 0 85.640693934000012 85.640693934000012
end
usemtl Default
v 51.774705377680007 660 566.56551159000003
v -200.72302752169998 660 640.60599442080002
cstype bspline
deg 1
curv -263.12943244180161 -0 6 7
parm u -263.12943244180161 -263.12943244180161 -0 -0
end
usemtl Default
v 110.39999999999992 660 242.80000000000015 1
v 201.30127190968011 660 310.9759539322586 0.85084031198415566
v 181.05575215902871 660 422.7843653304939 1
v 160.81023240837737 660 534.5927767287292 0.85084031198415566
v 51.774705377680036 660 566.56551159 1
cstype rat bspline
deg 2
curv 0 407.16535413881559 8 9 10 11 12
parm u 0 0 0 203.58267706940779 203.58267706940779 407.16535413881559 407.16535413881559 407.16535413881559
end
usemtl Default
v 84.00000001877001 659.99999998420003 189.9999995625 1
v 83.999999781249628 659.99999999999989 222.99999983593773 0.89442718939048382
v 110.40000000000001 660 242.8 1
cstype rat bspline
deg 2
curv 0 61.201484819633194 13 14 15
parm u 0 0 0 61.201484819633194 61.201484819633194 61.201484819633194
end
usemtl Default
v 84 660 60
v 84.000000018769995 659.99999998420003 189.99999956249999
cstype bspline
deg 1
curv -129.99999956249999 -0 16 17
parm u -129.99999956249999 -129.99999956249999 -0 -0
end
usemtl Default
v -310 660 60
v 84 660 60
cstype bspline
deg 1
curv 0 394 18 19
parm u 0 0 394 394
end
usemtl Default
v -310 660 644
v -310 660 60
cstype bspline
deg 1
curv 0 584 20 21
parm u 0 0 584 584
end
