# Rhino

mtllib 03装配基准线-01-1.mtl
usemtl Default
v 56.276853671390029 706.57440590119995 581.919034337 1
v 174.79373087868143 706.57440590119995 547.1660616616974 0.85084031198416044
v 196.79973060765059 706.57440590119995 425.6351797070802 1
v 218.80573033661972 706.57440590119995 304.10429775246297 0.85084031198416044
v 120 706.57440590119995 229.99999999999994 1
cstype rat bspline
deg 2
curv 0 442.57103710745855 1 2 3 4 5
parm u 0 0 0 221.28551855372928 221.28551855372928 442.57103710745855 442.57103710745855 442.57103710745855
end
